%TF.GenerationSoftware,KiCad,Pcbnew,5.99.0+really5.1.9+dfsg1-1*%
%TF.CreationDate,2021-04-27T14:05:33+03:00*%
%TF.ProjectId,accessController,61636365-7373-4436-9f6e-74726f6c6c65,rev?*%
%TF.SameCoordinates,Original*%
%TF.FileFunction,Legend,Bot*%
%TF.FilePolarity,Positive*%
%FSLAX46Y46*%
G04 Gerber Fmt 4.6, Leading zero omitted, Abs format (unit mm)*
G04 Created by KiCad (PCBNEW 5.99.0+really5.1.9+dfsg1-1) date 2021-04-27 14:05:33*
%MOMM*%
%LPD*%
G01*
G04 APERTURE LIST*
%ADD10C,0.120000*%
%ADD11C,0.150000*%
G04 APERTURE END LIST*
D10*
%TO.C,C1*%
X109755000Y-98366252D02*
X109755000Y-97843748D01*
X111225000Y-98366252D02*
X111225000Y-97843748D01*
%TO.C,C2*%
X110548748Y-104875000D02*
X111071252Y-104875000D01*
X110548748Y-103405000D02*
X111071252Y-103405000D01*
%TO.C,C3*%
X136920000Y-68425000D02*
X136920000Y-64215000D01*
X136920000Y-64215000D02*
X139940000Y-64215000D01*
X139940000Y-64215000D02*
X139940000Y-68425000D01*
%TO.C,C4*%
X134520000Y-66733748D02*
X134520000Y-67256252D01*
X135990000Y-66733748D02*
X135990000Y-67256252D01*
%TO.C,C5*%
X110116252Y-113565000D02*
X109593748Y-113565000D01*
X110116252Y-115035000D02*
X109593748Y-115035000D01*
%TO.C,C6*%
X135523000Y-76120000D02*
X135523000Y-71910000D01*
X138543000Y-76120000D02*
X135523000Y-76120000D01*
X138543000Y-71910000D02*
X138543000Y-76120000D01*
%TO.C,C7*%
X110116252Y-120750000D02*
X109593748Y-120750000D01*
X110116252Y-119280000D02*
X109593748Y-119280000D01*
%TO.C,L1*%
X139770000Y-83605000D02*
X139770000Y-77685000D01*
X139770000Y-77685000D02*
X139090000Y-77685000D01*
X139770000Y-83605000D02*
X139090000Y-83605000D01*
X134550000Y-83605000D02*
X134550000Y-77685000D01*
X135230000Y-77685000D02*
X134550000Y-77685000D01*
X135230000Y-83605000D02*
X134550000Y-83605000D01*
%TO.C,Q1*%
X124785000Y-89410000D02*
X125715000Y-89410000D01*
X127945000Y-89410000D02*
X127015000Y-89410000D01*
X127945000Y-89410000D02*
X127945000Y-91570000D01*
X124785000Y-89410000D02*
X124785000Y-90870000D01*
%TO.C,R1*%
X126592064Y-94080000D02*
X126137936Y-94080000D01*
X126592064Y-92610000D02*
X126137936Y-92610000D01*
%TO.C,R2*%
X111225000Y-117344564D02*
X111225000Y-116890436D01*
X109755000Y-117344564D02*
X109755000Y-116890436D01*
%TO.C,R3*%
X147855000Y-93117936D02*
X147855000Y-93572064D01*
X149325000Y-93117936D02*
X149325000Y-93572064D01*
%TO.C,R4*%
X144245000Y-93117936D02*
X144245000Y-93572064D01*
X142775000Y-93117936D02*
X142775000Y-93572064D01*
%TO.C,R5*%
X149125000Y-74164564D02*
X149125000Y-73710436D01*
X150595000Y-74164564D02*
X150595000Y-73710436D01*
%TO.C,R6*%
X149198064Y-76100000D02*
X148743936Y-76100000D01*
X149198064Y-77570000D02*
X148743936Y-77570000D01*
%TO.C,U1*%
X104775000Y-97135000D02*
X106725000Y-97135000D01*
X104775000Y-97135000D02*
X102825000Y-97135000D01*
X104775000Y-102255000D02*
X106725000Y-102255000D01*
X104775000Y-102255000D02*
X101325000Y-102255000D01*
%TO.C,U2*%
X130545000Y-77130000D02*
X132345000Y-77130000D01*
X132345000Y-80350000D02*
X129895000Y-80350000D01*
%TO.C,U3*%
X115350000Y-120447000D02*
X114960000Y-120447000D01*
X133590000Y-121107000D02*
X133590000Y-127527000D01*
X115350000Y-120447000D02*
X115335000Y-127527000D01*
X115335000Y-127527000D02*
X133590000Y-127527000D01*
X133580000Y-96537000D02*
X133580000Y-96277000D01*
X133580000Y-96277000D02*
X131920000Y-96277000D01*
X115340000Y-96637000D02*
X115340000Y-96277000D01*
X115340000Y-96277000D02*
X117000000Y-96277000D01*
%TO.C,C1*%
D11*
X112527142Y-97938333D02*
X112574761Y-97890714D01*
X112622380Y-97747857D01*
X112622380Y-97652619D01*
X112574761Y-97509761D01*
X112479523Y-97414523D01*
X112384285Y-97366904D01*
X112193809Y-97319285D01*
X112050952Y-97319285D01*
X111860476Y-97366904D01*
X111765238Y-97414523D01*
X111670000Y-97509761D01*
X111622380Y-97652619D01*
X111622380Y-97747857D01*
X111670000Y-97890714D01*
X111717619Y-97938333D01*
X112622380Y-98890714D02*
X112622380Y-98319285D01*
X112622380Y-98605000D02*
X111622380Y-98605000D01*
X111765238Y-98509761D01*
X111860476Y-98414523D01*
X111908095Y-98319285D01*
%TO.C,C2*%
X110976666Y-106177142D02*
X111024285Y-106224761D01*
X111167142Y-106272380D01*
X111262380Y-106272380D01*
X111405238Y-106224761D01*
X111500476Y-106129523D01*
X111548095Y-106034285D01*
X111595714Y-105843809D01*
X111595714Y-105700952D01*
X111548095Y-105510476D01*
X111500476Y-105415238D01*
X111405238Y-105320000D01*
X111262380Y-105272380D01*
X111167142Y-105272380D01*
X111024285Y-105320000D01*
X110976666Y-105367619D01*
X110595714Y-105367619D02*
X110548095Y-105320000D01*
X110452857Y-105272380D01*
X110214761Y-105272380D01*
X110119523Y-105320000D01*
X110071904Y-105367619D01*
X110024285Y-105462857D01*
X110024285Y-105558095D01*
X110071904Y-105700952D01*
X110643333Y-106272380D01*
X110024285Y-106272380D01*
%TO.C,C3*%
X136437142Y-66508333D02*
X136484761Y-66460714D01*
X136532380Y-66317857D01*
X136532380Y-66222619D01*
X136484761Y-66079761D01*
X136389523Y-65984523D01*
X136294285Y-65936904D01*
X136103809Y-65889285D01*
X135960952Y-65889285D01*
X135770476Y-65936904D01*
X135675238Y-65984523D01*
X135580000Y-66079761D01*
X135532380Y-66222619D01*
X135532380Y-66317857D01*
X135580000Y-66460714D01*
X135627619Y-66508333D01*
X135532380Y-66841666D02*
X135532380Y-67460714D01*
X135913333Y-67127380D01*
X135913333Y-67270238D01*
X135960952Y-67365476D01*
X136008571Y-67413095D01*
X136103809Y-67460714D01*
X136341904Y-67460714D01*
X136437142Y-67413095D01*
X136484761Y-67365476D01*
X136532380Y-67270238D01*
X136532380Y-66984523D01*
X136484761Y-66889285D01*
X136437142Y-66841666D01*
%TO.C,C4*%
X133932142Y-66828333D02*
X133979761Y-66780714D01*
X134027380Y-66637857D01*
X134027380Y-66542619D01*
X133979761Y-66399761D01*
X133884523Y-66304523D01*
X133789285Y-66256904D01*
X133598809Y-66209285D01*
X133455952Y-66209285D01*
X133265476Y-66256904D01*
X133170238Y-66304523D01*
X133075000Y-66399761D01*
X133027380Y-66542619D01*
X133027380Y-66637857D01*
X133075000Y-66780714D01*
X133122619Y-66828333D01*
X133360714Y-67685476D02*
X134027380Y-67685476D01*
X132979761Y-67447380D02*
X133694047Y-67209285D01*
X133694047Y-67828333D01*
%TO.C,C5*%
X110021666Y-112977142D02*
X110069285Y-113024761D01*
X110212142Y-113072380D01*
X110307380Y-113072380D01*
X110450238Y-113024761D01*
X110545476Y-112929523D01*
X110593095Y-112834285D01*
X110640714Y-112643809D01*
X110640714Y-112500952D01*
X110593095Y-112310476D01*
X110545476Y-112215238D01*
X110450238Y-112120000D01*
X110307380Y-112072380D01*
X110212142Y-112072380D01*
X110069285Y-112120000D01*
X110021666Y-112167619D01*
X109116904Y-112072380D02*
X109593095Y-112072380D01*
X109640714Y-112548571D01*
X109593095Y-112500952D01*
X109497857Y-112453333D01*
X109259761Y-112453333D01*
X109164523Y-112500952D01*
X109116904Y-112548571D01*
X109069285Y-112643809D01*
X109069285Y-112881904D01*
X109116904Y-112977142D01*
X109164523Y-113024761D01*
X109259761Y-113072380D01*
X109497857Y-113072380D01*
X109593095Y-113024761D01*
X109640714Y-112977142D01*
%TO.C,C6*%
X139740142Y-73493333D02*
X139787761Y-73445714D01*
X139835380Y-73302857D01*
X139835380Y-73207619D01*
X139787761Y-73064761D01*
X139692523Y-72969523D01*
X139597285Y-72921904D01*
X139406809Y-72874285D01*
X139263952Y-72874285D01*
X139073476Y-72921904D01*
X138978238Y-72969523D01*
X138883000Y-73064761D01*
X138835380Y-73207619D01*
X138835380Y-73302857D01*
X138883000Y-73445714D01*
X138930619Y-73493333D01*
X138835380Y-74350476D02*
X138835380Y-74160000D01*
X138883000Y-74064761D01*
X138930619Y-74017142D01*
X139073476Y-73921904D01*
X139263952Y-73874285D01*
X139644904Y-73874285D01*
X139740142Y-73921904D01*
X139787761Y-73969523D01*
X139835380Y-74064761D01*
X139835380Y-74255238D01*
X139787761Y-74350476D01*
X139740142Y-74398095D01*
X139644904Y-74445714D01*
X139406809Y-74445714D01*
X139311571Y-74398095D01*
X139263952Y-74350476D01*
X139216333Y-74255238D01*
X139216333Y-74064761D01*
X139263952Y-73969523D01*
X139311571Y-73921904D01*
X139406809Y-73874285D01*
%TO.C,C7*%
X110021666Y-118692142D02*
X110069285Y-118739761D01*
X110212142Y-118787380D01*
X110307380Y-118787380D01*
X110450238Y-118739761D01*
X110545476Y-118644523D01*
X110593095Y-118549285D01*
X110640714Y-118358809D01*
X110640714Y-118215952D01*
X110593095Y-118025476D01*
X110545476Y-117930238D01*
X110450238Y-117835000D01*
X110307380Y-117787380D01*
X110212142Y-117787380D01*
X110069285Y-117835000D01*
X110021666Y-117882619D01*
X109688333Y-117787380D02*
X109021666Y-117787380D01*
X109450238Y-118787380D01*
%TO.C,L1*%
X141112380Y-80478333D02*
X141112380Y-80002142D01*
X140112380Y-80002142D01*
X141112380Y-81335476D02*
X141112380Y-80764047D01*
X141112380Y-81049761D02*
X140112380Y-81049761D01*
X140255238Y-80954523D01*
X140350476Y-80859285D01*
X140398095Y-80764047D01*
%TO.C,Q1*%
X129412619Y-90074761D02*
X129365000Y-89979523D01*
X129269761Y-89884285D01*
X129126904Y-89741428D01*
X129079285Y-89646190D01*
X129079285Y-89550952D01*
X129317380Y-89598571D02*
X129269761Y-89503333D01*
X129174523Y-89408095D01*
X128984047Y-89360476D01*
X128650714Y-89360476D01*
X128460238Y-89408095D01*
X128365000Y-89503333D01*
X128317380Y-89598571D01*
X128317380Y-89789047D01*
X128365000Y-89884285D01*
X128460238Y-89979523D01*
X128650714Y-90027142D01*
X128984047Y-90027142D01*
X129174523Y-89979523D01*
X129269761Y-89884285D01*
X129317380Y-89789047D01*
X129317380Y-89598571D01*
X129317380Y-90979523D02*
X129317380Y-90408095D01*
X129317380Y-90693809D02*
X128317380Y-90693809D01*
X128460238Y-90598571D01*
X128555476Y-90503333D01*
X128603095Y-90408095D01*
%TO.C,R1*%
X126531666Y-92147380D02*
X126865000Y-91671190D01*
X127103095Y-92147380D02*
X127103095Y-91147380D01*
X126722142Y-91147380D01*
X126626904Y-91195000D01*
X126579285Y-91242619D01*
X126531666Y-91337857D01*
X126531666Y-91480714D01*
X126579285Y-91575952D01*
X126626904Y-91623571D01*
X126722142Y-91671190D01*
X127103095Y-91671190D01*
X125579285Y-92147380D02*
X126150714Y-92147380D01*
X125865000Y-92147380D02*
X125865000Y-91147380D01*
X125960238Y-91290238D01*
X126055476Y-91385476D01*
X126150714Y-91433095D01*
%TO.C,R2*%
X112592380Y-116950833D02*
X112116190Y-116617500D01*
X112592380Y-116379404D02*
X111592380Y-116379404D01*
X111592380Y-116760357D01*
X111640000Y-116855595D01*
X111687619Y-116903214D01*
X111782857Y-116950833D01*
X111925714Y-116950833D01*
X112020952Y-116903214D01*
X112068571Y-116855595D01*
X112116190Y-116760357D01*
X112116190Y-116379404D01*
X111687619Y-117331785D02*
X111640000Y-117379404D01*
X111592380Y-117474642D01*
X111592380Y-117712738D01*
X111640000Y-117807976D01*
X111687619Y-117855595D01*
X111782857Y-117903214D01*
X111878095Y-117903214D01*
X112020952Y-117855595D01*
X112592380Y-117284166D01*
X112592380Y-117903214D01*
%TO.C,R3*%
X147392380Y-93178333D02*
X146916190Y-92845000D01*
X147392380Y-92606904D02*
X146392380Y-92606904D01*
X146392380Y-92987857D01*
X146440000Y-93083095D01*
X146487619Y-93130714D01*
X146582857Y-93178333D01*
X146725714Y-93178333D01*
X146820952Y-93130714D01*
X146868571Y-93083095D01*
X146916190Y-92987857D01*
X146916190Y-92606904D01*
X146392380Y-93511666D02*
X146392380Y-94130714D01*
X146773333Y-93797380D01*
X146773333Y-93940238D01*
X146820952Y-94035476D01*
X146868571Y-94083095D01*
X146963809Y-94130714D01*
X147201904Y-94130714D01*
X147297142Y-94083095D01*
X147344761Y-94035476D01*
X147392380Y-93940238D01*
X147392380Y-93654523D01*
X147344761Y-93559285D01*
X147297142Y-93511666D01*
%TO.C,R4*%
X142312380Y-93178333D02*
X141836190Y-92845000D01*
X142312380Y-92606904D02*
X141312380Y-92606904D01*
X141312380Y-92987857D01*
X141360000Y-93083095D01*
X141407619Y-93130714D01*
X141502857Y-93178333D01*
X141645714Y-93178333D01*
X141740952Y-93130714D01*
X141788571Y-93083095D01*
X141836190Y-92987857D01*
X141836190Y-92606904D01*
X141645714Y-94035476D02*
X142312380Y-94035476D01*
X141264761Y-93797380D02*
X141979047Y-93559285D01*
X141979047Y-94178333D01*
%TO.C,R5*%
X151962380Y-73770833D02*
X151486190Y-73437500D01*
X151962380Y-73199404D02*
X150962380Y-73199404D01*
X150962380Y-73580357D01*
X151010000Y-73675595D01*
X151057619Y-73723214D01*
X151152857Y-73770833D01*
X151295714Y-73770833D01*
X151390952Y-73723214D01*
X151438571Y-73675595D01*
X151486190Y-73580357D01*
X151486190Y-73199404D01*
X150962380Y-74675595D02*
X150962380Y-74199404D01*
X151438571Y-74151785D01*
X151390952Y-74199404D01*
X151343333Y-74294642D01*
X151343333Y-74532738D01*
X151390952Y-74627976D01*
X151438571Y-74675595D01*
X151533809Y-74723214D01*
X151771904Y-74723214D01*
X151867142Y-74675595D01*
X151914761Y-74627976D01*
X151962380Y-74532738D01*
X151962380Y-74294642D01*
X151914761Y-74199404D01*
X151867142Y-74151785D01*
%TO.C,R6*%
X149137666Y-75637380D02*
X149471000Y-75161190D01*
X149709095Y-75637380D02*
X149709095Y-74637380D01*
X149328142Y-74637380D01*
X149232904Y-74685000D01*
X149185285Y-74732619D01*
X149137666Y-74827857D01*
X149137666Y-74970714D01*
X149185285Y-75065952D01*
X149232904Y-75113571D01*
X149328142Y-75161190D01*
X149709095Y-75161190D01*
X148280523Y-74637380D02*
X148471000Y-74637380D01*
X148566238Y-74685000D01*
X148613857Y-74732619D01*
X148709095Y-74875476D01*
X148756714Y-75065952D01*
X148756714Y-75446904D01*
X148709095Y-75542142D01*
X148661476Y-75589761D01*
X148566238Y-75637380D01*
X148375761Y-75637380D01*
X148280523Y-75589761D01*
X148232904Y-75542142D01*
X148185285Y-75446904D01*
X148185285Y-75208809D01*
X148232904Y-75113571D01*
X148280523Y-75065952D01*
X148375761Y-75018333D01*
X148566238Y-75018333D01*
X148661476Y-75065952D01*
X148709095Y-75113571D01*
X148756714Y-75208809D01*
%TO.C,U1*%
X105536904Y-102547380D02*
X105536904Y-103356904D01*
X105489285Y-103452142D01*
X105441666Y-103499761D01*
X105346428Y-103547380D01*
X105155952Y-103547380D01*
X105060714Y-103499761D01*
X105013095Y-103452142D01*
X104965476Y-103356904D01*
X104965476Y-102547380D01*
X103965476Y-103547380D02*
X104536904Y-103547380D01*
X104251190Y-103547380D02*
X104251190Y-102547380D01*
X104346428Y-102690238D01*
X104441666Y-102785476D01*
X104536904Y-102833095D01*
%TO.C,U2*%
X132206904Y-81092380D02*
X132206904Y-81901904D01*
X132159285Y-81997142D01*
X132111666Y-82044761D01*
X132016428Y-82092380D01*
X131825952Y-82092380D01*
X131730714Y-82044761D01*
X131683095Y-81997142D01*
X131635476Y-81901904D01*
X131635476Y-81092380D01*
X131206904Y-81187619D02*
X131159285Y-81140000D01*
X131064047Y-81092380D01*
X130825952Y-81092380D01*
X130730714Y-81140000D01*
X130683095Y-81187619D01*
X130635476Y-81282857D01*
X130635476Y-81378095D01*
X130683095Y-81520952D01*
X131254523Y-82092380D01*
X130635476Y-82092380D01*
%TO.C,U3*%
X113502380Y-96785095D02*
X114311904Y-96785095D01*
X114407142Y-96832714D01*
X114454761Y-96880333D01*
X114502380Y-96975571D01*
X114502380Y-97166047D01*
X114454761Y-97261285D01*
X114407142Y-97308904D01*
X114311904Y-97356523D01*
X113502380Y-97356523D01*
X113502380Y-97737476D02*
X113502380Y-98356523D01*
X113883333Y-98023190D01*
X113883333Y-98166047D01*
X113930952Y-98261285D01*
X113978571Y-98308904D01*
X114073809Y-98356523D01*
X114311904Y-98356523D01*
X114407142Y-98308904D01*
X114454761Y-98261285D01*
X114502380Y-98166047D01*
X114502380Y-97880333D01*
X114454761Y-97785095D01*
X114407142Y-97737476D01*
%TD*%
M02*
