M48
; DRILL file {KiCad 5.99.0+really5.1.9+dfsg1-1} date Mon Apr 26 13:39:32 2021
; FORMAT={-:-/ absolute / metric / decimal}
; #@! TF.CreationDate,2021-04-26T13:39:32+03:00
; #@! TF.GenerationSoftware,Kicad,Pcbnew,5.99.0+really5.1.9+dfsg1-1
; #@! TF.FileFunction,Plated,1,2,PTH
FMAT,2
METRIC
T1C0.800
T2C0.900
T3C1.000
T4C1.100
T5C1.300
T6C1.320
T7C1.500
T8C3.200
%
G90
G05
T1
X111.725Y-102.27
X111.76Y-95.25
X113.157Y-118.745
X113.21Y-97.663
X113.21Y-101.043
X121.285Y-74.295
X122.555Y-76.835
X122.555Y-93.98
X130.175Y-74.295
X131.445Y-75.565
X131.445Y-83.185
X136.271Y-118.745
X140.208Y-74.93
X140.335Y-101.6
X140.335Y-107.95
X142.24Y-80.645
X142.875Y-96.52
X146.685Y-80.645
X146.685Y-82.55
X146.685Y-85.09
X147.32Y-74.93
X148.59Y-50.165
X148.59Y-67.31
X150.495Y-69.85
X150.675Y-51.435
X153.035Y-96.52
T2
X143.764Y-89.535
X146.304Y-89.535
X148.844Y-89.535
T3
X83.82Y-116.205
X83.82Y-118.745
X86.36Y-116.205
X86.36Y-118.745
X88.9Y-116.205
X88.9Y-118.745
X91.44Y-116.205
X91.44Y-118.745
X93.98Y-116.205
X93.98Y-118.745
X96.52Y-116.205
X96.52Y-118.745
X99.06Y-116.205
X99.06Y-118.745
X101.6Y-116.205
X101.6Y-118.745
X104.14Y-116.205
X104.14Y-118.745
X106.68Y-116.205
X106.68Y-118.745
X130.83Y-91.44
X137.16Y-100.33
X137.16Y-102.87
X138.43Y-91.44
X139.065Y-111.125
X139.065Y-113.665
X139.065Y-116.205
X139.065Y-118.745
X153.035Y-50.165
X153.035Y-52.705
X153.035Y-55.245
X153.035Y-57.785
X153.035Y-60.325
X153.035Y-62.865
X153.035Y-65.405
X153.035Y-67.945
X153.035Y-74.295
X153.035Y-76.835
X153.035Y-79.375
X153.035Y-81.915
T4
X126.365Y-76.2
X126.365Y-86.36
X144.145Y-99.545
X144.145Y-106.045
X144.145Y-112.245
X144.145Y-118.745
X148.645Y-99.545
X148.645Y-106.045
X148.645Y-112.245
X148.645Y-118.745
T5
X103.91Y-79.09
X103.91Y-91.09
X116.11Y-79.09
X116.11Y-91.09
X118.11Y-85.09
T6
X90.17Y-58.42
X90.17Y-63.42
X90.17Y-68.42
X90.17Y-80.01
X90.17Y-85.01
X90.17Y-90.01
X90.17Y-97.79
X90.17Y-102.79
T7
X104.14Y-58.42
X104.14Y-69.17
X142.64Y-61.17
X142.64Y-69.17
T8
X85.725Y-50.165
X85.725Y-123.825
X152.4Y-123.825
T0
M30
