%TF.GenerationSoftware,KiCad,Pcbnew,5.99.0+really5.1.9+dfsg1-1*%
%TF.CreationDate,2021-04-26T12:50:51+03:00*%
%TF.ProjectId,accessController,61636365-7373-4436-9f6e-74726f6c6c65,rev?*%
%TF.SameCoordinates,Original*%
%TF.FileFunction,Soldermask,Top*%
%TF.FilePolarity,Negative*%
%FSLAX46Y46*%
G04 Gerber Fmt 4.6, Leading zero omitted, Abs format (unit mm)*
G04 Created by KiCad (PCBNEW 5.99.0+really5.1.9+dfsg1-1) date 2021-04-26 12:50:51*
%MOMM*%
%LPD*%
G01*
G04 APERTURE LIST*
%ADD10C,6.400000*%
%ADD11R,2.000000X2.000000*%
%ADD12C,2.000000*%
%ADD13R,2.200000X2.200000*%
%ADD14O,2.200000X2.200000*%
%ADD15R,1.800000X1.800000*%
%ADD16C,1.800000*%
%ADD17R,3.960000X1.980000*%
%ADD18O,3.960000X1.980000*%
%ADD19C,3.000000*%
%ADD20R,3.000000X3.000000*%
%ADD21R,1.700000X1.700000*%
%ADD22O,1.700000X1.700000*%
G04 APERTURE END LIST*
D10*
%TO.C,REF\u002A\u002A*%
X152400000Y-123825000D03*
%TD*%
%TO.C,REF\u002A\u002A*%
X85725000Y-123825000D03*
%TD*%
%TO.C,REF\u002A\u002A*%
X85725000Y-50165000D03*
%TD*%
D11*
%TO.C,BZ1*%
X138430000Y-91440000D03*
D12*
X130830000Y-91440000D03*
%TD*%
D13*
%TO.C,D1*%
X126365000Y-76200000D03*
D14*
X126365000Y-86360000D03*
%TD*%
D15*
%TO.C,D2*%
X148844000Y-89535000D03*
D16*
X146304000Y-89535000D03*
X143764000Y-89535000D03*
%TD*%
D17*
%TO.C,J1*%
X90170000Y-58420000D03*
D18*
X90170000Y-63420000D03*
X90170000Y-68420000D03*
%TD*%
%TO.C,J2*%
X90170000Y-90010000D03*
X90170000Y-85010000D03*
D17*
X90170000Y-80010000D03*
%TD*%
%TO.C,J3*%
X90170000Y-97790000D03*
D18*
X90170000Y-102790000D03*
%TD*%
D19*
%TO.C,PS1*%
X142640000Y-69170000D03*
X104140000Y-69170000D03*
X142640000Y-61170000D03*
D20*
X104140000Y-58420000D03*
%TD*%
D12*
%TO.C,SW1*%
X144145000Y-112245000D03*
X148645000Y-112245000D03*
X144145000Y-118745000D03*
X148645000Y-118745000D03*
%TD*%
%TO.C,SW2*%
X148645000Y-106045000D03*
X144145000Y-106045000D03*
X148645000Y-99545000D03*
X144145000Y-99545000D03*
%TD*%
D19*
%TO.C,K1*%
X116110000Y-79090000D03*
X103910000Y-79090000D03*
X103910000Y-91090000D03*
X116110000Y-91090000D03*
X118110000Y-85090000D03*
%TD*%
D21*
%TO.C,Brd1*%
X153035000Y-74295000D03*
D22*
X153035000Y-76835000D03*
X153035000Y-79375000D03*
X153035000Y-81915000D03*
%TD*%
D21*
%TO.C,J4*%
X106680000Y-116205000D03*
D22*
X106680000Y-118745000D03*
X104140000Y-116205000D03*
X104140000Y-118745000D03*
X101600000Y-116205000D03*
X101600000Y-118745000D03*
X99060000Y-116205000D03*
X99060000Y-118745000D03*
X96520000Y-116205000D03*
X96520000Y-118745000D03*
X93980000Y-116205000D03*
X93980000Y-118745000D03*
X91440000Y-116205000D03*
X91440000Y-118745000D03*
X88900000Y-116205000D03*
X88900000Y-118745000D03*
X86360000Y-116205000D03*
X86360000Y-118745000D03*
X83820000Y-116205000D03*
X83820000Y-118745000D03*
%TD*%
%TO.C,J5*%
X139065000Y-111125000D03*
X139065000Y-113665000D03*
X139065000Y-116205000D03*
D21*
X139065000Y-118745000D03*
%TD*%
%TO.C,JP1*%
X137160000Y-100330000D03*
D22*
X137160000Y-102870000D03*
%TD*%
D21*
%TO.C,RFID1*%
X153035000Y-67945000D03*
D22*
X153035000Y-65405000D03*
X153035000Y-62865000D03*
X153035000Y-60325000D03*
X153035000Y-57785000D03*
X153035000Y-55245000D03*
X153035000Y-52705000D03*
X153035000Y-50165000D03*
%TD*%
M02*
