%TF.GenerationSoftware,KiCad,Pcbnew,5.99.0+really5.1.9+dfsg1-1*%
%TF.CreationDate,2021-04-26T12:50:51+03:00*%
%TF.ProjectId,accessController,61636365-7373-4436-9f6e-74726f6c6c65,rev?*%
%TF.SameCoordinates,Original*%
%TF.FileFunction,Copper,L2,Bot*%
%TF.FilePolarity,Positive*%
%FSLAX46Y46*%
G04 Gerber Fmt 4.6, Leading zero omitted, Abs format (unit mm)*
G04 Created by KiCad (PCBNEW 5.99.0+really5.1.9+dfsg1-1) date 2021-04-26 12:50:51*
%MOMM*%
%LPD*%
G01*
G04 APERTURE LIST*
%TA.AperFunction,ComponentPad*%
%ADD10C,6.400000*%
%TD*%
%TA.AperFunction,ComponentPad*%
%ADD11R,2.000000X2.000000*%
%TD*%
%TA.AperFunction,ComponentPad*%
%ADD12C,2.000000*%
%TD*%
%TA.AperFunction,ComponentPad*%
%ADD13R,2.200000X2.200000*%
%TD*%
%TA.AperFunction,ComponentPad*%
%ADD14O,2.200000X2.200000*%
%TD*%
%TA.AperFunction,ComponentPad*%
%ADD15R,1.800000X1.800000*%
%TD*%
%TA.AperFunction,ComponentPad*%
%ADD16C,1.800000*%
%TD*%
%TA.AperFunction,ComponentPad*%
%ADD17R,3.960000X1.980000*%
%TD*%
%TA.AperFunction,ComponentPad*%
%ADD18O,3.960000X1.980000*%
%TD*%
%TA.AperFunction,SMDPad,CuDef*%
%ADD19R,3.500000X3.000000*%
%TD*%
%TA.AperFunction,ComponentPad*%
%ADD20C,3.000000*%
%TD*%
%TA.AperFunction,ComponentPad*%
%ADD21R,3.000000X3.000000*%
%TD*%
%TA.AperFunction,SMDPad,CuDef*%
%ADD22R,0.800000X0.900000*%
%TD*%
%TA.AperFunction,SMDPad,CuDef*%
%ADD23R,1.060000X0.650000*%
%TD*%
%TA.AperFunction,SMDPad,CuDef*%
%ADD24R,4.100000X4.100000*%
%TD*%
%TA.AperFunction,SMDPad,CuDef*%
%ADD25R,1.500000X0.900000*%
%TD*%
%TA.AperFunction,ComponentPad*%
%ADD26R,1.700000X1.700000*%
%TD*%
%TA.AperFunction,ComponentPad*%
%ADD27O,1.700000X1.700000*%
%TD*%
%TA.AperFunction,ViaPad*%
%ADD28C,1.500000*%
%TD*%
%TA.AperFunction,Conductor*%
%ADD29C,0.600000*%
%TD*%
%TA.AperFunction,Conductor*%
%ADD30C,0.250000*%
%TD*%
%TA.AperFunction,Conductor*%
%ADD31C,2.500000*%
%TD*%
%TA.AperFunction,Conductor*%
%ADD32C,0.400000*%
%TD*%
%TA.AperFunction,Conductor*%
%ADD33C,1.000000*%
%TD*%
%TA.AperFunction,Conductor*%
%ADD34C,0.750000*%
%TD*%
%TA.AperFunction,Conductor*%
%ADD35C,0.450000*%
%TD*%
%TA.AperFunction,Conductor*%
%ADD36C,0.500000*%
%TD*%
%TA.AperFunction,Conductor*%
%ADD37C,0.254000*%
%TD*%
%TA.AperFunction,Conductor*%
%ADD38C,0.100000*%
%TD*%
G04 APERTURE END LIST*
D10*
%TO.P,REF\u002A\u002A,1*%
%TO.N,Earth*%
X152400000Y-123825000D03*
%TD*%
%TO.P,REF\u002A\u002A,1*%
%TO.N,Earth*%
X85725000Y-123825000D03*
%TD*%
%TO.P,REF\u002A\u002A,1*%
%TO.N,N/C*%
X85725000Y-50165000D03*
%TD*%
D11*
%TO.P,BZ1,1*%
%TO.N,Net-(BZ1-Pad1)*%
X138430000Y-91440000D03*
D12*
%TO.P,BZ1,2*%
%TO.N,Earth*%
X130830000Y-91440000D03*
%TD*%
%TO.P,C1,2*%
%TO.N,Earth*%
%TA.AperFunction,SMDPad,CuDef*%
G36*
G01*
X110965000Y-97655000D02*
X110015000Y-97655000D01*
G75*
G02*
X109765000Y-97405000I0J250000D01*
G01*
X109765000Y-96905000D01*
G75*
G02*
X110015000Y-96655000I250000J0D01*
G01*
X110965000Y-96655000D01*
G75*
G02*
X111215000Y-96905000I0J-250000D01*
G01*
X111215000Y-97405000D01*
G75*
G02*
X110965000Y-97655000I-250000J0D01*
G01*
G37*
%TD.AperFunction*%
%TO.P,C1,1*%
%TO.N,Net-(C1-Pad1)*%
%TA.AperFunction,SMDPad,CuDef*%
G36*
G01*
X110965000Y-99555000D02*
X110015000Y-99555000D01*
G75*
G02*
X109765000Y-99305000I0J250000D01*
G01*
X109765000Y-98805000D01*
G75*
G02*
X110015000Y-98555000I250000J0D01*
G01*
X110965000Y-98555000D01*
G75*
G02*
X111215000Y-98805000I0J-250000D01*
G01*
X111215000Y-99305000D01*
G75*
G02*
X110965000Y-99555000I-250000J0D01*
G01*
G37*
%TD.AperFunction*%
%TD*%
%TO.P,C2,1*%
%TO.N,+5V*%
%TA.AperFunction,SMDPad,CuDef*%
G36*
G01*
X109360000Y-104615000D02*
X109360000Y-103665000D01*
G75*
G02*
X109610000Y-103415000I250000J0D01*
G01*
X110110000Y-103415000D01*
G75*
G02*
X110360000Y-103665000I0J-250000D01*
G01*
X110360000Y-104615000D01*
G75*
G02*
X110110000Y-104865000I-250000J0D01*
G01*
X109610000Y-104865000D01*
G75*
G02*
X109360000Y-104615000I0J250000D01*
G01*
G37*
%TD.AperFunction*%
%TO.P,C2,2*%
%TO.N,Earth*%
%TA.AperFunction,SMDPad,CuDef*%
G36*
G01*
X111260000Y-104615000D02*
X111260000Y-103665000D01*
G75*
G02*
X111510000Y-103415000I250000J0D01*
G01*
X112010000Y-103415000D01*
G75*
G02*
X112260000Y-103665000I0J-250000D01*
G01*
X112260000Y-104615000D01*
G75*
G02*
X112010000Y-104865000I-250000J0D01*
G01*
X111510000Y-104865000D01*
G75*
G02*
X111260000Y-104615000I0J250000D01*
G01*
G37*
%TD.AperFunction*%
%TD*%
%TO.P,C3,1*%
%TO.N,+5V*%
%TA.AperFunction,SMDPad,CuDef*%
G36*
G01*
X137504999Y-64475000D02*
X139355001Y-64475000D01*
G75*
G02*
X139605000Y-64724999I0J-249999D01*
G01*
X139605000Y-65550001D01*
G75*
G02*
X139355001Y-65800000I-249999J0D01*
G01*
X137504999Y-65800000D01*
G75*
G02*
X137255000Y-65550001I0J249999D01*
G01*
X137255000Y-64724999D01*
G75*
G02*
X137504999Y-64475000I249999J0D01*
G01*
G37*
%TD.AperFunction*%
%TO.P,C3,2*%
%TO.N,Earth*%
%TA.AperFunction,SMDPad,CuDef*%
G36*
G01*
X137504999Y-67550000D02*
X139355001Y-67550000D01*
G75*
G02*
X139605000Y-67799999I0J-249999D01*
G01*
X139605000Y-68625001D01*
G75*
G02*
X139355001Y-68875000I-249999J0D01*
G01*
X137504999Y-68875000D01*
G75*
G02*
X137255000Y-68625001I0J249999D01*
G01*
X137255000Y-67799999D01*
G75*
G02*
X137504999Y-67550000I249999J0D01*
G01*
G37*
%TD.AperFunction*%
%TD*%
%TO.P,C4,1*%
%TO.N,+5V*%
%TA.AperFunction,SMDPad,CuDef*%
G36*
G01*
X134780000Y-65545000D02*
X135730000Y-65545000D01*
G75*
G02*
X135980000Y-65795000I0J-250000D01*
G01*
X135980000Y-66295000D01*
G75*
G02*
X135730000Y-66545000I-250000J0D01*
G01*
X134780000Y-66545000D01*
G75*
G02*
X134530000Y-66295000I0J250000D01*
G01*
X134530000Y-65795000D01*
G75*
G02*
X134780000Y-65545000I250000J0D01*
G01*
G37*
%TD.AperFunction*%
%TO.P,C4,2*%
%TO.N,Earth*%
%TA.AperFunction,SMDPad,CuDef*%
G36*
G01*
X134780000Y-67445000D02*
X135730000Y-67445000D01*
G75*
G02*
X135980000Y-67695000I0J-250000D01*
G01*
X135980000Y-68195000D01*
G75*
G02*
X135730000Y-68445000I-250000J0D01*
G01*
X134780000Y-68445000D01*
G75*
G02*
X134530000Y-68195000I0J250000D01*
G01*
X134530000Y-67695000D01*
G75*
G02*
X134780000Y-67445000I250000J0D01*
G01*
G37*
%TD.AperFunction*%
%TD*%
%TO.P,C5,1*%
%TO.N,Net-(C5-Pad1)*%
%TA.AperFunction,SMDPad,CuDef*%
G36*
G01*
X111305000Y-113825000D02*
X111305000Y-114775000D01*
G75*
G02*
X111055000Y-115025000I-250000J0D01*
G01*
X110555000Y-115025000D01*
G75*
G02*
X110305000Y-114775000I0J250000D01*
G01*
X110305000Y-113825000D01*
G75*
G02*
X110555000Y-113575000I250000J0D01*
G01*
X111055000Y-113575000D01*
G75*
G02*
X111305000Y-113825000I0J-250000D01*
G01*
G37*
%TD.AperFunction*%
%TO.P,C5,2*%
%TO.N,Earth*%
%TA.AperFunction,SMDPad,CuDef*%
G36*
G01*
X109405000Y-113825000D02*
X109405000Y-114775000D01*
G75*
G02*
X109155000Y-115025000I-250000J0D01*
G01*
X108655000Y-115025000D01*
G75*
G02*
X108405000Y-114775000I0J250000D01*
G01*
X108405000Y-113825000D01*
G75*
G02*
X108655000Y-113575000I250000J0D01*
G01*
X109155000Y-113575000D01*
G75*
G02*
X109405000Y-113825000I0J-250000D01*
G01*
G37*
%TD.AperFunction*%
%TD*%
%TO.P,C6,2*%
%TO.N,Earth*%
%TA.AperFunction,SMDPad,CuDef*%
G36*
G01*
X137958001Y-72785000D02*
X136107999Y-72785000D01*
G75*
G02*
X135858000Y-72535001I0J249999D01*
G01*
X135858000Y-71709999D01*
G75*
G02*
X136107999Y-71460000I249999J0D01*
G01*
X137958001Y-71460000D01*
G75*
G02*
X138208000Y-71709999I0J-249999D01*
G01*
X138208000Y-72535001D01*
G75*
G02*
X137958001Y-72785000I-249999J0D01*
G01*
G37*
%TD.AperFunction*%
%TO.P,C6,1*%
%TO.N,+3V3*%
%TA.AperFunction,SMDPad,CuDef*%
G36*
G01*
X137958001Y-75860000D02*
X136107999Y-75860000D01*
G75*
G02*
X135858000Y-75610001I0J249999D01*
G01*
X135858000Y-74784999D01*
G75*
G02*
X136107999Y-74535000I249999J0D01*
G01*
X137958001Y-74535000D01*
G75*
G02*
X138208000Y-74784999I0J-249999D01*
G01*
X138208000Y-75610001D01*
G75*
G02*
X137958001Y-75860000I-249999J0D01*
G01*
G37*
%TD.AperFunction*%
%TD*%
%TO.P,C7,2*%
%TO.N,Earth*%
%TA.AperFunction,SMDPad,CuDef*%
G36*
G01*
X109405000Y-119540000D02*
X109405000Y-120490000D01*
G75*
G02*
X109155000Y-120740000I-250000J0D01*
G01*
X108655000Y-120740000D01*
G75*
G02*
X108405000Y-120490000I0J250000D01*
G01*
X108405000Y-119540000D01*
G75*
G02*
X108655000Y-119290000I250000J0D01*
G01*
X109155000Y-119290000D01*
G75*
G02*
X109405000Y-119540000I0J-250000D01*
G01*
G37*
%TD.AperFunction*%
%TO.P,C7,1*%
%TO.N,+3V3*%
%TA.AperFunction,SMDPad,CuDef*%
G36*
G01*
X111305000Y-119540000D02*
X111305000Y-120490000D01*
G75*
G02*
X111055000Y-120740000I-250000J0D01*
G01*
X110555000Y-120740000D01*
G75*
G02*
X110305000Y-120490000I0J250000D01*
G01*
X110305000Y-119540000D01*
G75*
G02*
X110555000Y-119290000I250000J0D01*
G01*
X111055000Y-119290000D01*
G75*
G02*
X111305000Y-119540000I0J-250000D01*
G01*
G37*
%TD.AperFunction*%
%TD*%
D13*
%TO.P,D1,1*%
%TO.N,+5V*%
X126365000Y-76200000D03*
D14*
%TO.P,D1,2*%
%TO.N,Net-(D1-Pad2)*%
X126365000Y-86360000D03*
%TD*%
D15*
%TO.P,D2,1*%
%TO.N,Net-(D2-Pad1)*%
X148844000Y-89535000D03*
D16*
%TO.P,D2,2*%
%TO.N,Earth*%
X146304000Y-89535000D03*
%TO.P,D2,3*%
%TO.N,Net-(D2-Pad3)*%
X143764000Y-89535000D03*
%TD*%
D17*
%TO.P,J1,1*%
%TO.N,Net-(J1-Pad1)*%
X90170000Y-58420000D03*
D18*
%TO.P,J1,2*%
%TO.N,Earth*%
X90170000Y-63420000D03*
%TO.P,J1,3*%
%TO.N,Net-(J1-Pad3)*%
X90170000Y-68420000D03*
%TD*%
%TO.P,J2,3*%
%TO.N,Net-(J2-Pad3)*%
X90170000Y-90010000D03*
%TO.P,J2,2*%
%TO.N,Net-(J2-Pad2)*%
X90170000Y-85010000D03*
D17*
%TO.P,J2,1*%
%TO.N,Net-(J2-Pad1)*%
X90170000Y-80010000D03*
%TD*%
%TO.P,J3,1*%
%TO.N,Net-(J3-Pad1)*%
X90170000Y-97790000D03*
D18*
%TO.P,J3,2*%
%TO.N,Net-(J3-Pad2)*%
X90170000Y-102790000D03*
%TD*%
D19*
%TO.P,L1,1*%
%TO.N,Net-(L1-Pad1)*%
X137160000Y-83145000D03*
%TO.P,L1,2*%
%TO.N,+3V3*%
X137160000Y-78145000D03*
%TD*%
D20*
%TO.P,PS1,3*%
%TO.N,Earth*%
X142640000Y-69170000D03*
%TO.P,PS1,2*%
%TO.N,Net-(J1-Pad3)*%
X104140000Y-69170000D03*
%TO.P,PS1,4*%
%TO.N,+5V*%
X142640000Y-61170000D03*
D21*
%TO.P,PS1,1*%
%TO.N,Net-(J1-Pad1)*%
X104140000Y-58420000D03*
%TD*%
D22*
%TO.P,Q1,1*%
%TO.N,Net-(Q1-Pad1)*%
X127315000Y-91170000D03*
%TO.P,Q1,2*%
%TO.N,Earth*%
X125415000Y-91170000D03*
%TO.P,Q1,3*%
%TO.N,Net-(D1-Pad2)*%
X126365000Y-89170000D03*
%TD*%
%TO.P,R1,2*%
%TO.N,Net-(R1-Pad2)*%
%TA.AperFunction,SMDPad,CuDef*%
G36*
G01*
X125965000Y-92894999D02*
X125965000Y-93795001D01*
G75*
G02*
X125715001Y-94045000I-249999J0D01*
G01*
X125189999Y-94045000D01*
G75*
G02*
X124940000Y-93795001I0J249999D01*
G01*
X124940000Y-92894999D01*
G75*
G02*
X125189999Y-92645000I249999J0D01*
G01*
X125715001Y-92645000D01*
G75*
G02*
X125965000Y-92894999I0J-249999D01*
G01*
G37*
%TD.AperFunction*%
%TO.P,R1,1*%
%TO.N,Net-(Q1-Pad1)*%
%TA.AperFunction,SMDPad,CuDef*%
G36*
G01*
X127790000Y-92894999D02*
X127790000Y-93795001D01*
G75*
G02*
X127540001Y-94045000I-249999J0D01*
G01*
X127014999Y-94045000D01*
G75*
G02*
X126765000Y-93795001I0J249999D01*
G01*
X126765000Y-92894999D01*
G75*
G02*
X127014999Y-92645000I249999J0D01*
G01*
X127540001Y-92645000D01*
G75*
G02*
X127790000Y-92894999I0J-249999D01*
G01*
G37*
%TD.AperFunction*%
%TD*%
%TO.P,R2,1*%
%TO.N,+3V3*%
%TA.AperFunction,SMDPad,CuDef*%
G36*
G01*
X110940001Y-118542500D02*
X110039999Y-118542500D01*
G75*
G02*
X109790000Y-118292501I0J249999D01*
G01*
X109790000Y-117767499D01*
G75*
G02*
X110039999Y-117517500I249999J0D01*
G01*
X110940001Y-117517500D01*
G75*
G02*
X111190000Y-117767499I0J-249999D01*
G01*
X111190000Y-118292501D01*
G75*
G02*
X110940001Y-118542500I-249999J0D01*
G01*
G37*
%TD.AperFunction*%
%TO.P,R2,2*%
%TO.N,Net-(C5-Pad1)*%
%TA.AperFunction,SMDPad,CuDef*%
G36*
G01*
X110940001Y-116717500D02*
X110039999Y-116717500D01*
G75*
G02*
X109790000Y-116467501I0J249999D01*
G01*
X109790000Y-115942499D01*
G75*
G02*
X110039999Y-115692500I249999J0D01*
G01*
X110940001Y-115692500D01*
G75*
G02*
X111190000Y-115942499I0J-249999D01*
G01*
X111190000Y-116467501D01*
G75*
G02*
X110940001Y-116717500I-249999J0D01*
G01*
G37*
%TD.AperFunction*%
%TD*%
%TO.P,R3,1*%
%TO.N,Net-(D2-Pad1)*%
%TA.AperFunction,SMDPad,CuDef*%
G36*
G01*
X148139999Y-91920000D02*
X149040001Y-91920000D01*
G75*
G02*
X149290000Y-92169999I0J-249999D01*
G01*
X149290000Y-92695001D01*
G75*
G02*
X149040001Y-92945000I-249999J0D01*
G01*
X148139999Y-92945000D01*
G75*
G02*
X147890000Y-92695001I0J249999D01*
G01*
X147890000Y-92169999D01*
G75*
G02*
X148139999Y-91920000I249999J0D01*
G01*
G37*
%TD.AperFunction*%
%TO.P,R3,2*%
%TO.N,Net-(R3-Pad2)*%
%TA.AperFunction,SMDPad,CuDef*%
G36*
G01*
X148139999Y-93745000D02*
X149040001Y-93745000D01*
G75*
G02*
X149290000Y-93994999I0J-249999D01*
G01*
X149290000Y-94520001D01*
G75*
G02*
X149040001Y-94770000I-249999J0D01*
G01*
X148139999Y-94770000D01*
G75*
G02*
X147890000Y-94520001I0J249999D01*
G01*
X147890000Y-93994999D01*
G75*
G02*
X148139999Y-93745000I249999J0D01*
G01*
G37*
%TD.AperFunction*%
%TD*%
%TO.P,R4,2*%
%TO.N,Net-(R4-Pad2)*%
%TA.AperFunction,SMDPad,CuDef*%
G36*
G01*
X143059999Y-93745000D02*
X143960001Y-93745000D01*
G75*
G02*
X144210000Y-93994999I0J-249999D01*
G01*
X144210000Y-94520001D01*
G75*
G02*
X143960001Y-94770000I-249999J0D01*
G01*
X143059999Y-94770000D01*
G75*
G02*
X142810000Y-94520001I0J249999D01*
G01*
X142810000Y-93994999D01*
G75*
G02*
X143059999Y-93745000I249999J0D01*
G01*
G37*
%TD.AperFunction*%
%TO.P,R4,1*%
%TO.N,Net-(D2-Pad3)*%
%TA.AperFunction,SMDPad,CuDef*%
G36*
G01*
X143059999Y-91920000D02*
X143960001Y-91920000D01*
G75*
G02*
X144210000Y-92169999I0J-249999D01*
G01*
X144210000Y-92695001D01*
G75*
G02*
X143960001Y-92945000I-249999J0D01*
G01*
X143059999Y-92945000D01*
G75*
G02*
X142810000Y-92695001I0J249999D01*
G01*
X142810000Y-92169999D01*
G75*
G02*
X143059999Y-91920000I249999J0D01*
G01*
G37*
%TD.AperFunction*%
%TD*%
%TO.P,R5,2*%
%TO.N,Net-(Brd1-Pad4)*%
%TA.AperFunction,SMDPad,CuDef*%
G36*
G01*
X150310001Y-73537500D02*
X149409999Y-73537500D01*
G75*
G02*
X149160000Y-73287501I0J249999D01*
G01*
X149160000Y-72762499D01*
G75*
G02*
X149409999Y-72512500I249999J0D01*
G01*
X150310001Y-72512500D01*
G75*
G02*
X150560000Y-72762499I0J-249999D01*
G01*
X150560000Y-73287501D01*
G75*
G02*
X150310001Y-73537500I-249999J0D01*
G01*
G37*
%TD.AperFunction*%
%TO.P,R5,1*%
%TO.N,+3V3*%
%TA.AperFunction,SMDPad,CuDef*%
G36*
G01*
X150310001Y-75362500D02*
X149409999Y-75362500D01*
G75*
G02*
X149160000Y-75112501I0J249999D01*
G01*
X149160000Y-74587499D01*
G75*
G02*
X149409999Y-74337500I249999J0D01*
G01*
X150310001Y-74337500D01*
G75*
G02*
X150560000Y-74587499I0J-249999D01*
G01*
X150560000Y-75112501D01*
G75*
G02*
X150310001Y-75362500I-249999J0D01*
G01*
G37*
%TD.AperFunction*%
%TD*%
%TO.P,R6,1*%
%TO.N,+3V3*%
%TA.AperFunction,SMDPad,CuDef*%
G36*
G01*
X150396000Y-76384999D02*
X150396000Y-77285001D01*
G75*
G02*
X150146001Y-77535000I-249999J0D01*
G01*
X149620999Y-77535000D01*
G75*
G02*
X149371000Y-77285001I0J249999D01*
G01*
X149371000Y-76384999D01*
G75*
G02*
X149620999Y-76135000I249999J0D01*
G01*
X150146001Y-76135000D01*
G75*
G02*
X150396000Y-76384999I0J-249999D01*
G01*
G37*
%TD.AperFunction*%
%TO.P,R6,2*%
%TO.N,Net-(Brd1-Pad3)*%
%TA.AperFunction,SMDPad,CuDef*%
G36*
G01*
X148571000Y-76384999D02*
X148571000Y-77285001D01*
G75*
G02*
X148321001Y-77535000I-249999J0D01*
G01*
X147795999Y-77535000D01*
G75*
G02*
X147546000Y-77285001I0J249999D01*
G01*
X147546000Y-76384999D01*
G75*
G02*
X147795999Y-76135000I249999J0D01*
G01*
X148321001Y-76135000D01*
G75*
G02*
X148571000Y-76384999I0J-249999D01*
G01*
G37*
%TD.AperFunction*%
%TD*%
D12*
%TO.P,SW1,1*%
%TO.N,Net-(SW1-Pad1)*%
X144145000Y-112245000D03*
%TO.P,SW1,2*%
%TO.N,Earth*%
X148645000Y-112245000D03*
%TO.P,SW1,1*%
%TO.N,Net-(SW1-Pad1)*%
X144145000Y-118745000D03*
%TO.P,SW1,2*%
%TO.N,Earth*%
X148645000Y-118745000D03*
%TD*%
%TO.P,SW2,2*%
%TO.N,Earth*%
X148645000Y-106045000D03*
%TO.P,SW2,1*%
%TO.N,Net-(SW2-Pad1)*%
X144145000Y-106045000D03*
%TO.P,SW2,2*%
%TO.N,Earth*%
X148645000Y-99545000D03*
%TO.P,SW2,1*%
%TO.N,Net-(SW2-Pad1)*%
X144145000Y-99545000D03*
%TD*%
%TO.P,U1,1*%
%TO.N,Net-(J3-Pad2)*%
%TA.AperFunction,SMDPad,CuDef*%
G36*
G01*
X101325000Y-101750000D02*
X101325000Y-101450000D01*
G75*
G02*
X101475000Y-101300000I150000J0D01*
G01*
X103125000Y-101300000D01*
G75*
G02*
X103275000Y-101450000I0J-150000D01*
G01*
X103275000Y-101750000D01*
G75*
G02*
X103125000Y-101900000I-150000J0D01*
G01*
X101475000Y-101900000D01*
G75*
G02*
X101325000Y-101750000I0J150000D01*
G01*
G37*
%TD.AperFunction*%
%TO.P,U1,2*%
%TA.AperFunction,SMDPad,CuDef*%
G36*
G01*
X101325000Y-100480000D02*
X101325000Y-100180000D01*
G75*
G02*
X101475000Y-100030000I150000J0D01*
G01*
X103125000Y-100030000D01*
G75*
G02*
X103275000Y-100180000I0J-150000D01*
G01*
X103275000Y-100480000D01*
G75*
G02*
X103125000Y-100630000I-150000J0D01*
G01*
X101475000Y-100630000D01*
G75*
G02*
X101325000Y-100480000I0J150000D01*
G01*
G37*
%TD.AperFunction*%
%TO.P,U1,3*%
%TO.N,Net-(J3-Pad1)*%
%TA.AperFunction,SMDPad,CuDef*%
G36*
G01*
X101325000Y-99210000D02*
X101325000Y-98910000D01*
G75*
G02*
X101475000Y-98760000I150000J0D01*
G01*
X103125000Y-98760000D01*
G75*
G02*
X103275000Y-98910000I0J-150000D01*
G01*
X103275000Y-99210000D01*
G75*
G02*
X103125000Y-99360000I-150000J0D01*
G01*
X101475000Y-99360000D01*
G75*
G02*
X101325000Y-99210000I0J150000D01*
G01*
G37*
%TD.AperFunction*%
%TO.P,U1,4*%
%TA.AperFunction,SMDPad,CuDef*%
G36*
G01*
X101325000Y-97940000D02*
X101325000Y-97640000D01*
G75*
G02*
X101475000Y-97490000I150000J0D01*
G01*
X103125000Y-97490000D01*
G75*
G02*
X103275000Y-97640000I0J-150000D01*
G01*
X103275000Y-97940000D01*
G75*
G02*
X103125000Y-98090000I-150000J0D01*
G01*
X101475000Y-98090000D01*
G75*
G02*
X101325000Y-97940000I0J150000D01*
G01*
G37*
%TD.AperFunction*%
%TO.P,U1,5*%
%TO.N,Earth*%
%TA.AperFunction,SMDPad,CuDef*%
G36*
G01*
X106275000Y-97940000D02*
X106275000Y-97640000D01*
G75*
G02*
X106425000Y-97490000I150000J0D01*
G01*
X108075000Y-97490000D01*
G75*
G02*
X108225000Y-97640000I0J-150000D01*
G01*
X108225000Y-97940000D01*
G75*
G02*
X108075000Y-98090000I-150000J0D01*
G01*
X106425000Y-98090000D01*
G75*
G02*
X106275000Y-97940000I0J150000D01*
G01*
G37*
%TD.AperFunction*%
%TO.P,U1,6*%
%TO.N,Net-(C1-Pad1)*%
%TA.AperFunction,SMDPad,CuDef*%
G36*
G01*
X106275000Y-99210000D02*
X106275000Y-98910000D01*
G75*
G02*
X106425000Y-98760000I150000J0D01*
G01*
X108075000Y-98760000D01*
G75*
G02*
X108225000Y-98910000I0J-150000D01*
G01*
X108225000Y-99210000D01*
G75*
G02*
X108075000Y-99360000I-150000J0D01*
G01*
X106425000Y-99360000D01*
G75*
G02*
X106275000Y-99210000I0J150000D01*
G01*
G37*
%TD.AperFunction*%
%TO.P,U1,7*%
%TO.N,Net-(U1-Pad7)*%
%TA.AperFunction,SMDPad,CuDef*%
G36*
G01*
X106275000Y-100480000D02*
X106275000Y-100180000D01*
G75*
G02*
X106425000Y-100030000I150000J0D01*
G01*
X108075000Y-100030000D01*
G75*
G02*
X108225000Y-100180000I0J-150000D01*
G01*
X108225000Y-100480000D01*
G75*
G02*
X108075000Y-100630000I-150000J0D01*
G01*
X106425000Y-100630000D01*
G75*
G02*
X106275000Y-100480000I0J150000D01*
G01*
G37*
%TD.AperFunction*%
%TO.P,U1,8*%
%TO.N,+5V*%
%TA.AperFunction,SMDPad,CuDef*%
G36*
G01*
X106275000Y-101750000D02*
X106275000Y-101450000D01*
G75*
G02*
X106425000Y-101300000I150000J0D01*
G01*
X108075000Y-101300000D01*
G75*
G02*
X108225000Y-101450000I0J-150000D01*
G01*
X108225000Y-101750000D01*
G75*
G02*
X108075000Y-101900000I-150000J0D01*
G01*
X106425000Y-101900000D01*
G75*
G02*
X106275000Y-101750000I0J150000D01*
G01*
G37*
%TD.AperFunction*%
%TD*%
D23*
%TO.P,U2,1*%
%TO.N,+5V*%
X130345000Y-79690000D03*
%TO.P,U2,2*%
%TO.N,Earth*%
X130345000Y-78740000D03*
%TO.P,U2,3*%
%TO.N,+5V*%
X130345000Y-77790000D03*
%TO.P,U2,4*%
%TO.N,+3V3*%
X132545000Y-77790000D03*
%TO.P,U2,5*%
%TO.N,Net-(L1-Pad1)*%
X132545000Y-79690000D03*
%TD*%
D24*
%TO.P,U3,39*%
%TO.N,Earth*%
X122980000Y-112715000D03*
D25*
%TO.P,U3,38*%
X133085000Y-120015000D03*
%TO.P,U3,37*%
%TO.N,Net-(Brd1-Pad4)*%
X133085000Y-118745000D03*
%TO.P,U3,36*%
%TO.N,Net-(Brd1-Pad3)*%
X133085000Y-117475000D03*
%TO.P,U3,35*%
%TO.N,Net-(J5-Pad2)*%
X133085000Y-116205000D03*
%TO.P,U3,23*%
%TO.N,Net-(RFID1-Pad7)*%
X133085000Y-100965000D03*
%TO.P,U3,24*%
%TO.N,Net-(RFID1-Pad5)*%
X133085000Y-102235000D03*
%TO.P,U3,25*%
%TO.N,Net-(JP1-Pad1)*%
X133085000Y-103505000D03*
%TO.P,U3,26*%
%TO.N,Net-(R4-Pad2)*%
X133085000Y-104775000D03*
%TO.P,U3,27*%
%TO.N,Net-(U3-Pad27)*%
X133085000Y-106045000D03*
%TO.P,U3,28*%
%TO.N,Net-(U3-Pad28)*%
X133085000Y-107315000D03*
%TO.P,U3,29*%
%TO.N,Net-(R3-Pad2)*%
X133085000Y-108585000D03*
%TO.P,U3,30*%
%TO.N,Net-(SW2-Pad1)*%
X133085000Y-109855000D03*
%TO.P,U3,31*%
%TO.N,Net-(SW1-Pad1)*%
X133085000Y-111125000D03*
%TO.P,U3,32*%
%TO.N,Net-(U3-Pad32)*%
X133085000Y-112395000D03*
%TO.P,U3,33*%
%TO.N,Net-(BZ1-Pad1)*%
X133085000Y-113665000D03*
%TO.P,U3,34*%
%TO.N,Net-(J5-Pad3)*%
X133085000Y-114935000D03*
%TO.P,U3,14*%
%TO.N,Net-(U1-Pad7)*%
X115835000Y-103505000D03*
%TO.P,U3,13*%
%TO.N,Net-(J4-Pad19)*%
X115835000Y-104775000D03*
%TO.P,U3,12*%
%TO.N,Net-(J4-Pad17)*%
X115835000Y-106045000D03*
%TO.P,U3,11*%
%TO.N,Net-(J4-Pad15)*%
X115835000Y-107315000D03*
%TO.P,U3,10*%
%TO.N,Net-(J4-Pad13)*%
X115835000Y-108585000D03*
%TO.P,U3,9*%
%TO.N,Net-(J4-Pad11)*%
X115835000Y-109855000D03*
%TO.P,U3,8*%
%TO.N,Net-(J4-Pad9)*%
X115835000Y-111125000D03*
%TO.P,U3,7*%
%TO.N,Net-(J4-Pad7)*%
X115835000Y-112395000D03*
%TO.P,U3,6*%
%TO.N,Net-(J4-Pad5)*%
X115835000Y-113665000D03*
%TO.P,U3,5*%
%TO.N,Net-(J4-Pad3)*%
X115835000Y-114935000D03*
%TO.P,U3,4*%
%TO.N,Net-(J4-Pad1)*%
X115835000Y-116205000D03*
%TO.P,U3,3*%
%TO.N,Net-(C5-Pad1)*%
X115835000Y-117475000D03*
%TO.P,U3,2*%
%TO.N,+3V3*%
X115835000Y-118745000D03*
%TO.P,U3,16*%
%TO.N,Net-(R1-Pad2)*%
X115835000Y-100965000D03*
%TO.P,U3,15*%
%TO.N,Earth*%
X115835000Y-102235000D03*
%TO.P,U3,1*%
X115835000Y-120015000D03*
%TO.P,U3,17*%
%TO.N,Net-(U3-Pad17)*%
X115835000Y-99695000D03*
%TO.P,U3,18*%
%TO.N,Net-(U3-Pad18)*%
X115835000Y-98425000D03*
%TO.P,U3,19*%
%TO.N,Net-(U3-Pad19)*%
X115835000Y-97155000D03*
%TO.P,U3,22*%
%TO.N,Net-(U3-Pad22)*%
X133085000Y-99695000D03*
%TO.P,U3,21*%
%TO.N,Net-(U3-Pad21)*%
X133085000Y-98425000D03*
%TO.P,U3,20*%
%TO.N,Net-(U3-Pad20)*%
X133085000Y-97155000D03*
%TD*%
D20*
%TO.P,K1,2*%
%TO.N,+5V*%
X116110000Y-79090000D03*
%TO.P,K1,3*%
%TO.N,Net-(J2-Pad1)*%
X103910000Y-79090000D03*
%TO.P,K1,4*%
%TO.N,Net-(J2-Pad3)*%
X103910000Y-91090000D03*
%TO.P,K1,5*%
%TO.N,Net-(D1-Pad2)*%
X116110000Y-91090000D03*
%TO.P,K1,1*%
%TO.N,Net-(J2-Pad2)*%
X118110000Y-85090000D03*
%TD*%
D26*
%TO.P,Brd1,1*%
%TO.N,Earth*%
X153035000Y-74295000D03*
D27*
%TO.P,Brd1,2*%
%TO.N,+3V3*%
X153035000Y-76835000D03*
%TO.P,Brd1,3*%
%TO.N,Net-(Brd1-Pad3)*%
X153035000Y-79375000D03*
%TO.P,Brd1,4*%
%TO.N,Net-(Brd1-Pad4)*%
X153035000Y-81915000D03*
%TD*%
D26*
%TO.P,J4,1*%
%TO.N,Net-(J4-Pad1)*%
X106680000Y-116205000D03*
D27*
%TO.P,J4,2*%
%TO.N,+3V3*%
X106680000Y-118745000D03*
%TO.P,J4,3*%
%TO.N,Net-(J4-Pad3)*%
X104140000Y-116205000D03*
%TO.P,J4,4*%
%TO.N,Earth*%
X104140000Y-118745000D03*
%TO.P,J4,5*%
%TO.N,Net-(J4-Pad5)*%
X101600000Y-116205000D03*
%TO.P,J4,6*%
%TO.N,Earth*%
X101600000Y-118745000D03*
%TO.P,J4,7*%
%TO.N,Net-(J4-Pad7)*%
X99060000Y-116205000D03*
%TO.P,J4,8*%
%TO.N,Earth*%
X99060000Y-118745000D03*
%TO.P,J4,9*%
%TO.N,Net-(J4-Pad9)*%
X96520000Y-116205000D03*
%TO.P,J4,10*%
%TO.N,Earth*%
X96520000Y-118745000D03*
%TO.P,J4,11*%
%TO.N,Net-(J4-Pad11)*%
X93980000Y-116205000D03*
%TO.P,J4,12*%
%TO.N,Earth*%
X93980000Y-118745000D03*
%TO.P,J4,13*%
%TO.N,Net-(J4-Pad13)*%
X91440000Y-116205000D03*
%TO.P,J4,14*%
%TO.N,Earth*%
X91440000Y-118745000D03*
%TO.P,J4,15*%
%TO.N,Net-(J4-Pad15)*%
X88900000Y-116205000D03*
%TO.P,J4,16*%
%TO.N,Earth*%
X88900000Y-118745000D03*
%TO.P,J4,17*%
%TO.N,Net-(J4-Pad17)*%
X86360000Y-116205000D03*
%TO.P,J4,18*%
%TO.N,Earth*%
X86360000Y-118745000D03*
%TO.P,J4,19*%
%TO.N,Net-(J4-Pad19)*%
X83820000Y-116205000D03*
%TO.P,J4,20*%
%TO.N,Earth*%
X83820000Y-118745000D03*
%TD*%
%TO.P,J5,4*%
%TO.N,Earth*%
X139065000Y-111125000D03*
%TO.P,J5,3*%
%TO.N,Net-(J5-Pad3)*%
X139065000Y-113665000D03*
%TO.P,J5,2*%
%TO.N,Net-(J5-Pad2)*%
X139065000Y-116205000D03*
D26*
%TO.P,J5,1*%
%TO.N,+3V3*%
X139065000Y-118745000D03*
%TD*%
%TO.P,JP1,1*%
%TO.N,Net-(JP1-Pad1)*%
X137160000Y-100330000D03*
D27*
%TO.P,JP1,2*%
%TO.N,Earth*%
X137160000Y-102870000D03*
%TD*%
D26*
%TO.P,RFID1,1*%
%TO.N,Net-(Brd1-Pad4)*%
X153035000Y-67945000D03*
D27*
%TO.P,RFID1,2*%
%TO.N,Net-(Brd1-Pad3)*%
X153035000Y-65405000D03*
%TO.P,RFID1,3*%
%TO.N,Net-(RFID1-Pad3)*%
X153035000Y-62865000D03*
%TO.P,RFID1,4*%
%TO.N,Net-(RFID1-Pad4)*%
X153035000Y-60325000D03*
%TO.P,RFID1,5*%
%TO.N,Net-(RFID1-Pad5)*%
X153035000Y-57785000D03*
%TO.P,RFID1,6*%
%TO.N,Earth*%
X153035000Y-55245000D03*
%TO.P,RFID1,7*%
%TO.N,Net-(RFID1-Pad7)*%
X153035000Y-52705000D03*
%TO.P,RFID1,8*%
%TO.N,+3V3*%
X153035000Y-50165000D03*
%TD*%
D28*
%TO.N,Earth*%
X130175000Y-74295000D03*
X121285000Y-74295000D03*
X131445000Y-83185000D03*
X113210010Y-97662970D03*
X113210010Y-101042947D03*
X150495000Y-69850000D03*
X140335000Y-101600000D03*
X140335000Y-107950000D03*
X142875000Y-96520000D03*
X153035000Y-96520000D03*
X131445000Y-75565000D03*
X150675010Y-51435000D03*
X146685000Y-80645000D03*
X142240000Y-80645000D03*
X146685000Y-82550000D03*
X146685000Y-85090000D03*
%TO.N,+3V3*%
X147320012Y-74930000D03*
X140208000Y-74930000D03*
X136271004Y-118745000D03*
X113157000Y-118745004D03*
X148590000Y-67310000D03*
X148590000Y-50165000D03*
%TO.N,+5V*%
X111760000Y-95250000D03*
X111725417Y-102269583D03*
X122555012Y-93980000D03*
X122555000Y-76835000D03*
%TD*%
D29*
%TO.N,Earth*%
X126365001Y-90219999D02*
X125415000Y-91170000D01*
X129609999Y-90219999D02*
X126365001Y-90219999D01*
X130830000Y-91440000D02*
X129609999Y-90219999D01*
X130345000Y-78740000D02*
X131445000Y-78740000D01*
X131445000Y-78740000D02*
X131445000Y-76835000D01*
D30*
X105315001Y-117569999D02*
X107855001Y-117569999D01*
X104140000Y-118745000D02*
X105315001Y-117569999D01*
X107855001Y-117569999D02*
X107950000Y-117475000D01*
D29*
X107855001Y-117569999D02*
X108585000Y-116840000D01*
X139065000Y-111125000D02*
X139065000Y-109220000D01*
X139065000Y-109220000D02*
X140335000Y-107950000D01*
X146685000Y-80645000D02*
X146685000Y-82550000D01*
D31*
X95885000Y-63500000D02*
X111760000Y-63500000D01*
X95805000Y-63420000D02*
X95885000Y-63500000D01*
X90170000Y-63420000D02*
X95805000Y-63420000D01*
D32*
%TO.N,Net-(Brd1-Pad3)*%
X153035000Y-79375000D02*
X150114000Y-79375000D01*
X150114000Y-79375000D02*
X148590000Y-79375000D01*
X147828000Y-79375000D02*
X148590000Y-79375000D01*
X146939000Y-78486000D02*
X147828000Y-79375000D01*
X146939000Y-76835000D02*
X146939000Y-78486000D01*
X148058500Y-76835000D02*
X146939000Y-76835000D01*
X153035000Y-65405000D02*
X148792996Y-65405000D01*
X146169987Y-76065987D02*
X146939000Y-76835000D01*
X148792996Y-65405000D02*
X146169987Y-68028009D01*
X146169987Y-68028009D02*
X146169987Y-76065987D01*
X134235000Y-118531321D02*
X134235000Y-117475000D01*
X136988679Y-121285000D02*
X134235000Y-118531321D01*
X145415000Y-121285000D02*
X136988679Y-121285000D01*
X146644989Y-98624466D02*
X146644989Y-100465533D01*
X151730011Y-85055011D02*
X151730011Y-94649990D01*
X151730011Y-94649990D02*
X149864256Y-96515744D01*
X148590000Y-81915000D02*
X151730011Y-85055011D01*
X146685000Y-105084455D02*
X146644989Y-105124466D01*
X146644989Y-105124466D02*
X146644989Y-120055012D01*
X149864256Y-96515744D02*
X148753711Y-96515744D01*
X148590000Y-79375000D02*
X148590000Y-81915000D01*
X146644989Y-100465533D02*
X146685000Y-100505545D01*
X134235000Y-117475000D02*
X133085000Y-117475000D01*
X146685000Y-100505545D02*
X146685000Y-105084455D01*
X148753711Y-96515744D02*
X146644989Y-98624466D01*
X146644989Y-120055012D02*
X145415000Y-121285000D01*
D33*
%TO.N,+3V3*%
X136805000Y-77790000D02*
X137160000Y-78145000D01*
X132545000Y-77790000D02*
X136805000Y-77790000D01*
X137160000Y-78145000D02*
X139740000Y-78145000D01*
X149883500Y-76835000D02*
X153035000Y-76835000D01*
X149860000Y-76811500D02*
X149883500Y-76835000D01*
X149860000Y-74850000D02*
X149860000Y-76811500D01*
X149860000Y-74850000D02*
X147400012Y-74850000D01*
X147320012Y-74930000D02*
X147400012Y-74850000D01*
X137033000Y-78018000D02*
X137160000Y-78145000D01*
X137033000Y-75197500D02*
X137033000Y-78018000D01*
X140208000Y-75990660D02*
X140208000Y-74930000D01*
X139740000Y-78145000D02*
X140208000Y-77677000D01*
X140208000Y-77677000D02*
X140208000Y-75990660D01*
X118745000Y-118618000D02*
X118872000Y-118745000D01*
X118745000Y-117348000D02*
X118745000Y-118618000D01*
D34*
X115835000Y-118745000D02*
X118872000Y-118745000D01*
D33*
X139065000Y-118745000D02*
X136271004Y-118745000D01*
D34*
X113157004Y-118745000D02*
X113157000Y-118745004D01*
X115835000Y-118745000D02*
X113157004Y-118745000D01*
D35*
X109855000Y-118190000D02*
X109855000Y-118110000D01*
D33*
X111887004Y-120015000D02*
X113157000Y-118745004D01*
X110805000Y-120015000D02*
X111887004Y-120015000D01*
D34*
X110805000Y-118980000D02*
X109855000Y-118030000D01*
D33*
X110805000Y-120015000D02*
X110805000Y-118980000D01*
D34*
X108665000Y-118030000D02*
X109855000Y-118030000D01*
X107950000Y-118745000D02*
X106680000Y-118745000D01*
X108665000Y-118030000D02*
X107950000Y-118745000D01*
D33*
X118872000Y-118745000D02*
X125095000Y-118745000D01*
X125095000Y-118745000D02*
X128905000Y-114935000D01*
X128905000Y-114935000D02*
X128905000Y-96520000D01*
X128905000Y-96520000D02*
X133846990Y-91578010D01*
X133846990Y-91578010D02*
X133846990Y-88403010D01*
X140067500Y-78472500D02*
X139740000Y-78145000D01*
X133846990Y-88403010D02*
X135890000Y-86360000D01*
X140067500Y-84713225D02*
X140067500Y-78472500D01*
X135890000Y-86360000D02*
X138420725Y-86360000D01*
X138420725Y-86360000D02*
X140067500Y-84713225D01*
X147320012Y-74930000D02*
X147320012Y-68579988D01*
X147320012Y-68579988D02*
X148590000Y-67310000D01*
X153035000Y-50165000D02*
X152185001Y-49315001D01*
X152185001Y-49315001D02*
X149439999Y-49315001D01*
X149439999Y-49315001D02*
X148590000Y-50165000D01*
D32*
%TO.N,Net-(Brd1-Pad4)*%
X153035000Y-81915000D02*
X154813000Y-80137000D01*
X154813000Y-69723000D02*
X153035000Y-67945000D01*
X154813000Y-75565000D02*
X154813000Y-69723000D01*
X154813000Y-80137000D02*
X154813000Y-75565000D01*
X151638000Y-75565000D02*
X154813000Y-75565000D01*
X151130000Y-74295000D02*
X151130000Y-75057000D01*
X151130000Y-75057000D02*
X151638000Y-75565000D01*
X149860000Y-73025000D02*
X151130000Y-74295000D01*
X153035000Y-83117081D02*
X153035000Y-81915000D01*
X147244999Y-105372999D02*
X147285011Y-105332987D01*
X149002243Y-97115755D02*
X150112788Y-97115755D01*
X147244999Y-100217001D02*
X147244999Y-98872999D01*
X133600136Y-118745000D02*
X136740147Y-121885011D01*
X145663532Y-121885011D02*
X147244999Y-120303544D01*
X133085000Y-118745000D02*
X133600136Y-118745000D01*
X147285011Y-100257013D02*
X147244999Y-100217001D01*
X147244999Y-98872999D02*
X149002243Y-97115755D01*
X150112788Y-97115755D02*
X153035000Y-94193543D01*
X136740147Y-121885011D02*
X145663532Y-121885011D01*
X153035000Y-94193543D02*
X153035000Y-83117081D01*
X147285011Y-105332987D02*
X147285011Y-100257013D01*
X147244999Y-120303544D02*
X147244999Y-105372999D01*
%TO.N,Net-(BZ1-Pad1)*%
X140989999Y-112414999D02*
X142240000Y-113665000D01*
X148376458Y-95885000D02*
X149646458Y-95885000D01*
X144650000Y-83820000D02*
X138430000Y-90040000D01*
X142875000Y-120650000D02*
X145201457Y-120650000D01*
X135917499Y-113665000D02*
X137167500Y-112414999D01*
X145201457Y-120650000D02*
X146044978Y-119806479D01*
X151130000Y-94401458D02*
X151130000Y-85303542D01*
X146044978Y-119806479D02*
X146044978Y-98216480D01*
X151130000Y-85303542D02*
X149646458Y-83820000D01*
X146044978Y-98216480D02*
X148376458Y-95885000D01*
X149646458Y-83820000D02*
X144650000Y-83820000D01*
X142240000Y-113665000D02*
X142240000Y-120015000D01*
X149646458Y-95885000D02*
X151130000Y-94401458D01*
X142240000Y-120015000D02*
X142875000Y-120650000D01*
X137167500Y-112414999D02*
X140989999Y-112414999D01*
X138430000Y-90040000D02*
X138430000Y-91440000D01*
X133085000Y-113665000D02*
X135917499Y-113665000D01*
D35*
%TO.N,Net-(C1-Pad1)*%
X110485000Y-99060000D02*
X110490000Y-99055000D01*
X107250000Y-99060000D02*
X110485000Y-99060000D01*
D33*
%TO.N,+5V*%
X141127500Y-62440000D02*
X138430000Y-65137500D01*
X142640000Y-62440000D02*
X141127500Y-62440000D01*
X136162500Y-65137500D02*
X135255000Y-66045000D01*
X138430000Y-65137500D02*
X136162500Y-65137500D01*
X109860000Y-104140000D02*
X109860000Y-101605000D01*
D36*
X109855000Y-101600000D02*
X109860000Y-101605000D01*
X107250000Y-101600000D02*
X109855000Y-101600000D01*
D33*
X111125000Y-101600000D02*
X111125000Y-101600000D01*
D36*
X128712000Y-79690000D02*
X128651000Y-79629000D01*
X130345000Y-79690000D02*
X128712000Y-79690000D01*
X130345000Y-77790000D02*
X128712000Y-77790000D01*
X128712000Y-77790000D02*
X128651000Y-77851000D01*
D33*
X128651000Y-77851000D02*
X128651000Y-79629000D01*
X111055834Y-101600000D02*
X111725417Y-102269583D01*
X109855000Y-101600000D02*
X111055834Y-101600000D01*
X111760000Y-95250000D02*
X121285012Y-95250000D01*
X121285012Y-95250000D02*
X122555012Y-93980000D01*
X120300000Y-79090000D02*
X122555000Y-76835000D01*
X123190000Y-76200000D02*
X122555000Y-76835000D01*
X126365000Y-76200000D02*
X123190000Y-76200000D01*
X116110000Y-79090000D02*
X120300000Y-79090000D01*
X128016000Y-77851000D02*
X128651000Y-77851000D01*
X126365000Y-76200000D02*
X128016000Y-77851000D01*
X134530000Y-66045000D02*
X135255000Y-66045000D01*
X130175000Y-70400000D02*
X134530000Y-66045000D01*
X130175000Y-70485000D02*
X130175000Y-70400000D01*
X126365000Y-74295000D02*
X130175000Y-70485000D01*
X126365000Y-76200000D02*
X126365000Y-74295000D01*
D32*
%TO.N,Net-(C5-Pad1)*%
X115835000Y-117475000D02*
X113980000Y-117475000D01*
X110490000Y-116205000D02*
X110805000Y-115890000D01*
X110490000Y-116205000D02*
X111600000Y-115095000D01*
X111600000Y-115095000D02*
X110805000Y-114300000D01*
X113980000Y-117475000D02*
X111600000Y-115095000D01*
%TO.N,Net-(D1-Pad2)*%
X126365000Y-86360000D02*
X126365000Y-89170000D01*
X125215001Y-90319999D02*
X126365000Y-89170000D01*
X116880001Y-90319999D02*
X125215001Y-90319999D01*
X116110000Y-91090000D02*
X116880001Y-90319999D01*
%TO.N,Net-(D2-Pad1)*%
X148844000Y-92178500D02*
X148590000Y-92432500D01*
X148844000Y-89535000D02*
X148844000Y-92178500D01*
%TO.N,Net-(D2-Pad3)*%
X143764000Y-92178500D02*
X143510000Y-92432500D01*
X143764000Y-89535000D02*
X143764000Y-92178500D01*
D31*
%TO.N,Net-(J1-Pad1)*%
X90170000Y-58420000D02*
X104140000Y-58420000D01*
%TO.N,Net-(J1-Pad3)*%
X91125000Y-69215000D02*
X104095000Y-69215000D01*
X90330000Y-68420000D02*
X91125000Y-69215000D01*
X104095000Y-69215000D02*
X104140000Y-69170000D01*
X90170000Y-68420000D02*
X90330000Y-68420000D01*
%TO.N,Net-(J2-Pad3)*%
X90170000Y-90010000D02*
X102134990Y-90010000D01*
X102929990Y-90805000D02*
X102929990Y-91090000D01*
X102134990Y-90010000D02*
X102929990Y-90805000D01*
%TO.N,Net-(J2-Pad2)*%
X118030000Y-85010000D02*
X118110000Y-85090000D01*
X90170000Y-85010000D02*
X118030000Y-85010000D01*
%TO.N,Net-(J2-Pad1)*%
X102009990Y-80010000D02*
X102929990Y-79090000D01*
X90170000Y-80010000D02*
X102009990Y-80010000D01*
D36*
%TO.N,Net-(J3-Pad1)*%
X102300000Y-99060000D02*
X102300000Y-97790000D01*
D31*
X101434990Y-97790000D02*
X101754990Y-98110000D01*
X90170000Y-97790000D02*
X101434990Y-97790000D01*
%TO.N,Net-(J3-Pad2)*%
X90170000Y-102790000D02*
X91520000Y-102790000D01*
X91520000Y-102790000D02*
X93199990Y-101110010D01*
X93199990Y-101110010D02*
X100687988Y-101110010D01*
X100687988Y-101110010D02*
X101754990Y-101110010D01*
D32*
%TO.N,Net-(J4-Pad1)*%
X115127500Y-116205000D02*
X115835000Y-116205000D01*
X111317500Y-112395000D02*
X115127500Y-116205000D01*
X107950000Y-112395000D02*
X111317500Y-112395000D01*
X106680000Y-116205000D02*
X106680000Y-113665000D01*
X106680000Y-113665000D02*
X107950000Y-112395000D01*
%TO.N,Net-(J4-Pad3)*%
X111566032Y-111794989D02*
X114706042Y-114935000D01*
X104140000Y-116205000D02*
X104140000Y-115356457D01*
X104140000Y-115356457D02*
X107701468Y-111794989D01*
X107701468Y-111794989D02*
X111566032Y-111794989D01*
X114706042Y-114935000D02*
X115835000Y-114935000D01*
%TO.N,Net-(J4-Pad5)*%
X107372022Y-111194978D02*
X112214978Y-111194978D01*
X101600000Y-116205000D02*
X102362000Y-116205000D01*
X114685000Y-113665000D02*
X115835000Y-113665000D01*
X102362000Y-116205000D02*
X107372022Y-111194978D01*
X112214978Y-111194978D02*
X114685000Y-113665000D01*
%TO.N,Net-(J4-Pad7)*%
X102362000Y-114681000D02*
X106448033Y-110594967D01*
X106448033Y-110594967D02*
X112884967Y-110594967D01*
X114685000Y-112395000D02*
X115835000Y-112395000D01*
X99060000Y-116205000D02*
X100584000Y-114681000D01*
X112884967Y-110594967D02*
X114685000Y-112395000D01*
X100584000Y-114681000D02*
X102362000Y-114681000D01*
%TO.N,Net-(J4-Pad9)*%
X96520000Y-116205000D02*
X98644011Y-114080989D01*
X113554956Y-109994956D02*
X114685000Y-111125000D01*
X102113469Y-114080989D02*
X106199502Y-109994956D01*
X114685000Y-111125000D02*
X115835000Y-111125000D01*
X106199502Y-109994956D02*
X113554956Y-109994956D01*
X98644011Y-114080989D02*
X102113469Y-114080989D01*
%TO.N,Net-(J4-Pad11)*%
X101864935Y-113480980D02*
X105950970Y-109394945D01*
X96704020Y-113480980D02*
X101864935Y-113480980D01*
X105950970Y-109394945D02*
X114224945Y-109394945D01*
X114224945Y-109394945D02*
X114685000Y-109855000D01*
X93980000Y-116205000D02*
X96704020Y-113480980D01*
X114685000Y-109855000D02*
X115835000Y-109855000D01*
%TO.N,Net-(J4-Pad13)*%
X101616404Y-112880970D02*
X105912374Y-108585000D01*
X94764030Y-112880970D02*
X101616404Y-112880970D01*
X105912374Y-108585000D02*
X115835000Y-108585000D01*
X91440000Y-116205000D02*
X94764030Y-112880970D01*
%TO.N,Net-(J4-Pad15)*%
X88900000Y-116205000D02*
X92824040Y-112280960D01*
X106333832Y-107315000D02*
X115835000Y-107315000D01*
X101367872Y-112280960D02*
X106333832Y-107315000D01*
X92824040Y-112280960D02*
X101367872Y-112280960D01*
%TO.N,Net-(J4-Pad17)*%
X86360000Y-116205000D02*
X90170000Y-112395000D01*
X101119340Y-111680950D02*
X106085300Y-106714990D01*
X92575508Y-111680950D02*
X101119340Y-111680950D01*
X91861458Y-112395000D02*
X92575508Y-111680950D01*
X90170000Y-112395000D02*
X91861458Y-112395000D01*
X106085300Y-106714990D02*
X114265010Y-106714990D01*
X114935000Y-106045000D02*
X115835000Y-106045000D01*
X114265010Y-106714990D02*
X114935000Y-106045000D01*
%TO.N,Net-(J4-Pad19)*%
X83820000Y-116205000D02*
X83820000Y-114173000D01*
X83820000Y-114173000D02*
X86912060Y-111080940D01*
X86912060Y-111080940D02*
X100870808Y-111080940D01*
X100870808Y-111080940D02*
X106033748Y-105918000D01*
X115184998Y-104775000D02*
X115835000Y-104775000D01*
X114041998Y-105918000D02*
X115184998Y-104775000D01*
X106033748Y-105918000D02*
X114041998Y-105918000D01*
%TO.N,Net-(J5-Pad2)*%
X133085000Y-116205000D02*
X139065000Y-116205000D01*
%TO.N,Net-(J5-Pad3)*%
X137795000Y-114935000D02*
X139065000Y-113665000D01*
X133085000Y-114935000D02*
X137795000Y-114935000D01*
%TO.N,Net-(JP1-Pad1)*%
X136910002Y-100330000D02*
X137160000Y-100330000D01*
X133735002Y-103505000D02*
X136910002Y-100330000D01*
X133085000Y-103505000D02*
X133735002Y-103505000D01*
D33*
%TO.N,Net-(L1-Pad1)*%
X135977000Y-83145000D02*
X137160000Y-83145000D01*
X132545000Y-79713000D02*
X135977000Y-83145000D01*
X132545000Y-79690000D02*
X132545000Y-79713000D01*
D32*
%TO.N,Net-(Q1-Pad1)*%
X127315000Y-93307500D02*
X127277500Y-93345000D01*
X127315000Y-91170000D02*
X127315000Y-93307500D01*
%TO.N,Net-(R1-Pad2)*%
X116985000Y-100965000D02*
X117239000Y-101219000D01*
X115835000Y-100965000D02*
X116985000Y-100965000D01*
X117239000Y-101219000D02*
X121031000Y-101219000D01*
X125452500Y-96797500D02*
X125452500Y-93345000D01*
X121031000Y-101219000D02*
X125452500Y-96797500D01*
%TO.N,Net-(R3-Pad2)*%
X147360498Y-94257500D02*
X148590000Y-94257500D01*
X135564413Y-108585000D02*
X142744999Y-101404414D01*
X133085000Y-108585000D02*
X135564413Y-108585000D01*
X142744999Y-101404414D02*
X142744999Y-98872999D01*
X142744999Y-98872999D02*
X147360498Y-94257500D01*
%TO.N,Net-(R4-Pad2)*%
X139700000Y-100210002D02*
X139700000Y-97790000D01*
X136579998Y-101580001D02*
X138330001Y-101580001D01*
X143232500Y-94257500D02*
X143510000Y-94257500D01*
X139700000Y-97790000D02*
X143232500Y-94257500D01*
X138330001Y-101580001D02*
X139700000Y-100210002D01*
X134493000Y-103686998D02*
X136579998Y-101600000D01*
X134493000Y-104275001D02*
X134493000Y-103686998D01*
X136579998Y-101600000D02*
X136579998Y-101580001D01*
X134247001Y-104521000D02*
X134493000Y-104275001D01*
X134239000Y-104521000D02*
X134247001Y-104521000D01*
X133985000Y-104775000D02*
X134239000Y-104521000D01*
X133085000Y-104775000D02*
X133985000Y-104775000D01*
%TO.N,Net-(RFID1-Pad5)*%
X135909999Y-99308532D02*
X136490011Y-98728520D01*
X145534999Y-65285001D02*
X152185001Y-58634999D01*
X145534999Y-81539271D02*
X145534999Y-65285001D01*
X136490011Y-90584259D02*
X145534999Y-81539271D01*
X133735002Y-102235000D02*
X135909999Y-100060003D01*
X133085000Y-102235000D02*
X133735002Y-102235000D01*
X135909999Y-100060003D02*
X135909999Y-99308532D01*
X152185001Y-58634999D02*
X153035000Y-57785000D01*
X136490011Y-98728520D02*
X136490011Y-90584259D01*
%TO.N,Net-(RFID1-Pad7)*%
X144934988Y-60805012D02*
X152185001Y-53554999D01*
X133735002Y-100965000D02*
X135309988Y-99390014D01*
X152185001Y-53554999D02*
X153035000Y-52705000D01*
X144934988Y-81290739D02*
X144934988Y-60805012D01*
X135309988Y-99390014D02*
X135309988Y-90915739D01*
X135309988Y-90915739D02*
X144934988Y-81290739D01*
X133085000Y-100965000D02*
X133735002Y-100965000D01*
D35*
%TO.N,Net-(U1-Pad7)*%
X112416924Y-99789999D02*
X111876923Y-100330000D01*
X114229021Y-99789999D02*
X112416924Y-99789999D01*
X111876923Y-100330000D02*
X107250000Y-100330000D01*
X114659999Y-100220977D02*
X114229021Y-99789999D01*
X114635000Y-103505000D02*
X114635000Y-101734022D01*
X115835000Y-103505000D02*
X114635000Y-103505000D01*
X114659999Y-101709023D02*
X114659999Y-100220977D01*
X114635000Y-101734022D02*
X114659999Y-101709023D01*
D32*
%TO.N,Net-(SW1-Pad1)*%
X144145000Y-112245000D02*
X144145000Y-118745000D01*
X144145000Y-109145000D02*
X144145000Y-112245000D01*
X134721498Y-111125000D02*
X139801498Y-106045000D01*
X133085000Y-111125000D02*
X134721498Y-111125000D01*
X141045000Y-106045000D02*
X144145000Y-109145000D01*
X139801498Y-106045000D02*
X141045000Y-106045000D01*
%TO.N,Net-(SW2-Pad1)*%
X144145000Y-106045000D02*
X144145000Y-99545000D01*
X144934256Y-99545000D02*
X144145000Y-99545000D01*
X135142956Y-109855000D02*
X139952955Y-105045001D01*
X143145001Y-105045001D02*
X144145000Y-106045000D01*
X139952955Y-105045001D02*
X143145001Y-105045001D01*
X133085000Y-109855000D02*
X135142956Y-109855000D01*
%TD*%
D37*
%TO.N,Earth*%
X156185001Y-123105995D02*
X156184178Y-123097062D01*
X155969452Y-122372792D01*
X155617555Y-121704330D01*
X155590548Y-121663912D01*
X155100881Y-121303724D01*
X152579605Y-123825000D01*
X155100881Y-126346276D01*
X155590548Y-125986088D01*
X155950849Y-125322118D01*
X156174694Y-124600615D01*
X156185001Y-124502327D01*
X156185001Y-126975000D01*
X154590914Y-126975000D01*
X154921276Y-126525881D01*
X152400000Y-124004605D01*
X149878724Y-126525881D01*
X150209086Y-126975000D01*
X149352000Y-126975000D01*
X149352000Y-126090943D01*
X149699119Y-126346276D01*
X152220395Y-123825000D01*
X149699119Y-121303724D01*
X149209452Y-121663912D01*
X149139403Y-121793000D01*
X146936410Y-121793000D01*
X147605291Y-121124119D01*
X149878724Y-121124119D01*
X152400000Y-123645395D01*
X154921276Y-121124119D01*
X154561088Y-120634452D01*
X153897118Y-120274151D01*
X153175615Y-120050306D01*
X152424305Y-119971520D01*
X151672062Y-120040822D01*
X150947792Y-120255548D01*
X150279330Y-120607445D01*
X150238912Y-120634452D01*
X149878724Y-121124119D01*
X147605291Y-121124119D01*
X147806427Y-120922984D01*
X147838290Y-120896835D01*
X147942635Y-120769690D01*
X148020171Y-120624631D01*
X148067917Y-120467233D01*
X148079999Y-120344563D01*
X148079999Y-120344562D01*
X148084039Y-120303545D01*
X148082486Y-120287779D01*
X148386108Y-120367384D01*
X148707595Y-120386718D01*
X149026675Y-120342961D01*
X149331088Y-120237795D01*
X149505044Y-120144814D01*
X149600808Y-119880413D01*
X148645000Y-118924605D01*
X148630858Y-118938748D01*
X148451253Y-118759143D01*
X148465395Y-118745000D01*
X148824605Y-118745000D01*
X149780413Y-119700808D01*
X150044814Y-119605044D01*
X150185704Y-119315429D01*
X150267384Y-119003892D01*
X150286718Y-118682405D01*
X150242961Y-118363325D01*
X150137795Y-118058912D01*
X150044814Y-117884956D01*
X149780413Y-117789192D01*
X148824605Y-118745000D01*
X148465395Y-118745000D01*
X148451253Y-118730858D01*
X148630858Y-118551253D01*
X148645000Y-118565395D01*
X149600808Y-117609587D01*
X149505044Y-117345186D01*
X149215429Y-117204296D01*
X148903892Y-117122616D01*
X148582405Y-117103282D01*
X148263325Y-117147039D01*
X148079999Y-117210373D01*
X148079999Y-113787127D01*
X148386108Y-113867384D01*
X148707595Y-113886718D01*
X149026675Y-113842961D01*
X149331088Y-113737795D01*
X149505044Y-113644814D01*
X149600808Y-113380413D01*
X148645000Y-112424605D01*
X148630858Y-112438748D01*
X148451253Y-112259143D01*
X148465395Y-112245000D01*
X148824605Y-112245000D01*
X149780413Y-113200808D01*
X150044814Y-113105044D01*
X150185704Y-112815429D01*
X150267384Y-112503892D01*
X150286718Y-112182405D01*
X150242961Y-111863325D01*
X150137795Y-111558912D01*
X150044814Y-111384956D01*
X149780413Y-111289192D01*
X148824605Y-112245000D01*
X148465395Y-112245000D01*
X148451253Y-112230858D01*
X148630858Y-112051253D01*
X148645000Y-112065395D01*
X149600808Y-111109587D01*
X149505044Y-110845186D01*
X149215429Y-110704296D01*
X148903892Y-110622616D01*
X148582405Y-110603282D01*
X148263325Y-110647039D01*
X148079999Y-110710373D01*
X148079999Y-107587127D01*
X148386108Y-107667384D01*
X148707595Y-107686718D01*
X149026675Y-107642961D01*
X149331088Y-107537795D01*
X149505044Y-107444814D01*
X149600808Y-107180413D01*
X148645000Y-106224605D01*
X148630858Y-106238748D01*
X148451253Y-106059143D01*
X148465395Y-106045000D01*
X148824605Y-106045000D01*
X149780413Y-107000808D01*
X150044814Y-106905044D01*
X150185704Y-106615429D01*
X150267384Y-106303892D01*
X150286718Y-105982405D01*
X150242961Y-105663325D01*
X150137795Y-105358912D01*
X150044814Y-105184956D01*
X149780413Y-105089192D01*
X148824605Y-106045000D01*
X148465395Y-106045000D01*
X148451253Y-106030858D01*
X148630858Y-105851253D01*
X148645000Y-105865395D01*
X149600808Y-104909587D01*
X149505044Y-104645186D01*
X149215429Y-104504296D01*
X148903892Y-104422616D01*
X148582405Y-104403282D01*
X148263325Y-104447039D01*
X148120011Y-104496550D01*
X148120011Y-101097618D01*
X148386108Y-101167384D01*
X148707595Y-101186718D01*
X149026675Y-101142961D01*
X149331088Y-101037795D01*
X149505044Y-100944814D01*
X149600808Y-100680413D01*
X148645000Y-99724605D01*
X148630858Y-99738748D01*
X148451253Y-99559143D01*
X148465395Y-99545000D01*
X148824605Y-99545000D01*
X149780413Y-100500808D01*
X150044814Y-100405044D01*
X150185704Y-100115429D01*
X150267384Y-99803892D01*
X150286718Y-99482405D01*
X150242961Y-99163325D01*
X150137795Y-98858912D01*
X150044814Y-98684956D01*
X149780413Y-98589192D01*
X148824605Y-99545000D01*
X148465395Y-99545000D01*
X148451253Y-99530858D01*
X148630858Y-99351253D01*
X148645000Y-99365395D01*
X149600808Y-98409587D01*
X149505044Y-98145186D01*
X149268670Y-98030196D01*
X149348111Y-97950755D01*
X150071770Y-97950755D01*
X150112788Y-97954795D01*
X150153806Y-97950755D01*
X150153807Y-97950755D01*
X150276477Y-97938673D01*
X150433875Y-97890927D01*
X150578934Y-97813391D01*
X150706079Y-97709046D01*
X150732234Y-97677176D01*
X153596433Y-94812979D01*
X153628291Y-94786834D01*
X153664147Y-94743144D01*
X153732636Y-94659689D01*
X153810172Y-94514630D01*
X153857918Y-94357232D01*
X153874040Y-94193543D01*
X153870000Y-94152525D01*
X153870000Y-83143065D01*
X153981632Y-83068475D01*
X154188475Y-82861632D01*
X154350990Y-82618411D01*
X154462932Y-82348158D01*
X154520000Y-82061260D01*
X154520000Y-81768740D01*
X154493807Y-81637061D01*
X155374433Y-80756436D01*
X155406291Y-80730291D01*
X155433352Y-80697318D01*
X155510636Y-80603146D01*
X155588172Y-80458087D01*
X155635918Y-80300688D01*
X155652040Y-80137000D01*
X155648000Y-80095982D01*
X155648000Y-75606018D01*
X155652040Y-75565000D01*
X155648000Y-75523981D01*
X155648000Y-69764018D01*
X155652040Y-69723000D01*
X155635918Y-69559312D01*
X155621892Y-69513072D01*
X155588172Y-69401913D01*
X155510636Y-69256854D01*
X155488182Y-69229494D01*
X155432439Y-69161570D01*
X155432437Y-69161568D01*
X155406291Y-69129709D01*
X155374432Y-69103563D01*
X154523072Y-68252204D01*
X154523072Y-67095000D01*
X154510812Y-66970518D01*
X154474502Y-66850820D01*
X154415537Y-66740506D01*
X154336185Y-66643815D01*
X154239494Y-66564463D01*
X154129180Y-66505498D01*
X154056620Y-66483487D01*
X154188475Y-66351632D01*
X154350990Y-66108411D01*
X154462932Y-65838158D01*
X154520000Y-65551260D01*
X154520000Y-65258740D01*
X154462932Y-64971842D01*
X154350990Y-64701589D01*
X154188475Y-64458368D01*
X153981632Y-64251525D01*
X153807240Y-64135000D01*
X153981632Y-64018475D01*
X154188475Y-63811632D01*
X154350990Y-63568411D01*
X154462932Y-63298158D01*
X154520000Y-63011260D01*
X154520000Y-62718740D01*
X154462932Y-62431842D01*
X154350990Y-62161589D01*
X154188475Y-61918368D01*
X153981632Y-61711525D01*
X153807240Y-61595000D01*
X153981632Y-61478475D01*
X154188475Y-61271632D01*
X154350990Y-61028411D01*
X154462932Y-60758158D01*
X154520000Y-60471260D01*
X154520000Y-60178740D01*
X154462932Y-59891842D01*
X154350990Y-59621589D01*
X154188475Y-59378368D01*
X153981632Y-59171525D01*
X153807240Y-59055000D01*
X153981632Y-58938475D01*
X154188475Y-58731632D01*
X154350990Y-58488411D01*
X154462932Y-58218158D01*
X154520000Y-57931260D01*
X154520000Y-57638740D01*
X154462932Y-57351842D01*
X154350990Y-57081589D01*
X154188475Y-56838368D01*
X153981632Y-56631525D01*
X153799466Y-56509805D01*
X153916355Y-56440178D01*
X154132588Y-56245269D01*
X154306641Y-56011920D01*
X154431825Y-55749099D01*
X154476476Y-55601890D01*
X154355155Y-55372000D01*
X153162000Y-55372000D01*
X153162000Y-55392000D01*
X152908000Y-55392000D01*
X152908000Y-55372000D01*
X152888000Y-55372000D01*
X152888000Y-55118000D01*
X152908000Y-55118000D01*
X152908000Y-55098000D01*
X153162000Y-55098000D01*
X153162000Y-55118000D01*
X154355155Y-55118000D01*
X154476476Y-54888110D01*
X154431825Y-54740901D01*
X154306641Y-54478080D01*
X154132588Y-54244731D01*
X153916355Y-54049822D01*
X153799466Y-53980195D01*
X153981632Y-53858475D01*
X154188475Y-53651632D01*
X154350990Y-53408411D01*
X154462932Y-53138158D01*
X154520000Y-52851260D01*
X154520000Y-52558740D01*
X154462932Y-52271842D01*
X154350990Y-52001589D01*
X154188475Y-51758368D01*
X153981632Y-51551525D01*
X153807240Y-51435000D01*
X153981632Y-51318475D01*
X154188475Y-51111632D01*
X154350990Y-50868411D01*
X154462932Y-50598158D01*
X154520000Y-50311260D01*
X154520000Y-50018740D01*
X154462932Y-49731842D01*
X154350990Y-49461589D01*
X154188475Y-49218368D01*
X153981632Y-49011525D01*
X153738411Y-48849010D01*
X153468158Y-48737068D01*
X153181260Y-48680000D01*
X153155131Y-48680000D01*
X153026996Y-48551865D01*
X152991450Y-48508552D01*
X152818624Y-48366717D01*
X152621448Y-48261325D01*
X152407500Y-48196424D01*
X152240753Y-48180001D01*
X152240752Y-48180001D01*
X152185001Y-48174510D01*
X152129250Y-48180001D01*
X149495750Y-48180001D01*
X149439998Y-48174510D01*
X149217499Y-48196424D01*
X149167704Y-48211530D01*
X149003552Y-48261325D01*
X148806376Y-48366717D01*
X148633550Y-48508552D01*
X148598007Y-48551861D01*
X148349080Y-48800788D01*
X148186011Y-48833225D01*
X147933957Y-48937629D01*
X147707114Y-49089201D01*
X147514201Y-49282114D01*
X147362629Y-49508957D01*
X147258225Y-49761011D01*
X147205000Y-50028589D01*
X147205000Y-50301411D01*
X147258225Y-50568989D01*
X147362629Y-50821043D01*
X147514201Y-51047886D01*
X147707114Y-51240799D01*
X147933957Y-51392371D01*
X148186011Y-51496775D01*
X148453589Y-51550000D01*
X148726411Y-51550000D01*
X148993989Y-51496775D01*
X149246043Y-51392371D01*
X149472886Y-51240799D01*
X149665799Y-51047886D01*
X149817371Y-50821043D01*
X149921775Y-50568989D01*
X149945443Y-50450001D01*
X151577598Y-50450001D01*
X151607068Y-50598158D01*
X151719010Y-50868411D01*
X151881525Y-51111632D01*
X152088368Y-51318475D01*
X152262760Y-51435000D01*
X152088368Y-51551525D01*
X151881525Y-51758368D01*
X151719010Y-52001589D01*
X151607068Y-52271842D01*
X151550000Y-52558740D01*
X151550000Y-52851260D01*
X151576193Y-52982938D01*
X144479310Y-60079823D01*
X144298363Y-59809017D01*
X144000983Y-59511637D01*
X143651302Y-59277988D01*
X143262756Y-59117047D01*
X142850279Y-59035000D01*
X142429721Y-59035000D01*
X142017244Y-59117047D01*
X141628698Y-59277988D01*
X141279017Y-59511637D01*
X140981637Y-59809017D01*
X140747988Y-60158698D01*
X140587047Y-60547244D01*
X140505000Y-60959721D01*
X140505000Y-61380279D01*
X140523967Y-61475633D01*
X140493877Y-61491716D01*
X140321051Y-61633551D01*
X140285509Y-61676859D01*
X138125441Y-63836928D01*
X137504999Y-63836928D01*
X137331745Y-63853992D01*
X137165149Y-63904528D01*
X137011613Y-63986595D01*
X136992233Y-64002500D01*
X136218252Y-64002500D01*
X136162500Y-63997009D01*
X136106748Y-64002500D01*
X135940001Y-64018923D01*
X135726053Y-64083824D01*
X135528877Y-64189216D01*
X135356051Y-64331051D01*
X135320511Y-64374357D01*
X134787941Y-64906928D01*
X134780000Y-64906928D01*
X134748809Y-64910000D01*
X134585751Y-64910000D01*
X134529999Y-64904509D01*
X134423461Y-64915002D01*
X134307501Y-64926423D01*
X134093553Y-64991324D01*
X133896377Y-65096716D01*
X133723551Y-65238551D01*
X133688011Y-65281857D01*
X129411864Y-69558005D01*
X129368551Y-69593551D01*
X129226716Y-69766377D01*
X129155783Y-69899084D01*
X125601860Y-73453009D01*
X125558552Y-73488551D01*
X125416717Y-73661377D01*
X125394668Y-73702629D01*
X125311324Y-73858554D01*
X125246423Y-74072502D01*
X125224509Y-74295000D01*
X125230001Y-74350761D01*
X125230001Y-74465375D01*
X125140518Y-74474188D01*
X125020820Y-74510498D01*
X124910506Y-74569463D01*
X124813815Y-74648815D01*
X124734463Y-74745506D01*
X124675498Y-74855820D01*
X124639188Y-74975518D01*
X124630375Y-75065000D01*
X123245752Y-75065000D01*
X123190000Y-75059509D01*
X123134248Y-75065000D01*
X122967501Y-75081423D01*
X122753553Y-75146324D01*
X122556377Y-75251716D01*
X122383551Y-75393551D01*
X122348008Y-75436860D01*
X122314080Y-75470788D01*
X122151011Y-75503225D01*
X121898957Y-75607629D01*
X121672114Y-75759201D01*
X121479201Y-75952114D01*
X121327629Y-76178957D01*
X121223225Y-76431011D01*
X121190788Y-76594079D01*
X119829869Y-77955000D01*
X117919360Y-77955000D01*
X117768363Y-77729017D01*
X117470983Y-77431637D01*
X117121302Y-77197988D01*
X116732756Y-77037047D01*
X116320279Y-76955000D01*
X115899721Y-76955000D01*
X115487244Y-77037047D01*
X115098698Y-77197988D01*
X114749017Y-77431637D01*
X114451637Y-77729017D01*
X114217988Y-78078698D01*
X114057047Y-78467244D01*
X113975000Y-78879721D01*
X113975000Y-79300279D01*
X114057047Y-79712756D01*
X114217988Y-80101302D01*
X114451637Y-80450983D01*
X114518654Y-80518000D01*
X111252000Y-80518000D01*
X111252000Y-46380000D01*
X156185000Y-46380000D01*
X156185001Y-123105995D01*
%TA.AperFunction,Conductor*%
D38*
G36*
X156185001Y-123105995D02*
G01*
X156184178Y-123097062D01*
X155969452Y-122372792D01*
X155617555Y-121704330D01*
X155590548Y-121663912D01*
X155100881Y-121303724D01*
X152579605Y-123825000D01*
X155100881Y-126346276D01*
X155590548Y-125986088D01*
X155950849Y-125322118D01*
X156174694Y-124600615D01*
X156185001Y-124502327D01*
X156185001Y-126975000D01*
X154590914Y-126975000D01*
X154921276Y-126525881D01*
X152400000Y-124004605D01*
X149878724Y-126525881D01*
X150209086Y-126975000D01*
X149352000Y-126975000D01*
X149352000Y-126090943D01*
X149699119Y-126346276D01*
X152220395Y-123825000D01*
X149699119Y-121303724D01*
X149209452Y-121663912D01*
X149139403Y-121793000D01*
X146936410Y-121793000D01*
X147605291Y-121124119D01*
X149878724Y-121124119D01*
X152400000Y-123645395D01*
X154921276Y-121124119D01*
X154561088Y-120634452D01*
X153897118Y-120274151D01*
X153175615Y-120050306D01*
X152424305Y-119971520D01*
X151672062Y-120040822D01*
X150947792Y-120255548D01*
X150279330Y-120607445D01*
X150238912Y-120634452D01*
X149878724Y-121124119D01*
X147605291Y-121124119D01*
X147806427Y-120922984D01*
X147838290Y-120896835D01*
X147942635Y-120769690D01*
X148020171Y-120624631D01*
X148067917Y-120467233D01*
X148079999Y-120344563D01*
X148079999Y-120344562D01*
X148084039Y-120303545D01*
X148082486Y-120287779D01*
X148386108Y-120367384D01*
X148707595Y-120386718D01*
X149026675Y-120342961D01*
X149331088Y-120237795D01*
X149505044Y-120144814D01*
X149600808Y-119880413D01*
X148645000Y-118924605D01*
X148630858Y-118938748D01*
X148451253Y-118759143D01*
X148465395Y-118745000D01*
X148824605Y-118745000D01*
X149780413Y-119700808D01*
X150044814Y-119605044D01*
X150185704Y-119315429D01*
X150267384Y-119003892D01*
X150286718Y-118682405D01*
X150242961Y-118363325D01*
X150137795Y-118058912D01*
X150044814Y-117884956D01*
X149780413Y-117789192D01*
X148824605Y-118745000D01*
X148465395Y-118745000D01*
X148451253Y-118730858D01*
X148630858Y-118551253D01*
X148645000Y-118565395D01*
X149600808Y-117609587D01*
X149505044Y-117345186D01*
X149215429Y-117204296D01*
X148903892Y-117122616D01*
X148582405Y-117103282D01*
X148263325Y-117147039D01*
X148079999Y-117210373D01*
X148079999Y-113787127D01*
X148386108Y-113867384D01*
X148707595Y-113886718D01*
X149026675Y-113842961D01*
X149331088Y-113737795D01*
X149505044Y-113644814D01*
X149600808Y-113380413D01*
X148645000Y-112424605D01*
X148630858Y-112438748D01*
X148451253Y-112259143D01*
X148465395Y-112245000D01*
X148824605Y-112245000D01*
X149780413Y-113200808D01*
X150044814Y-113105044D01*
X150185704Y-112815429D01*
X150267384Y-112503892D01*
X150286718Y-112182405D01*
X150242961Y-111863325D01*
X150137795Y-111558912D01*
X150044814Y-111384956D01*
X149780413Y-111289192D01*
X148824605Y-112245000D01*
X148465395Y-112245000D01*
X148451253Y-112230858D01*
X148630858Y-112051253D01*
X148645000Y-112065395D01*
X149600808Y-111109587D01*
X149505044Y-110845186D01*
X149215429Y-110704296D01*
X148903892Y-110622616D01*
X148582405Y-110603282D01*
X148263325Y-110647039D01*
X148079999Y-110710373D01*
X148079999Y-107587127D01*
X148386108Y-107667384D01*
X148707595Y-107686718D01*
X149026675Y-107642961D01*
X149331088Y-107537795D01*
X149505044Y-107444814D01*
X149600808Y-107180413D01*
X148645000Y-106224605D01*
X148630858Y-106238748D01*
X148451253Y-106059143D01*
X148465395Y-106045000D01*
X148824605Y-106045000D01*
X149780413Y-107000808D01*
X150044814Y-106905044D01*
X150185704Y-106615429D01*
X150267384Y-106303892D01*
X150286718Y-105982405D01*
X150242961Y-105663325D01*
X150137795Y-105358912D01*
X150044814Y-105184956D01*
X149780413Y-105089192D01*
X148824605Y-106045000D01*
X148465395Y-106045000D01*
X148451253Y-106030858D01*
X148630858Y-105851253D01*
X148645000Y-105865395D01*
X149600808Y-104909587D01*
X149505044Y-104645186D01*
X149215429Y-104504296D01*
X148903892Y-104422616D01*
X148582405Y-104403282D01*
X148263325Y-104447039D01*
X148120011Y-104496550D01*
X148120011Y-101097618D01*
X148386108Y-101167384D01*
X148707595Y-101186718D01*
X149026675Y-101142961D01*
X149331088Y-101037795D01*
X149505044Y-100944814D01*
X149600808Y-100680413D01*
X148645000Y-99724605D01*
X148630858Y-99738748D01*
X148451253Y-99559143D01*
X148465395Y-99545000D01*
X148824605Y-99545000D01*
X149780413Y-100500808D01*
X150044814Y-100405044D01*
X150185704Y-100115429D01*
X150267384Y-99803892D01*
X150286718Y-99482405D01*
X150242961Y-99163325D01*
X150137795Y-98858912D01*
X150044814Y-98684956D01*
X149780413Y-98589192D01*
X148824605Y-99545000D01*
X148465395Y-99545000D01*
X148451253Y-99530858D01*
X148630858Y-99351253D01*
X148645000Y-99365395D01*
X149600808Y-98409587D01*
X149505044Y-98145186D01*
X149268670Y-98030196D01*
X149348111Y-97950755D01*
X150071770Y-97950755D01*
X150112788Y-97954795D01*
X150153806Y-97950755D01*
X150153807Y-97950755D01*
X150276477Y-97938673D01*
X150433875Y-97890927D01*
X150578934Y-97813391D01*
X150706079Y-97709046D01*
X150732234Y-97677176D01*
X153596433Y-94812979D01*
X153628291Y-94786834D01*
X153664147Y-94743144D01*
X153732636Y-94659689D01*
X153810172Y-94514630D01*
X153857918Y-94357232D01*
X153874040Y-94193543D01*
X153870000Y-94152525D01*
X153870000Y-83143065D01*
X153981632Y-83068475D01*
X154188475Y-82861632D01*
X154350990Y-82618411D01*
X154462932Y-82348158D01*
X154520000Y-82061260D01*
X154520000Y-81768740D01*
X154493807Y-81637061D01*
X155374433Y-80756436D01*
X155406291Y-80730291D01*
X155433352Y-80697318D01*
X155510636Y-80603146D01*
X155588172Y-80458087D01*
X155635918Y-80300688D01*
X155652040Y-80137000D01*
X155648000Y-80095982D01*
X155648000Y-75606018D01*
X155652040Y-75565000D01*
X155648000Y-75523981D01*
X155648000Y-69764018D01*
X155652040Y-69723000D01*
X155635918Y-69559312D01*
X155621892Y-69513072D01*
X155588172Y-69401913D01*
X155510636Y-69256854D01*
X155488182Y-69229494D01*
X155432439Y-69161570D01*
X155432437Y-69161568D01*
X155406291Y-69129709D01*
X155374432Y-69103563D01*
X154523072Y-68252204D01*
X154523072Y-67095000D01*
X154510812Y-66970518D01*
X154474502Y-66850820D01*
X154415537Y-66740506D01*
X154336185Y-66643815D01*
X154239494Y-66564463D01*
X154129180Y-66505498D01*
X154056620Y-66483487D01*
X154188475Y-66351632D01*
X154350990Y-66108411D01*
X154462932Y-65838158D01*
X154520000Y-65551260D01*
X154520000Y-65258740D01*
X154462932Y-64971842D01*
X154350990Y-64701589D01*
X154188475Y-64458368D01*
X153981632Y-64251525D01*
X153807240Y-64135000D01*
X153981632Y-64018475D01*
X154188475Y-63811632D01*
X154350990Y-63568411D01*
X154462932Y-63298158D01*
X154520000Y-63011260D01*
X154520000Y-62718740D01*
X154462932Y-62431842D01*
X154350990Y-62161589D01*
X154188475Y-61918368D01*
X153981632Y-61711525D01*
X153807240Y-61595000D01*
X153981632Y-61478475D01*
X154188475Y-61271632D01*
X154350990Y-61028411D01*
X154462932Y-60758158D01*
X154520000Y-60471260D01*
X154520000Y-60178740D01*
X154462932Y-59891842D01*
X154350990Y-59621589D01*
X154188475Y-59378368D01*
X153981632Y-59171525D01*
X153807240Y-59055000D01*
X153981632Y-58938475D01*
X154188475Y-58731632D01*
X154350990Y-58488411D01*
X154462932Y-58218158D01*
X154520000Y-57931260D01*
X154520000Y-57638740D01*
X154462932Y-57351842D01*
X154350990Y-57081589D01*
X154188475Y-56838368D01*
X153981632Y-56631525D01*
X153799466Y-56509805D01*
X153916355Y-56440178D01*
X154132588Y-56245269D01*
X154306641Y-56011920D01*
X154431825Y-55749099D01*
X154476476Y-55601890D01*
X154355155Y-55372000D01*
X153162000Y-55372000D01*
X153162000Y-55392000D01*
X152908000Y-55392000D01*
X152908000Y-55372000D01*
X152888000Y-55372000D01*
X152888000Y-55118000D01*
X152908000Y-55118000D01*
X152908000Y-55098000D01*
X153162000Y-55098000D01*
X153162000Y-55118000D01*
X154355155Y-55118000D01*
X154476476Y-54888110D01*
X154431825Y-54740901D01*
X154306641Y-54478080D01*
X154132588Y-54244731D01*
X153916355Y-54049822D01*
X153799466Y-53980195D01*
X153981632Y-53858475D01*
X154188475Y-53651632D01*
X154350990Y-53408411D01*
X154462932Y-53138158D01*
X154520000Y-52851260D01*
X154520000Y-52558740D01*
X154462932Y-52271842D01*
X154350990Y-52001589D01*
X154188475Y-51758368D01*
X153981632Y-51551525D01*
X153807240Y-51435000D01*
X153981632Y-51318475D01*
X154188475Y-51111632D01*
X154350990Y-50868411D01*
X154462932Y-50598158D01*
X154520000Y-50311260D01*
X154520000Y-50018740D01*
X154462932Y-49731842D01*
X154350990Y-49461589D01*
X154188475Y-49218368D01*
X153981632Y-49011525D01*
X153738411Y-48849010D01*
X153468158Y-48737068D01*
X153181260Y-48680000D01*
X153155131Y-48680000D01*
X153026996Y-48551865D01*
X152991450Y-48508552D01*
X152818624Y-48366717D01*
X152621448Y-48261325D01*
X152407500Y-48196424D01*
X152240753Y-48180001D01*
X152240752Y-48180001D01*
X152185001Y-48174510D01*
X152129250Y-48180001D01*
X149495750Y-48180001D01*
X149439998Y-48174510D01*
X149217499Y-48196424D01*
X149167704Y-48211530D01*
X149003552Y-48261325D01*
X148806376Y-48366717D01*
X148633550Y-48508552D01*
X148598007Y-48551861D01*
X148349080Y-48800788D01*
X148186011Y-48833225D01*
X147933957Y-48937629D01*
X147707114Y-49089201D01*
X147514201Y-49282114D01*
X147362629Y-49508957D01*
X147258225Y-49761011D01*
X147205000Y-50028589D01*
X147205000Y-50301411D01*
X147258225Y-50568989D01*
X147362629Y-50821043D01*
X147514201Y-51047886D01*
X147707114Y-51240799D01*
X147933957Y-51392371D01*
X148186011Y-51496775D01*
X148453589Y-51550000D01*
X148726411Y-51550000D01*
X148993989Y-51496775D01*
X149246043Y-51392371D01*
X149472886Y-51240799D01*
X149665799Y-51047886D01*
X149817371Y-50821043D01*
X149921775Y-50568989D01*
X149945443Y-50450001D01*
X151577598Y-50450001D01*
X151607068Y-50598158D01*
X151719010Y-50868411D01*
X151881525Y-51111632D01*
X152088368Y-51318475D01*
X152262760Y-51435000D01*
X152088368Y-51551525D01*
X151881525Y-51758368D01*
X151719010Y-52001589D01*
X151607068Y-52271842D01*
X151550000Y-52558740D01*
X151550000Y-52851260D01*
X151576193Y-52982938D01*
X144479310Y-60079823D01*
X144298363Y-59809017D01*
X144000983Y-59511637D01*
X143651302Y-59277988D01*
X143262756Y-59117047D01*
X142850279Y-59035000D01*
X142429721Y-59035000D01*
X142017244Y-59117047D01*
X141628698Y-59277988D01*
X141279017Y-59511637D01*
X140981637Y-59809017D01*
X140747988Y-60158698D01*
X140587047Y-60547244D01*
X140505000Y-60959721D01*
X140505000Y-61380279D01*
X140523967Y-61475633D01*
X140493877Y-61491716D01*
X140321051Y-61633551D01*
X140285509Y-61676859D01*
X138125441Y-63836928D01*
X137504999Y-63836928D01*
X137331745Y-63853992D01*
X137165149Y-63904528D01*
X137011613Y-63986595D01*
X136992233Y-64002500D01*
X136218252Y-64002500D01*
X136162500Y-63997009D01*
X136106748Y-64002500D01*
X135940001Y-64018923D01*
X135726053Y-64083824D01*
X135528877Y-64189216D01*
X135356051Y-64331051D01*
X135320511Y-64374357D01*
X134787941Y-64906928D01*
X134780000Y-64906928D01*
X134748809Y-64910000D01*
X134585751Y-64910000D01*
X134529999Y-64904509D01*
X134423461Y-64915002D01*
X134307501Y-64926423D01*
X134093553Y-64991324D01*
X133896377Y-65096716D01*
X133723551Y-65238551D01*
X133688011Y-65281857D01*
X129411864Y-69558005D01*
X129368551Y-69593551D01*
X129226716Y-69766377D01*
X129155783Y-69899084D01*
X125601860Y-73453009D01*
X125558552Y-73488551D01*
X125416717Y-73661377D01*
X125394668Y-73702629D01*
X125311324Y-73858554D01*
X125246423Y-74072502D01*
X125224509Y-74295000D01*
X125230001Y-74350761D01*
X125230001Y-74465375D01*
X125140518Y-74474188D01*
X125020820Y-74510498D01*
X124910506Y-74569463D01*
X124813815Y-74648815D01*
X124734463Y-74745506D01*
X124675498Y-74855820D01*
X124639188Y-74975518D01*
X124630375Y-75065000D01*
X123245752Y-75065000D01*
X123190000Y-75059509D01*
X123134248Y-75065000D01*
X122967501Y-75081423D01*
X122753553Y-75146324D01*
X122556377Y-75251716D01*
X122383551Y-75393551D01*
X122348008Y-75436860D01*
X122314080Y-75470788D01*
X122151011Y-75503225D01*
X121898957Y-75607629D01*
X121672114Y-75759201D01*
X121479201Y-75952114D01*
X121327629Y-76178957D01*
X121223225Y-76431011D01*
X121190788Y-76594079D01*
X119829869Y-77955000D01*
X117919360Y-77955000D01*
X117768363Y-77729017D01*
X117470983Y-77431637D01*
X117121302Y-77197988D01*
X116732756Y-77037047D01*
X116320279Y-76955000D01*
X115899721Y-76955000D01*
X115487244Y-77037047D01*
X115098698Y-77197988D01*
X114749017Y-77431637D01*
X114451637Y-77729017D01*
X114217988Y-78078698D01*
X114057047Y-78467244D01*
X113975000Y-78879721D01*
X113975000Y-79300279D01*
X114057047Y-79712756D01*
X114217988Y-80101302D01*
X114451637Y-80450983D01*
X114518654Y-80518000D01*
X111252000Y-80518000D01*
X111252000Y-46380000D01*
X156185000Y-46380000D01*
X156185001Y-123105995D01*
G37*
%TD.AperFunction*%
D37*
X114451637Y-89729017D02*
X114217988Y-90078698D01*
X114057047Y-90467244D01*
X113975000Y-90879721D01*
X113975000Y-91300279D01*
X114057047Y-91712756D01*
X114217988Y-92101302D01*
X114451637Y-92450983D01*
X114749017Y-92748363D01*
X115098698Y-92982012D01*
X115487244Y-93142953D01*
X115899721Y-93225000D01*
X116320279Y-93225000D01*
X116732756Y-93142953D01*
X117121302Y-92982012D01*
X117470983Y-92748363D01*
X117768363Y-92450983D01*
X118002012Y-92101302D01*
X118162953Y-91712756D01*
X118245000Y-91300279D01*
X118245000Y-91154999D01*
X125173983Y-91154999D01*
X125215001Y-91159039D01*
X125256019Y-91154999D01*
X125256020Y-91154999D01*
X125378690Y-91142917D01*
X125536088Y-91095171D01*
X125562000Y-91081321D01*
X125562000Y-91297000D01*
X125542000Y-91297000D01*
X125542000Y-91317000D01*
X125288000Y-91317000D01*
X125288000Y-91297000D01*
X124538750Y-91297000D01*
X124380000Y-91455750D01*
X124376928Y-91620000D01*
X124389188Y-91744482D01*
X124425498Y-91864180D01*
X124484463Y-91974494D01*
X124563815Y-92071185D01*
X124660506Y-92150537D01*
X124686842Y-92164614D01*
X124562038Y-92267038D01*
X124451595Y-92401613D01*
X124369528Y-92555149D01*
X124318992Y-92721745D01*
X124301928Y-92894999D01*
X124301928Y-93795001D01*
X124318992Y-93968255D01*
X124369528Y-94134851D01*
X124451595Y-94288387D01*
X124562038Y-94422962D01*
X124617501Y-94468479D01*
X124617500Y-96451632D01*
X120685133Y-100384000D01*
X117588378Y-100384000D01*
X117578291Y-100371709D01*
X117451146Y-100267364D01*
X117306087Y-100189828D01*
X117221193Y-100164076D01*
X117223072Y-100145000D01*
X117223072Y-99245000D01*
X117210812Y-99120518D01*
X117192454Y-99060000D01*
X117210812Y-98999482D01*
X117223072Y-98875000D01*
X117223072Y-97975000D01*
X117210812Y-97850518D01*
X117192454Y-97790000D01*
X117210812Y-97729482D01*
X117223072Y-97605000D01*
X117223072Y-96705000D01*
X117210812Y-96580518D01*
X117174502Y-96460820D01*
X117133975Y-96385000D01*
X121229261Y-96385000D01*
X121285012Y-96390491D01*
X121340763Y-96385000D01*
X121340764Y-96385000D01*
X121507511Y-96368577D01*
X121721459Y-96303676D01*
X121918635Y-96198284D01*
X122091461Y-96056449D01*
X122127008Y-96013135D01*
X122795932Y-95344212D01*
X122959001Y-95311775D01*
X123211055Y-95207371D01*
X123437898Y-95055799D01*
X123630811Y-94862886D01*
X123782383Y-94636043D01*
X123886787Y-94383989D01*
X123940012Y-94116411D01*
X123940012Y-93843589D01*
X123886787Y-93576011D01*
X123782383Y-93323957D01*
X123630811Y-93097114D01*
X123437898Y-92904201D01*
X123211055Y-92752629D01*
X122959001Y-92648225D01*
X122691423Y-92595000D01*
X122418601Y-92595000D01*
X122151023Y-92648225D01*
X121898969Y-92752629D01*
X121672126Y-92904201D01*
X121479213Y-93097114D01*
X121327641Y-93323957D01*
X121223237Y-93576011D01*
X121190800Y-93739080D01*
X120814881Y-94115000D01*
X112554286Y-94115000D01*
X112416043Y-94022629D01*
X112163989Y-93918225D01*
X111896411Y-93865000D01*
X111623589Y-93865000D01*
X111356011Y-93918225D01*
X111103957Y-94022629D01*
X110877114Y-94174201D01*
X110684201Y-94367114D01*
X110532629Y-94593957D01*
X110428225Y-94846011D01*
X110375000Y-95113589D01*
X110375000Y-95386411D01*
X110428225Y-95653989D01*
X110532629Y-95906043D01*
X110675655Y-96120095D01*
X110617000Y-96178750D01*
X110617000Y-97028000D01*
X111691250Y-97028000D01*
X111850000Y-96869250D01*
X111853072Y-96655000D01*
X111851102Y-96635000D01*
X111896411Y-96635000D01*
X112163989Y-96581775D01*
X112416043Y-96477371D01*
X112554286Y-96385000D01*
X114536025Y-96385000D01*
X114495498Y-96460820D01*
X114459188Y-96580518D01*
X114446928Y-96705000D01*
X114446928Y-97605000D01*
X114459188Y-97729482D01*
X114477546Y-97790000D01*
X114459188Y-97850518D01*
X114446928Y-97975000D01*
X114446928Y-98875000D01*
X114455294Y-98959941D01*
X114397610Y-98942443D01*
X114271267Y-98929999D01*
X114271260Y-98929999D01*
X114229021Y-98925839D01*
X114186782Y-98929999D01*
X112459170Y-98929999D01*
X112416924Y-98925838D01*
X112248334Y-98942443D01*
X112086223Y-98991618D01*
X112071511Y-98999482D01*
X111936822Y-99071475D01*
X111853072Y-99140207D01*
X111853072Y-98805000D01*
X111836008Y-98631746D01*
X111785472Y-98465150D01*
X111703405Y-98311614D01*
X111592962Y-98177038D01*
X111586406Y-98171658D01*
X111666185Y-98106185D01*
X111745537Y-98009494D01*
X111804502Y-97899180D01*
X111840812Y-97779482D01*
X111853072Y-97655000D01*
X111850000Y-97440750D01*
X111691250Y-97282000D01*
X110617000Y-97282000D01*
X110617000Y-97302000D01*
X110363000Y-97302000D01*
X110363000Y-97282000D01*
X109288750Y-97282000D01*
X109130000Y-97440750D01*
X109126928Y-97655000D01*
X109139188Y-97779482D01*
X109175498Y-97899180D01*
X109234463Y-98009494D01*
X109313815Y-98106185D01*
X109393594Y-98171658D01*
X109387038Y-98177038D01*
X109368194Y-98200000D01*
X108852238Y-98200000D01*
X108863072Y-98090000D01*
X108860000Y-98075750D01*
X108701250Y-97917000D01*
X107377000Y-97917000D01*
X107377000Y-97937000D01*
X107123000Y-97937000D01*
X107123000Y-97917000D01*
X105798750Y-97917000D01*
X105640000Y-98075750D01*
X105636928Y-98090000D01*
X105649188Y-98214482D01*
X105685498Y-98334180D01*
X105744463Y-98444494D01*
X105768730Y-98474064D01*
X105696916Y-98608418D01*
X105652071Y-98756255D01*
X105636928Y-98910000D01*
X105636928Y-99210000D01*
X105652071Y-99363745D01*
X105696916Y-99511582D01*
X105769742Y-99647829D01*
X105808454Y-99695000D01*
X105769742Y-99742171D01*
X105696916Y-99878418D01*
X105652071Y-100026255D01*
X105636928Y-100180000D01*
X105636928Y-100480000D01*
X105652071Y-100633745D01*
X105696916Y-100781582D01*
X105769742Y-100917829D01*
X105808454Y-100965000D01*
X105769742Y-101012171D01*
X105696916Y-101148418D01*
X105652071Y-101296255D01*
X105636928Y-101450000D01*
X105636928Y-101750000D01*
X105652071Y-101903745D01*
X105696916Y-102051582D01*
X105769742Y-102187829D01*
X105867749Y-102307251D01*
X105987171Y-102405258D01*
X106123418Y-102478084D01*
X106271255Y-102522929D01*
X106425000Y-102538072D01*
X108075000Y-102538072D01*
X108228745Y-102522929D01*
X108353783Y-102485000D01*
X108725001Y-102485000D01*
X108725000Y-103633807D01*
X108721928Y-103665000D01*
X108721928Y-104615000D01*
X108738992Y-104788254D01*
X108789528Y-104954850D01*
X108858026Y-105083000D01*
X106074766Y-105083000D01*
X106033748Y-105078960D01*
X105992730Y-105083000D01*
X105992729Y-105083000D01*
X105870059Y-105095082D01*
X105773193Y-105124466D01*
X105712661Y-105142828D01*
X105567602Y-105220364D01*
X105475230Y-105296172D01*
X105440457Y-105324709D01*
X105414311Y-105356568D01*
X100524941Y-110245940D01*
X86953078Y-110245940D01*
X86912059Y-110241900D01*
X86871041Y-110245940D01*
X86748371Y-110258022D01*
X86590973Y-110305768D01*
X86445914Y-110383304D01*
X86318769Y-110487649D01*
X86292621Y-110519511D01*
X83258574Y-113553559D01*
X83226710Y-113579709D01*
X83156714Y-113665000D01*
X83122364Y-113706855D01*
X83044828Y-113851914D01*
X82997082Y-114009312D01*
X82980960Y-114173000D01*
X82985001Y-114214028D01*
X82985001Y-114976935D01*
X82873368Y-115051525D01*
X82666525Y-115258368D01*
X82504010Y-115501589D01*
X82392068Y-115771842D01*
X82335000Y-116058740D01*
X82335000Y-116351260D01*
X82392068Y-116638158D01*
X82504010Y-116908411D01*
X82666525Y-117151632D01*
X82873368Y-117358475D01*
X83049406Y-117476100D01*
X82819731Y-117647412D01*
X82624822Y-117863645D01*
X82475843Y-118113748D01*
X82378519Y-118388109D01*
X82499186Y-118618000D01*
X83693000Y-118618000D01*
X83693000Y-118598000D01*
X83947000Y-118598000D01*
X83947000Y-118618000D01*
X86233000Y-118618000D01*
X86233000Y-118598000D01*
X86487000Y-118598000D01*
X86487000Y-118618000D01*
X88773000Y-118618000D01*
X88773000Y-118598000D01*
X89027000Y-118598000D01*
X89027000Y-118618000D01*
X91313000Y-118618000D01*
X91313000Y-118598000D01*
X91567000Y-118598000D01*
X91567000Y-118618000D01*
X93853000Y-118618000D01*
X93853000Y-118598000D01*
X94107000Y-118598000D01*
X94107000Y-118618000D01*
X96393000Y-118618000D01*
X96393000Y-118598000D01*
X96647000Y-118598000D01*
X96647000Y-118618000D01*
X98933000Y-118618000D01*
X98933000Y-118598000D01*
X99187000Y-118598000D01*
X99187000Y-118618000D01*
X101473000Y-118618000D01*
X101473000Y-118598000D01*
X101727000Y-118598000D01*
X101727000Y-118618000D01*
X104013000Y-118618000D01*
X104013000Y-118598000D01*
X104267000Y-118598000D01*
X104267000Y-118618000D01*
X104287000Y-118618000D01*
X104287000Y-118872000D01*
X104267000Y-118872000D01*
X104267000Y-120065155D01*
X104496890Y-120186476D01*
X104644099Y-120141825D01*
X104906920Y-120016641D01*
X105140269Y-119842588D01*
X105335178Y-119626355D01*
X105404805Y-119509466D01*
X105526525Y-119691632D01*
X105733368Y-119898475D01*
X105976589Y-120060990D01*
X106246842Y-120172932D01*
X106533740Y-120230000D01*
X106826260Y-120230000D01*
X107113158Y-120172932D01*
X107383411Y-120060990D01*
X107626632Y-119898475D01*
X107770107Y-119755000D01*
X107795750Y-119755000D01*
X107928750Y-119888000D01*
X108778000Y-119888000D01*
X108778000Y-119868000D01*
X109032000Y-119868000D01*
X109032000Y-119888000D01*
X109052000Y-119888000D01*
X109052000Y-120142000D01*
X109032000Y-120142000D01*
X109032000Y-121216250D01*
X109190750Y-121375000D01*
X109405000Y-121378072D01*
X109529482Y-121365812D01*
X109649180Y-121329502D01*
X109759494Y-121270537D01*
X109856185Y-121191185D01*
X109921658Y-121111406D01*
X109927038Y-121117962D01*
X110061614Y-121228405D01*
X110215150Y-121310472D01*
X110381746Y-121361008D01*
X110555000Y-121378072D01*
X111055000Y-121378072D01*
X111228254Y-121361008D01*
X111394850Y-121310472D01*
X111548386Y-121228405D01*
X111643923Y-121150000D01*
X111831253Y-121150000D01*
X111887004Y-121155491D01*
X111942755Y-121150000D01*
X111942756Y-121150000D01*
X112109503Y-121133577D01*
X112323451Y-121068676D01*
X112520627Y-120963284D01*
X112693453Y-120821449D01*
X112728999Y-120778136D01*
X113397921Y-120109216D01*
X113560989Y-120076779D01*
X113813043Y-119972375D01*
X114039886Y-119820803D01*
X114105689Y-119755000D01*
X114475750Y-119755000D01*
X114608750Y-119888000D01*
X115708000Y-119888000D01*
X115708000Y-119868000D01*
X115962000Y-119868000D01*
X115962000Y-119888000D01*
X117061250Y-119888000D01*
X117194250Y-119755000D01*
X118353840Y-119755000D01*
X118435553Y-119798676D01*
X118649501Y-119863577D01*
X118871999Y-119885491D01*
X118927751Y-119880000D01*
X125039249Y-119880000D01*
X125095000Y-119885491D01*
X125150751Y-119880000D01*
X125150752Y-119880000D01*
X125317499Y-119863577D01*
X125531447Y-119798676D01*
X125728623Y-119693284D01*
X125901449Y-119551449D01*
X125936996Y-119508135D01*
X129668146Y-115776987D01*
X129711449Y-115741449D01*
X129763896Y-115677543D01*
X129853284Y-115568623D01*
X129958676Y-115371447D01*
X130023577Y-115157499D01*
X130032482Y-115067083D01*
X130040000Y-114990752D01*
X130040000Y-114990751D01*
X130045491Y-114935000D01*
X130040000Y-114879248D01*
X130040000Y-96990131D01*
X134474989Y-92555143D01*
X134474988Y-99044145D01*
X134446336Y-99072797D01*
X134442454Y-99060000D01*
X134460812Y-98999482D01*
X134473072Y-98875000D01*
X134473072Y-97975000D01*
X134460812Y-97850518D01*
X134442454Y-97790000D01*
X134460812Y-97729482D01*
X134473072Y-97605000D01*
X134473072Y-96705000D01*
X134460812Y-96580518D01*
X134424502Y-96460820D01*
X134365537Y-96350506D01*
X134286185Y-96253815D01*
X134189494Y-96174463D01*
X134079180Y-96115498D01*
X133959482Y-96079188D01*
X133835000Y-96066928D01*
X132335000Y-96066928D01*
X132210518Y-96079188D01*
X132090820Y-96115498D01*
X131980506Y-96174463D01*
X131883815Y-96253815D01*
X131804463Y-96350506D01*
X131745498Y-96460820D01*
X131709188Y-96580518D01*
X131696928Y-96705000D01*
X131696928Y-97605000D01*
X131709188Y-97729482D01*
X131727546Y-97790000D01*
X131709188Y-97850518D01*
X131696928Y-97975000D01*
X131696928Y-98875000D01*
X131709188Y-98999482D01*
X131727546Y-99060000D01*
X131709188Y-99120518D01*
X131696928Y-99245000D01*
X131696928Y-100145000D01*
X131709188Y-100269482D01*
X131727546Y-100330000D01*
X131709188Y-100390518D01*
X131696928Y-100515000D01*
X131696928Y-101415000D01*
X131709188Y-101539482D01*
X131727546Y-101600000D01*
X131709188Y-101660518D01*
X131696928Y-101785000D01*
X131696928Y-102685000D01*
X131709188Y-102809482D01*
X131727546Y-102870000D01*
X131709188Y-102930518D01*
X131696928Y-103055000D01*
X131696928Y-103955000D01*
X131709188Y-104079482D01*
X131727546Y-104140000D01*
X131709188Y-104200518D01*
X131696928Y-104325000D01*
X131696928Y-105225000D01*
X131709188Y-105349482D01*
X131727546Y-105410000D01*
X131709188Y-105470518D01*
X131696928Y-105595000D01*
X131696928Y-106495000D01*
X131709188Y-106619482D01*
X131727546Y-106680000D01*
X131709188Y-106740518D01*
X131696928Y-106865000D01*
X131696928Y-107765000D01*
X131709188Y-107889482D01*
X131727546Y-107950000D01*
X131709188Y-108010518D01*
X131696928Y-108135000D01*
X131696928Y-109035000D01*
X131709188Y-109159482D01*
X131727546Y-109220000D01*
X131709188Y-109280518D01*
X131696928Y-109405000D01*
X131696928Y-110305000D01*
X131709188Y-110429482D01*
X131727546Y-110490000D01*
X131709188Y-110550518D01*
X131696928Y-110675000D01*
X131696928Y-111575000D01*
X131709188Y-111699482D01*
X131727546Y-111760000D01*
X131709188Y-111820518D01*
X131696928Y-111945000D01*
X131696928Y-112845000D01*
X131709188Y-112969482D01*
X131727546Y-113030000D01*
X131709188Y-113090518D01*
X131696928Y-113215000D01*
X131696928Y-114115000D01*
X131709188Y-114239482D01*
X131727546Y-114300000D01*
X131709188Y-114360518D01*
X131696928Y-114485000D01*
X131696928Y-115385000D01*
X131709188Y-115509482D01*
X131727546Y-115570000D01*
X131709188Y-115630518D01*
X131696928Y-115755000D01*
X131696928Y-116655000D01*
X131709188Y-116779482D01*
X131727546Y-116840000D01*
X131709188Y-116900518D01*
X131696928Y-117025000D01*
X131696928Y-117925000D01*
X131709188Y-118049482D01*
X131727546Y-118110000D01*
X131709188Y-118170518D01*
X131696928Y-118295000D01*
X131696928Y-119195000D01*
X131709188Y-119319482D01*
X131727546Y-119380000D01*
X131709188Y-119440518D01*
X131696928Y-119565000D01*
X131700000Y-119729250D01*
X131858750Y-119888000D01*
X132958000Y-119888000D01*
X132958000Y-119868000D01*
X133212000Y-119868000D01*
X133212000Y-119888000D01*
X133232000Y-119888000D01*
X133232000Y-120142000D01*
X133212000Y-120142000D01*
X133212000Y-120162000D01*
X132958000Y-120162000D01*
X132958000Y-120142000D01*
X131858750Y-120142000D01*
X131700000Y-120300750D01*
X131696928Y-120465000D01*
X131702640Y-120523000D01*
X117217360Y-120523000D01*
X117223072Y-120465000D01*
X117220000Y-120300750D01*
X117061250Y-120142000D01*
X115962000Y-120142000D01*
X115962000Y-120162000D01*
X115708000Y-120162000D01*
X115708000Y-120142000D01*
X114608750Y-120142000D01*
X114450000Y-120300750D01*
X114446928Y-120465000D01*
X114459188Y-120589482D01*
X114495498Y-120709180D01*
X114554463Y-120819494D01*
X114633815Y-120916185D01*
X114730506Y-120995537D01*
X114808000Y-121036959D01*
X114808000Y-121793000D01*
X99695000Y-121793000D01*
X99670224Y-121795440D01*
X99646399Y-121802667D01*
X99624443Y-121814403D01*
X99605197Y-121830197D01*
X99589403Y-121849443D01*
X99577667Y-121871399D01*
X99570440Y-121895224D01*
X99568000Y-121920000D01*
X99568000Y-126975000D01*
X87915914Y-126975000D01*
X88246276Y-126525881D01*
X85725000Y-124004605D01*
X83203724Y-126525881D01*
X83534086Y-126975000D01*
X81940000Y-126975000D01*
X81940000Y-124544016D01*
X81940822Y-124552938D01*
X82155548Y-125277208D01*
X82507445Y-125945670D01*
X82534452Y-125986088D01*
X83024119Y-126346276D01*
X85545395Y-123825000D01*
X85904605Y-123825000D01*
X88425881Y-126346276D01*
X88915548Y-125986088D01*
X89275849Y-125322118D01*
X89499694Y-124600615D01*
X89578480Y-123849305D01*
X89509178Y-123097062D01*
X89294452Y-122372792D01*
X88942555Y-121704330D01*
X88915548Y-121663912D01*
X88425881Y-121303724D01*
X85904605Y-123825000D01*
X85545395Y-123825000D01*
X83024119Y-121303724D01*
X82534452Y-121663912D01*
X82174151Y-122327882D01*
X81950306Y-123049385D01*
X81940000Y-123147664D01*
X81940000Y-121124119D01*
X83203724Y-121124119D01*
X85725000Y-123645395D01*
X88246276Y-121124119D01*
X87963727Y-120740000D01*
X107766928Y-120740000D01*
X107779188Y-120864482D01*
X107815498Y-120984180D01*
X107874463Y-121094494D01*
X107953815Y-121191185D01*
X108050506Y-121270537D01*
X108160820Y-121329502D01*
X108280518Y-121365812D01*
X108405000Y-121378072D01*
X108619250Y-121375000D01*
X108778000Y-121216250D01*
X108778000Y-120142000D01*
X107928750Y-120142000D01*
X107770000Y-120300750D01*
X107766928Y-120740000D01*
X87963727Y-120740000D01*
X87886088Y-120634452D01*
X87222118Y-120274151D01*
X86829463Y-120152331D01*
X86864099Y-120141825D01*
X87126920Y-120016641D01*
X87360269Y-119842588D01*
X87555178Y-119626355D01*
X87630000Y-119500745D01*
X87704822Y-119626355D01*
X87899731Y-119842588D01*
X88133080Y-120016641D01*
X88395901Y-120141825D01*
X88543110Y-120186476D01*
X88773000Y-120065155D01*
X88773000Y-118872000D01*
X89027000Y-118872000D01*
X89027000Y-120065155D01*
X89256890Y-120186476D01*
X89404099Y-120141825D01*
X89666920Y-120016641D01*
X89900269Y-119842588D01*
X90095178Y-119626355D01*
X90170000Y-119500745D01*
X90244822Y-119626355D01*
X90439731Y-119842588D01*
X90673080Y-120016641D01*
X90935901Y-120141825D01*
X91083110Y-120186476D01*
X91313000Y-120065155D01*
X91313000Y-118872000D01*
X91567000Y-118872000D01*
X91567000Y-120065155D01*
X91796890Y-120186476D01*
X91944099Y-120141825D01*
X92206920Y-120016641D01*
X92440269Y-119842588D01*
X92635178Y-119626355D01*
X92710000Y-119500745D01*
X92784822Y-119626355D01*
X92979731Y-119842588D01*
X93213080Y-120016641D01*
X93475901Y-120141825D01*
X93623110Y-120186476D01*
X93853000Y-120065155D01*
X93853000Y-118872000D01*
X94107000Y-118872000D01*
X94107000Y-120065155D01*
X94336890Y-120186476D01*
X94484099Y-120141825D01*
X94746920Y-120016641D01*
X94980269Y-119842588D01*
X95175178Y-119626355D01*
X95250000Y-119500745D01*
X95324822Y-119626355D01*
X95519731Y-119842588D01*
X95753080Y-120016641D01*
X96015901Y-120141825D01*
X96163110Y-120186476D01*
X96393000Y-120065155D01*
X96393000Y-118872000D01*
X96647000Y-118872000D01*
X96647000Y-120065155D01*
X96876890Y-120186476D01*
X97024099Y-120141825D01*
X97286920Y-120016641D01*
X97520269Y-119842588D01*
X97715178Y-119626355D01*
X97790000Y-119500745D01*
X97864822Y-119626355D01*
X98059731Y-119842588D01*
X98293080Y-120016641D01*
X98555901Y-120141825D01*
X98703110Y-120186476D01*
X98933000Y-120065155D01*
X98933000Y-118872000D01*
X99187000Y-118872000D01*
X99187000Y-120065155D01*
X99416890Y-120186476D01*
X99564099Y-120141825D01*
X99826920Y-120016641D01*
X100060269Y-119842588D01*
X100255178Y-119626355D01*
X100330000Y-119500745D01*
X100404822Y-119626355D01*
X100599731Y-119842588D01*
X100833080Y-120016641D01*
X101095901Y-120141825D01*
X101243110Y-120186476D01*
X101473000Y-120065155D01*
X101473000Y-118872000D01*
X101727000Y-118872000D01*
X101727000Y-120065155D01*
X101956890Y-120186476D01*
X102104099Y-120141825D01*
X102366920Y-120016641D01*
X102600269Y-119842588D01*
X102795178Y-119626355D01*
X102870000Y-119500745D01*
X102944822Y-119626355D01*
X103139731Y-119842588D01*
X103373080Y-120016641D01*
X103635901Y-120141825D01*
X103783110Y-120186476D01*
X104013000Y-120065155D01*
X104013000Y-118872000D01*
X101727000Y-118872000D01*
X101473000Y-118872000D01*
X99187000Y-118872000D01*
X98933000Y-118872000D01*
X96647000Y-118872000D01*
X96393000Y-118872000D01*
X94107000Y-118872000D01*
X93853000Y-118872000D01*
X91567000Y-118872000D01*
X91313000Y-118872000D01*
X89027000Y-118872000D01*
X88773000Y-118872000D01*
X86487000Y-118872000D01*
X86487000Y-118892000D01*
X86233000Y-118892000D01*
X86233000Y-118872000D01*
X83947000Y-118872000D01*
X83947000Y-120065155D01*
X84176890Y-120186476D01*
X84324099Y-120141825D01*
X84586920Y-120016641D01*
X84820269Y-119842588D01*
X85015178Y-119626355D01*
X85090000Y-119500745D01*
X85164822Y-119626355D01*
X85359731Y-119842588D01*
X85556412Y-119989291D01*
X84997062Y-120040822D01*
X84272792Y-120255548D01*
X83604330Y-120607445D01*
X83563912Y-120634452D01*
X83203724Y-121124119D01*
X81940000Y-121124119D01*
X81940000Y-119101891D01*
X82378519Y-119101891D01*
X82475843Y-119376252D01*
X82624822Y-119626355D01*
X82819731Y-119842588D01*
X83053080Y-120016641D01*
X83315901Y-120141825D01*
X83463110Y-120186476D01*
X83693000Y-120065155D01*
X83693000Y-118872000D01*
X82499186Y-118872000D01*
X82378519Y-119101891D01*
X81940000Y-119101891D01*
X81940000Y-109982000D01*
X100330000Y-109982000D01*
X100354776Y-109979560D01*
X100378601Y-109972333D01*
X100400557Y-109960597D01*
X100419803Y-109944803D01*
X105499803Y-104864803D01*
X105515597Y-104845557D01*
X105527333Y-104823601D01*
X105534560Y-104799776D01*
X105537000Y-104775000D01*
X105537000Y-97225390D01*
X105811489Y-97053834D01*
X105744463Y-97135506D01*
X105685498Y-97245820D01*
X105649188Y-97365518D01*
X105636928Y-97490000D01*
X105640000Y-97504250D01*
X105798750Y-97663000D01*
X107123000Y-97663000D01*
X107123000Y-97013750D01*
X107377000Y-97013750D01*
X107377000Y-97663000D01*
X108701250Y-97663000D01*
X108860000Y-97504250D01*
X108863072Y-97490000D01*
X108850812Y-97365518D01*
X108814502Y-97245820D01*
X108755537Y-97135506D01*
X108676185Y-97038815D01*
X108579494Y-96959463D01*
X108469180Y-96900498D01*
X108349482Y-96864188D01*
X108225000Y-96851928D01*
X107535750Y-96855000D01*
X107377000Y-97013750D01*
X107123000Y-97013750D01*
X106964250Y-96855000D01*
X106275000Y-96851928D01*
X106150518Y-96864188D01*
X106081354Y-96885169D01*
X106449624Y-96655000D01*
X109126928Y-96655000D01*
X109130000Y-96869250D01*
X109288750Y-97028000D01*
X110363000Y-97028000D01*
X110363000Y-96178750D01*
X110204250Y-96020000D01*
X109765000Y-96016928D01*
X109640518Y-96029188D01*
X109520820Y-96065498D01*
X109410506Y-96124463D01*
X109313815Y-96203815D01*
X109234463Y-96300506D01*
X109175498Y-96410820D01*
X109139188Y-96530518D01*
X109126928Y-96655000D01*
X106449624Y-96655000D01*
X110557310Y-94087696D01*
X110577027Y-94072495D01*
X110593400Y-94053740D01*
X110605799Y-94032150D01*
X110613748Y-94008557D01*
X110617000Y-93980000D01*
X110617000Y-89662000D01*
X114518654Y-89662000D01*
X114451637Y-89729017D01*
%TA.AperFunction,Conductor*%
D38*
G36*
X114451637Y-89729017D02*
G01*
X114217988Y-90078698D01*
X114057047Y-90467244D01*
X113975000Y-90879721D01*
X113975000Y-91300279D01*
X114057047Y-91712756D01*
X114217988Y-92101302D01*
X114451637Y-92450983D01*
X114749017Y-92748363D01*
X115098698Y-92982012D01*
X115487244Y-93142953D01*
X115899721Y-93225000D01*
X116320279Y-93225000D01*
X116732756Y-93142953D01*
X117121302Y-92982012D01*
X117470983Y-92748363D01*
X117768363Y-92450983D01*
X118002012Y-92101302D01*
X118162953Y-91712756D01*
X118245000Y-91300279D01*
X118245000Y-91154999D01*
X125173983Y-91154999D01*
X125215001Y-91159039D01*
X125256019Y-91154999D01*
X125256020Y-91154999D01*
X125378690Y-91142917D01*
X125536088Y-91095171D01*
X125562000Y-91081321D01*
X125562000Y-91297000D01*
X125542000Y-91297000D01*
X125542000Y-91317000D01*
X125288000Y-91317000D01*
X125288000Y-91297000D01*
X124538750Y-91297000D01*
X124380000Y-91455750D01*
X124376928Y-91620000D01*
X124389188Y-91744482D01*
X124425498Y-91864180D01*
X124484463Y-91974494D01*
X124563815Y-92071185D01*
X124660506Y-92150537D01*
X124686842Y-92164614D01*
X124562038Y-92267038D01*
X124451595Y-92401613D01*
X124369528Y-92555149D01*
X124318992Y-92721745D01*
X124301928Y-92894999D01*
X124301928Y-93795001D01*
X124318992Y-93968255D01*
X124369528Y-94134851D01*
X124451595Y-94288387D01*
X124562038Y-94422962D01*
X124617501Y-94468479D01*
X124617500Y-96451632D01*
X120685133Y-100384000D01*
X117588378Y-100384000D01*
X117578291Y-100371709D01*
X117451146Y-100267364D01*
X117306087Y-100189828D01*
X117221193Y-100164076D01*
X117223072Y-100145000D01*
X117223072Y-99245000D01*
X117210812Y-99120518D01*
X117192454Y-99060000D01*
X117210812Y-98999482D01*
X117223072Y-98875000D01*
X117223072Y-97975000D01*
X117210812Y-97850518D01*
X117192454Y-97790000D01*
X117210812Y-97729482D01*
X117223072Y-97605000D01*
X117223072Y-96705000D01*
X117210812Y-96580518D01*
X117174502Y-96460820D01*
X117133975Y-96385000D01*
X121229261Y-96385000D01*
X121285012Y-96390491D01*
X121340763Y-96385000D01*
X121340764Y-96385000D01*
X121507511Y-96368577D01*
X121721459Y-96303676D01*
X121918635Y-96198284D01*
X122091461Y-96056449D01*
X122127008Y-96013135D01*
X122795932Y-95344212D01*
X122959001Y-95311775D01*
X123211055Y-95207371D01*
X123437898Y-95055799D01*
X123630811Y-94862886D01*
X123782383Y-94636043D01*
X123886787Y-94383989D01*
X123940012Y-94116411D01*
X123940012Y-93843589D01*
X123886787Y-93576011D01*
X123782383Y-93323957D01*
X123630811Y-93097114D01*
X123437898Y-92904201D01*
X123211055Y-92752629D01*
X122959001Y-92648225D01*
X122691423Y-92595000D01*
X122418601Y-92595000D01*
X122151023Y-92648225D01*
X121898969Y-92752629D01*
X121672126Y-92904201D01*
X121479213Y-93097114D01*
X121327641Y-93323957D01*
X121223237Y-93576011D01*
X121190800Y-93739080D01*
X120814881Y-94115000D01*
X112554286Y-94115000D01*
X112416043Y-94022629D01*
X112163989Y-93918225D01*
X111896411Y-93865000D01*
X111623589Y-93865000D01*
X111356011Y-93918225D01*
X111103957Y-94022629D01*
X110877114Y-94174201D01*
X110684201Y-94367114D01*
X110532629Y-94593957D01*
X110428225Y-94846011D01*
X110375000Y-95113589D01*
X110375000Y-95386411D01*
X110428225Y-95653989D01*
X110532629Y-95906043D01*
X110675655Y-96120095D01*
X110617000Y-96178750D01*
X110617000Y-97028000D01*
X111691250Y-97028000D01*
X111850000Y-96869250D01*
X111853072Y-96655000D01*
X111851102Y-96635000D01*
X111896411Y-96635000D01*
X112163989Y-96581775D01*
X112416043Y-96477371D01*
X112554286Y-96385000D01*
X114536025Y-96385000D01*
X114495498Y-96460820D01*
X114459188Y-96580518D01*
X114446928Y-96705000D01*
X114446928Y-97605000D01*
X114459188Y-97729482D01*
X114477546Y-97790000D01*
X114459188Y-97850518D01*
X114446928Y-97975000D01*
X114446928Y-98875000D01*
X114455294Y-98959941D01*
X114397610Y-98942443D01*
X114271267Y-98929999D01*
X114271260Y-98929999D01*
X114229021Y-98925839D01*
X114186782Y-98929999D01*
X112459170Y-98929999D01*
X112416924Y-98925838D01*
X112248334Y-98942443D01*
X112086223Y-98991618D01*
X112071511Y-98999482D01*
X111936822Y-99071475D01*
X111853072Y-99140207D01*
X111853072Y-98805000D01*
X111836008Y-98631746D01*
X111785472Y-98465150D01*
X111703405Y-98311614D01*
X111592962Y-98177038D01*
X111586406Y-98171658D01*
X111666185Y-98106185D01*
X111745537Y-98009494D01*
X111804502Y-97899180D01*
X111840812Y-97779482D01*
X111853072Y-97655000D01*
X111850000Y-97440750D01*
X111691250Y-97282000D01*
X110617000Y-97282000D01*
X110617000Y-97302000D01*
X110363000Y-97302000D01*
X110363000Y-97282000D01*
X109288750Y-97282000D01*
X109130000Y-97440750D01*
X109126928Y-97655000D01*
X109139188Y-97779482D01*
X109175498Y-97899180D01*
X109234463Y-98009494D01*
X109313815Y-98106185D01*
X109393594Y-98171658D01*
X109387038Y-98177038D01*
X109368194Y-98200000D01*
X108852238Y-98200000D01*
X108863072Y-98090000D01*
X108860000Y-98075750D01*
X108701250Y-97917000D01*
X107377000Y-97917000D01*
X107377000Y-97937000D01*
X107123000Y-97937000D01*
X107123000Y-97917000D01*
X105798750Y-97917000D01*
X105640000Y-98075750D01*
X105636928Y-98090000D01*
X105649188Y-98214482D01*
X105685498Y-98334180D01*
X105744463Y-98444494D01*
X105768730Y-98474064D01*
X105696916Y-98608418D01*
X105652071Y-98756255D01*
X105636928Y-98910000D01*
X105636928Y-99210000D01*
X105652071Y-99363745D01*
X105696916Y-99511582D01*
X105769742Y-99647829D01*
X105808454Y-99695000D01*
X105769742Y-99742171D01*
X105696916Y-99878418D01*
X105652071Y-100026255D01*
X105636928Y-100180000D01*
X105636928Y-100480000D01*
X105652071Y-100633745D01*
X105696916Y-100781582D01*
X105769742Y-100917829D01*
X105808454Y-100965000D01*
X105769742Y-101012171D01*
X105696916Y-101148418D01*
X105652071Y-101296255D01*
X105636928Y-101450000D01*
X105636928Y-101750000D01*
X105652071Y-101903745D01*
X105696916Y-102051582D01*
X105769742Y-102187829D01*
X105867749Y-102307251D01*
X105987171Y-102405258D01*
X106123418Y-102478084D01*
X106271255Y-102522929D01*
X106425000Y-102538072D01*
X108075000Y-102538072D01*
X108228745Y-102522929D01*
X108353783Y-102485000D01*
X108725001Y-102485000D01*
X108725000Y-103633807D01*
X108721928Y-103665000D01*
X108721928Y-104615000D01*
X108738992Y-104788254D01*
X108789528Y-104954850D01*
X108858026Y-105083000D01*
X106074766Y-105083000D01*
X106033748Y-105078960D01*
X105992730Y-105083000D01*
X105992729Y-105083000D01*
X105870059Y-105095082D01*
X105773193Y-105124466D01*
X105712661Y-105142828D01*
X105567602Y-105220364D01*
X105475230Y-105296172D01*
X105440457Y-105324709D01*
X105414311Y-105356568D01*
X100524941Y-110245940D01*
X86953078Y-110245940D01*
X86912059Y-110241900D01*
X86871041Y-110245940D01*
X86748371Y-110258022D01*
X86590973Y-110305768D01*
X86445914Y-110383304D01*
X86318769Y-110487649D01*
X86292621Y-110519511D01*
X83258574Y-113553559D01*
X83226710Y-113579709D01*
X83156714Y-113665000D01*
X83122364Y-113706855D01*
X83044828Y-113851914D01*
X82997082Y-114009312D01*
X82980960Y-114173000D01*
X82985001Y-114214028D01*
X82985001Y-114976935D01*
X82873368Y-115051525D01*
X82666525Y-115258368D01*
X82504010Y-115501589D01*
X82392068Y-115771842D01*
X82335000Y-116058740D01*
X82335000Y-116351260D01*
X82392068Y-116638158D01*
X82504010Y-116908411D01*
X82666525Y-117151632D01*
X82873368Y-117358475D01*
X83049406Y-117476100D01*
X82819731Y-117647412D01*
X82624822Y-117863645D01*
X82475843Y-118113748D01*
X82378519Y-118388109D01*
X82499186Y-118618000D01*
X83693000Y-118618000D01*
X83693000Y-118598000D01*
X83947000Y-118598000D01*
X83947000Y-118618000D01*
X86233000Y-118618000D01*
X86233000Y-118598000D01*
X86487000Y-118598000D01*
X86487000Y-118618000D01*
X88773000Y-118618000D01*
X88773000Y-118598000D01*
X89027000Y-118598000D01*
X89027000Y-118618000D01*
X91313000Y-118618000D01*
X91313000Y-118598000D01*
X91567000Y-118598000D01*
X91567000Y-118618000D01*
X93853000Y-118618000D01*
X93853000Y-118598000D01*
X94107000Y-118598000D01*
X94107000Y-118618000D01*
X96393000Y-118618000D01*
X96393000Y-118598000D01*
X96647000Y-118598000D01*
X96647000Y-118618000D01*
X98933000Y-118618000D01*
X98933000Y-118598000D01*
X99187000Y-118598000D01*
X99187000Y-118618000D01*
X101473000Y-118618000D01*
X101473000Y-118598000D01*
X101727000Y-118598000D01*
X101727000Y-118618000D01*
X104013000Y-118618000D01*
X104013000Y-118598000D01*
X104267000Y-118598000D01*
X104267000Y-118618000D01*
X104287000Y-118618000D01*
X104287000Y-118872000D01*
X104267000Y-118872000D01*
X104267000Y-120065155D01*
X104496890Y-120186476D01*
X104644099Y-120141825D01*
X104906920Y-120016641D01*
X105140269Y-119842588D01*
X105335178Y-119626355D01*
X105404805Y-119509466D01*
X105526525Y-119691632D01*
X105733368Y-119898475D01*
X105976589Y-120060990D01*
X106246842Y-120172932D01*
X106533740Y-120230000D01*
X106826260Y-120230000D01*
X107113158Y-120172932D01*
X107383411Y-120060990D01*
X107626632Y-119898475D01*
X107770107Y-119755000D01*
X107795750Y-119755000D01*
X107928750Y-119888000D01*
X108778000Y-119888000D01*
X108778000Y-119868000D01*
X109032000Y-119868000D01*
X109032000Y-119888000D01*
X109052000Y-119888000D01*
X109052000Y-120142000D01*
X109032000Y-120142000D01*
X109032000Y-121216250D01*
X109190750Y-121375000D01*
X109405000Y-121378072D01*
X109529482Y-121365812D01*
X109649180Y-121329502D01*
X109759494Y-121270537D01*
X109856185Y-121191185D01*
X109921658Y-121111406D01*
X109927038Y-121117962D01*
X110061614Y-121228405D01*
X110215150Y-121310472D01*
X110381746Y-121361008D01*
X110555000Y-121378072D01*
X111055000Y-121378072D01*
X111228254Y-121361008D01*
X111394850Y-121310472D01*
X111548386Y-121228405D01*
X111643923Y-121150000D01*
X111831253Y-121150000D01*
X111887004Y-121155491D01*
X111942755Y-121150000D01*
X111942756Y-121150000D01*
X112109503Y-121133577D01*
X112323451Y-121068676D01*
X112520627Y-120963284D01*
X112693453Y-120821449D01*
X112728999Y-120778136D01*
X113397921Y-120109216D01*
X113560989Y-120076779D01*
X113813043Y-119972375D01*
X114039886Y-119820803D01*
X114105689Y-119755000D01*
X114475750Y-119755000D01*
X114608750Y-119888000D01*
X115708000Y-119888000D01*
X115708000Y-119868000D01*
X115962000Y-119868000D01*
X115962000Y-119888000D01*
X117061250Y-119888000D01*
X117194250Y-119755000D01*
X118353840Y-119755000D01*
X118435553Y-119798676D01*
X118649501Y-119863577D01*
X118871999Y-119885491D01*
X118927751Y-119880000D01*
X125039249Y-119880000D01*
X125095000Y-119885491D01*
X125150751Y-119880000D01*
X125150752Y-119880000D01*
X125317499Y-119863577D01*
X125531447Y-119798676D01*
X125728623Y-119693284D01*
X125901449Y-119551449D01*
X125936996Y-119508135D01*
X129668146Y-115776987D01*
X129711449Y-115741449D01*
X129763896Y-115677543D01*
X129853284Y-115568623D01*
X129958676Y-115371447D01*
X130023577Y-115157499D01*
X130032482Y-115067083D01*
X130040000Y-114990752D01*
X130040000Y-114990751D01*
X130045491Y-114935000D01*
X130040000Y-114879248D01*
X130040000Y-96990131D01*
X134474989Y-92555143D01*
X134474988Y-99044145D01*
X134446336Y-99072797D01*
X134442454Y-99060000D01*
X134460812Y-98999482D01*
X134473072Y-98875000D01*
X134473072Y-97975000D01*
X134460812Y-97850518D01*
X134442454Y-97790000D01*
X134460812Y-97729482D01*
X134473072Y-97605000D01*
X134473072Y-96705000D01*
X134460812Y-96580518D01*
X134424502Y-96460820D01*
X134365537Y-96350506D01*
X134286185Y-96253815D01*
X134189494Y-96174463D01*
X134079180Y-96115498D01*
X133959482Y-96079188D01*
X133835000Y-96066928D01*
X132335000Y-96066928D01*
X132210518Y-96079188D01*
X132090820Y-96115498D01*
X131980506Y-96174463D01*
X131883815Y-96253815D01*
X131804463Y-96350506D01*
X131745498Y-96460820D01*
X131709188Y-96580518D01*
X131696928Y-96705000D01*
X131696928Y-97605000D01*
X131709188Y-97729482D01*
X131727546Y-97790000D01*
X131709188Y-97850518D01*
X131696928Y-97975000D01*
X131696928Y-98875000D01*
X131709188Y-98999482D01*
X131727546Y-99060000D01*
X131709188Y-99120518D01*
X131696928Y-99245000D01*
X131696928Y-100145000D01*
X131709188Y-100269482D01*
X131727546Y-100330000D01*
X131709188Y-100390518D01*
X131696928Y-100515000D01*
X131696928Y-101415000D01*
X131709188Y-101539482D01*
X131727546Y-101600000D01*
X131709188Y-101660518D01*
X131696928Y-101785000D01*
X131696928Y-102685000D01*
X131709188Y-102809482D01*
X131727546Y-102870000D01*
X131709188Y-102930518D01*
X131696928Y-103055000D01*
X131696928Y-103955000D01*
X131709188Y-104079482D01*
X131727546Y-104140000D01*
X131709188Y-104200518D01*
X131696928Y-104325000D01*
X131696928Y-105225000D01*
X131709188Y-105349482D01*
X131727546Y-105410000D01*
X131709188Y-105470518D01*
X131696928Y-105595000D01*
X131696928Y-106495000D01*
X131709188Y-106619482D01*
X131727546Y-106680000D01*
X131709188Y-106740518D01*
X131696928Y-106865000D01*
X131696928Y-107765000D01*
X131709188Y-107889482D01*
X131727546Y-107950000D01*
X131709188Y-108010518D01*
X131696928Y-108135000D01*
X131696928Y-109035000D01*
X131709188Y-109159482D01*
X131727546Y-109220000D01*
X131709188Y-109280518D01*
X131696928Y-109405000D01*
X131696928Y-110305000D01*
X131709188Y-110429482D01*
X131727546Y-110490000D01*
X131709188Y-110550518D01*
X131696928Y-110675000D01*
X131696928Y-111575000D01*
X131709188Y-111699482D01*
X131727546Y-111760000D01*
X131709188Y-111820518D01*
X131696928Y-111945000D01*
X131696928Y-112845000D01*
X131709188Y-112969482D01*
X131727546Y-113030000D01*
X131709188Y-113090518D01*
X131696928Y-113215000D01*
X131696928Y-114115000D01*
X131709188Y-114239482D01*
X131727546Y-114300000D01*
X131709188Y-114360518D01*
X131696928Y-114485000D01*
X131696928Y-115385000D01*
X131709188Y-115509482D01*
X131727546Y-115570000D01*
X131709188Y-115630518D01*
X131696928Y-115755000D01*
X131696928Y-116655000D01*
X131709188Y-116779482D01*
X131727546Y-116840000D01*
X131709188Y-116900518D01*
X131696928Y-117025000D01*
X131696928Y-117925000D01*
X131709188Y-118049482D01*
X131727546Y-118110000D01*
X131709188Y-118170518D01*
X131696928Y-118295000D01*
X131696928Y-119195000D01*
X131709188Y-119319482D01*
X131727546Y-119380000D01*
X131709188Y-119440518D01*
X131696928Y-119565000D01*
X131700000Y-119729250D01*
X131858750Y-119888000D01*
X132958000Y-119888000D01*
X132958000Y-119868000D01*
X133212000Y-119868000D01*
X133212000Y-119888000D01*
X133232000Y-119888000D01*
X133232000Y-120142000D01*
X133212000Y-120142000D01*
X133212000Y-120162000D01*
X132958000Y-120162000D01*
X132958000Y-120142000D01*
X131858750Y-120142000D01*
X131700000Y-120300750D01*
X131696928Y-120465000D01*
X131702640Y-120523000D01*
X117217360Y-120523000D01*
X117223072Y-120465000D01*
X117220000Y-120300750D01*
X117061250Y-120142000D01*
X115962000Y-120142000D01*
X115962000Y-120162000D01*
X115708000Y-120162000D01*
X115708000Y-120142000D01*
X114608750Y-120142000D01*
X114450000Y-120300750D01*
X114446928Y-120465000D01*
X114459188Y-120589482D01*
X114495498Y-120709180D01*
X114554463Y-120819494D01*
X114633815Y-120916185D01*
X114730506Y-120995537D01*
X114808000Y-121036959D01*
X114808000Y-121793000D01*
X99695000Y-121793000D01*
X99670224Y-121795440D01*
X99646399Y-121802667D01*
X99624443Y-121814403D01*
X99605197Y-121830197D01*
X99589403Y-121849443D01*
X99577667Y-121871399D01*
X99570440Y-121895224D01*
X99568000Y-121920000D01*
X99568000Y-126975000D01*
X87915914Y-126975000D01*
X88246276Y-126525881D01*
X85725000Y-124004605D01*
X83203724Y-126525881D01*
X83534086Y-126975000D01*
X81940000Y-126975000D01*
X81940000Y-124544016D01*
X81940822Y-124552938D01*
X82155548Y-125277208D01*
X82507445Y-125945670D01*
X82534452Y-125986088D01*
X83024119Y-126346276D01*
X85545395Y-123825000D01*
X85904605Y-123825000D01*
X88425881Y-126346276D01*
X88915548Y-125986088D01*
X89275849Y-125322118D01*
X89499694Y-124600615D01*
X89578480Y-123849305D01*
X89509178Y-123097062D01*
X89294452Y-122372792D01*
X88942555Y-121704330D01*
X88915548Y-121663912D01*
X88425881Y-121303724D01*
X85904605Y-123825000D01*
X85545395Y-123825000D01*
X83024119Y-121303724D01*
X82534452Y-121663912D01*
X82174151Y-122327882D01*
X81950306Y-123049385D01*
X81940000Y-123147664D01*
X81940000Y-121124119D01*
X83203724Y-121124119D01*
X85725000Y-123645395D01*
X88246276Y-121124119D01*
X87963727Y-120740000D01*
X107766928Y-120740000D01*
X107779188Y-120864482D01*
X107815498Y-120984180D01*
X107874463Y-121094494D01*
X107953815Y-121191185D01*
X108050506Y-121270537D01*
X108160820Y-121329502D01*
X108280518Y-121365812D01*
X108405000Y-121378072D01*
X108619250Y-121375000D01*
X108778000Y-121216250D01*
X108778000Y-120142000D01*
X107928750Y-120142000D01*
X107770000Y-120300750D01*
X107766928Y-120740000D01*
X87963727Y-120740000D01*
X87886088Y-120634452D01*
X87222118Y-120274151D01*
X86829463Y-120152331D01*
X86864099Y-120141825D01*
X87126920Y-120016641D01*
X87360269Y-119842588D01*
X87555178Y-119626355D01*
X87630000Y-119500745D01*
X87704822Y-119626355D01*
X87899731Y-119842588D01*
X88133080Y-120016641D01*
X88395901Y-120141825D01*
X88543110Y-120186476D01*
X88773000Y-120065155D01*
X88773000Y-118872000D01*
X89027000Y-118872000D01*
X89027000Y-120065155D01*
X89256890Y-120186476D01*
X89404099Y-120141825D01*
X89666920Y-120016641D01*
X89900269Y-119842588D01*
X90095178Y-119626355D01*
X90170000Y-119500745D01*
X90244822Y-119626355D01*
X90439731Y-119842588D01*
X90673080Y-120016641D01*
X90935901Y-120141825D01*
X91083110Y-120186476D01*
X91313000Y-120065155D01*
X91313000Y-118872000D01*
X91567000Y-118872000D01*
X91567000Y-120065155D01*
X91796890Y-120186476D01*
X91944099Y-120141825D01*
X92206920Y-120016641D01*
X92440269Y-119842588D01*
X92635178Y-119626355D01*
X92710000Y-119500745D01*
X92784822Y-119626355D01*
X92979731Y-119842588D01*
X93213080Y-120016641D01*
X93475901Y-120141825D01*
X93623110Y-120186476D01*
X93853000Y-120065155D01*
X93853000Y-118872000D01*
X94107000Y-118872000D01*
X94107000Y-120065155D01*
X94336890Y-120186476D01*
X94484099Y-120141825D01*
X94746920Y-120016641D01*
X94980269Y-119842588D01*
X95175178Y-119626355D01*
X95250000Y-119500745D01*
X95324822Y-119626355D01*
X95519731Y-119842588D01*
X95753080Y-120016641D01*
X96015901Y-120141825D01*
X96163110Y-120186476D01*
X96393000Y-120065155D01*
X96393000Y-118872000D01*
X96647000Y-118872000D01*
X96647000Y-120065155D01*
X96876890Y-120186476D01*
X97024099Y-120141825D01*
X97286920Y-120016641D01*
X97520269Y-119842588D01*
X97715178Y-119626355D01*
X97790000Y-119500745D01*
X97864822Y-119626355D01*
X98059731Y-119842588D01*
X98293080Y-120016641D01*
X98555901Y-120141825D01*
X98703110Y-120186476D01*
X98933000Y-120065155D01*
X98933000Y-118872000D01*
X99187000Y-118872000D01*
X99187000Y-120065155D01*
X99416890Y-120186476D01*
X99564099Y-120141825D01*
X99826920Y-120016641D01*
X100060269Y-119842588D01*
X100255178Y-119626355D01*
X100330000Y-119500745D01*
X100404822Y-119626355D01*
X100599731Y-119842588D01*
X100833080Y-120016641D01*
X101095901Y-120141825D01*
X101243110Y-120186476D01*
X101473000Y-120065155D01*
X101473000Y-118872000D01*
X101727000Y-118872000D01*
X101727000Y-120065155D01*
X101956890Y-120186476D01*
X102104099Y-120141825D01*
X102366920Y-120016641D01*
X102600269Y-119842588D01*
X102795178Y-119626355D01*
X102870000Y-119500745D01*
X102944822Y-119626355D01*
X103139731Y-119842588D01*
X103373080Y-120016641D01*
X103635901Y-120141825D01*
X103783110Y-120186476D01*
X104013000Y-120065155D01*
X104013000Y-118872000D01*
X101727000Y-118872000D01*
X101473000Y-118872000D01*
X99187000Y-118872000D01*
X98933000Y-118872000D01*
X96647000Y-118872000D01*
X96393000Y-118872000D01*
X94107000Y-118872000D01*
X93853000Y-118872000D01*
X91567000Y-118872000D01*
X91313000Y-118872000D01*
X89027000Y-118872000D01*
X88773000Y-118872000D01*
X86487000Y-118872000D01*
X86487000Y-118892000D01*
X86233000Y-118892000D01*
X86233000Y-118872000D01*
X83947000Y-118872000D01*
X83947000Y-120065155D01*
X84176890Y-120186476D01*
X84324099Y-120141825D01*
X84586920Y-120016641D01*
X84820269Y-119842588D01*
X85015178Y-119626355D01*
X85090000Y-119500745D01*
X85164822Y-119626355D01*
X85359731Y-119842588D01*
X85556412Y-119989291D01*
X84997062Y-120040822D01*
X84272792Y-120255548D01*
X83604330Y-120607445D01*
X83563912Y-120634452D01*
X83203724Y-121124119D01*
X81940000Y-121124119D01*
X81940000Y-119101891D01*
X82378519Y-119101891D01*
X82475843Y-119376252D01*
X82624822Y-119626355D01*
X82819731Y-119842588D01*
X83053080Y-120016641D01*
X83315901Y-120141825D01*
X83463110Y-120186476D01*
X83693000Y-120065155D01*
X83693000Y-118872000D01*
X82499186Y-118872000D01*
X82378519Y-119101891D01*
X81940000Y-119101891D01*
X81940000Y-109982000D01*
X100330000Y-109982000D01*
X100354776Y-109979560D01*
X100378601Y-109972333D01*
X100400557Y-109960597D01*
X100419803Y-109944803D01*
X105499803Y-104864803D01*
X105515597Y-104845557D01*
X105527333Y-104823601D01*
X105534560Y-104799776D01*
X105537000Y-104775000D01*
X105537000Y-97225390D01*
X105811489Y-97053834D01*
X105744463Y-97135506D01*
X105685498Y-97245820D01*
X105649188Y-97365518D01*
X105636928Y-97490000D01*
X105640000Y-97504250D01*
X105798750Y-97663000D01*
X107123000Y-97663000D01*
X107123000Y-97013750D01*
X107377000Y-97013750D01*
X107377000Y-97663000D01*
X108701250Y-97663000D01*
X108860000Y-97504250D01*
X108863072Y-97490000D01*
X108850812Y-97365518D01*
X108814502Y-97245820D01*
X108755537Y-97135506D01*
X108676185Y-97038815D01*
X108579494Y-96959463D01*
X108469180Y-96900498D01*
X108349482Y-96864188D01*
X108225000Y-96851928D01*
X107535750Y-96855000D01*
X107377000Y-97013750D01*
X107123000Y-97013750D01*
X106964250Y-96855000D01*
X106275000Y-96851928D01*
X106150518Y-96864188D01*
X106081354Y-96885169D01*
X106449624Y-96655000D01*
X109126928Y-96655000D01*
X109130000Y-96869250D01*
X109288750Y-97028000D01*
X110363000Y-97028000D01*
X110363000Y-96178750D01*
X110204250Y-96020000D01*
X109765000Y-96016928D01*
X109640518Y-96029188D01*
X109520820Y-96065498D01*
X109410506Y-96124463D01*
X109313815Y-96203815D01*
X109234463Y-96300506D01*
X109175498Y-96410820D01*
X109139188Y-96530518D01*
X109126928Y-96655000D01*
X106449624Y-96655000D01*
X110557310Y-94087696D01*
X110577027Y-94072495D01*
X110593400Y-94053740D01*
X110605799Y-94032150D01*
X110613748Y-94008557D01*
X110617000Y-93980000D01*
X110617000Y-89662000D01*
X114518654Y-89662000D01*
X114451637Y-89729017D01*
G37*
%TD.AperFunction*%
D37*
X105240498Y-117299180D02*
X105299463Y-117409494D01*
X105378815Y-117506185D01*
X105475506Y-117585537D01*
X105585820Y-117644502D01*
X105658380Y-117666513D01*
X105526525Y-117798368D01*
X105404805Y-117980534D01*
X105335178Y-117863645D01*
X105140269Y-117647412D01*
X104910594Y-117476100D01*
X105086632Y-117358475D01*
X105218487Y-117226620D01*
X105240498Y-117299180D01*
%TA.AperFunction,Conductor*%
D38*
G36*
X105240498Y-117299180D02*
G01*
X105299463Y-117409494D01*
X105378815Y-117506185D01*
X105475506Y-117585537D01*
X105585820Y-117644502D01*
X105658380Y-117666513D01*
X105526525Y-117798368D01*
X105404805Y-117980534D01*
X105335178Y-117863645D01*
X105140269Y-117647412D01*
X104910594Y-117476100D01*
X105086632Y-117358475D01*
X105218487Y-117226620D01*
X105240498Y-117299180D01*
G37*
%TD.AperFunction*%
D37*
X124639188Y-77424482D02*
X124675498Y-77544180D01*
X124734463Y-77654494D01*
X124813815Y-77751185D01*
X124910506Y-77830537D01*
X125020820Y-77889502D01*
X125140518Y-77925812D01*
X125265000Y-77938072D01*
X126497940Y-77938072D01*
X127174013Y-78614146D01*
X127209551Y-78657449D01*
X127252854Y-78692987D01*
X127252856Y-78692989D01*
X127382377Y-78799284D01*
X127516000Y-78870706D01*
X127516000Y-79684752D01*
X127532424Y-79851499D01*
X127597325Y-80065447D01*
X127702717Y-80262623D01*
X127844552Y-80435449D01*
X128017378Y-80577284D01*
X128214554Y-80682676D01*
X128428502Y-80747577D01*
X128651000Y-80769491D01*
X128873499Y-80747577D01*
X129087447Y-80682676D01*
X129284623Y-80577284D01*
X129287406Y-80575000D01*
X129515627Y-80575000D01*
X129570820Y-80604502D01*
X129690518Y-80640812D01*
X129815000Y-80653072D01*
X130875000Y-80653072D01*
X130999482Y-80640812D01*
X131119180Y-80604502D01*
X131229494Y-80545537D01*
X131326185Y-80466185D01*
X131405537Y-80369494D01*
X131445000Y-80295665D01*
X131484463Y-80369494D01*
X131563815Y-80466185D01*
X131660506Y-80545537D01*
X131770820Y-80604502D01*
X131857737Y-80630868D01*
X134771928Y-83545060D01*
X134771928Y-84645000D01*
X134784188Y-84769482D01*
X134820498Y-84889180D01*
X134879463Y-84999494D01*
X134958815Y-85096185D01*
X135055506Y-85175537D01*
X135165820Y-85234502D01*
X135285518Y-85270812D01*
X135410000Y-85283072D01*
X135530204Y-85283072D01*
X135453553Y-85306324D01*
X135256377Y-85411716D01*
X135083551Y-85553551D01*
X135048011Y-85596857D01*
X133083850Y-87561019D01*
X133040542Y-87596561D01*
X132898707Y-87769387D01*
X132855848Y-87849571D01*
X132793314Y-87966564D01*
X132728413Y-88180512D01*
X132706499Y-88403010D01*
X132711991Y-88458771D01*
X132711990Y-91107878D01*
X132468190Y-91351678D01*
X132427961Y-91058325D01*
X132322795Y-90753912D01*
X132229814Y-90579956D01*
X131965413Y-90484192D01*
X131009605Y-91440000D01*
X131023748Y-91454143D01*
X130844143Y-91633748D01*
X130830000Y-91619605D01*
X129874192Y-92575413D01*
X129969956Y-92839814D01*
X130259571Y-92980704D01*
X130571108Y-93062384D01*
X130746912Y-93072957D01*
X128141860Y-95678009D01*
X128098552Y-95713551D01*
X127956717Y-95886377D01*
X127937434Y-95922453D01*
X127851324Y-96083554D01*
X127786423Y-96297502D01*
X127764509Y-96520000D01*
X127770001Y-96575762D01*
X127770000Y-114464867D01*
X124624869Y-117610000D01*
X119880000Y-117610000D01*
X119880000Y-117292248D01*
X119863577Y-117125501D01*
X119798676Y-116911553D01*
X119693284Y-116714377D01*
X119551449Y-116541551D01*
X119378623Y-116399716D01*
X119181446Y-116294324D01*
X118967498Y-116229423D01*
X118745000Y-116207509D01*
X118522501Y-116229423D01*
X118308553Y-116294324D01*
X118111377Y-116399716D01*
X117938551Y-116541551D01*
X117796716Y-116714377D01*
X117691324Y-116911554D01*
X117626423Y-117125502D01*
X117610000Y-117292249D01*
X117610000Y-117735000D01*
X117223072Y-117735000D01*
X117223072Y-117025000D01*
X117210812Y-116900518D01*
X117192454Y-116840000D01*
X117210812Y-116779482D01*
X117223072Y-116655000D01*
X117223072Y-115755000D01*
X117210812Y-115630518D01*
X117192454Y-115570000D01*
X117210812Y-115509482D01*
X117223072Y-115385000D01*
X117223072Y-114765000D01*
X120291928Y-114765000D01*
X120304188Y-114889482D01*
X120340498Y-115009180D01*
X120399463Y-115119494D01*
X120478815Y-115216185D01*
X120575506Y-115295537D01*
X120685820Y-115354502D01*
X120805518Y-115390812D01*
X120930000Y-115403072D01*
X122694250Y-115400000D01*
X122853000Y-115241250D01*
X122853000Y-112842000D01*
X123107000Y-112842000D01*
X123107000Y-115241250D01*
X123265750Y-115400000D01*
X125030000Y-115403072D01*
X125154482Y-115390812D01*
X125274180Y-115354502D01*
X125384494Y-115295537D01*
X125481185Y-115216185D01*
X125560537Y-115119494D01*
X125619502Y-115009180D01*
X125655812Y-114889482D01*
X125668072Y-114765000D01*
X125665000Y-113000750D01*
X125506250Y-112842000D01*
X123107000Y-112842000D01*
X122853000Y-112842000D01*
X120453750Y-112842000D01*
X120295000Y-113000750D01*
X120291928Y-114765000D01*
X117223072Y-114765000D01*
X117223072Y-114485000D01*
X117210812Y-114360518D01*
X117192454Y-114300000D01*
X117210812Y-114239482D01*
X117223072Y-114115000D01*
X117223072Y-113215000D01*
X117210812Y-113090518D01*
X117192454Y-113030000D01*
X117210812Y-112969482D01*
X117223072Y-112845000D01*
X117223072Y-111945000D01*
X117210812Y-111820518D01*
X117192454Y-111760000D01*
X117210812Y-111699482D01*
X117223072Y-111575000D01*
X117223072Y-110675000D01*
X117222088Y-110665000D01*
X120291928Y-110665000D01*
X120295000Y-112429250D01*
X120453750Y-112588000D01*
X122853000Y-112588000D01*
X122853000Y-110188750D01*
X123107000Y-110188750D01*
X123107000Y-112588000D01*
X125506250Y-112588000D01*
X125665000Y-112429250D01*
X125668072Y-110665000D01*
X125655812Y-110540518D01*
X125619502Y-110420820D01*
X125560537Y-110310506D01*
X125481185Y-110213815D01*
X125384494Y-110134463D01*
X125274180Y-110075498D01*
X125154482Y-110039188D01*
X125030000Y-110026928D01*
X123265750Y-110030000D01*
X123107000Y-110188750D01*
X122853000Y-110188750D01*
X122694250Y-110030000D01*
X120930000Y-110026928D01*
X120805518Y-110039188D01*
X120685820Y-110075498D01*
X120575506Y-110134463D01*
X120478815Y-110213815D01*
X120399463Y-110310506D01*
X120340498Y-110420820D01*
X120304188Y-110540518D01*
X120291928Y-110665000D01*
X117222088Y-110665000D01*
X117210812Y-110550518D01*
X117192454Y-110490000D01*
X117210812Y-110429482D01*
X117223072Y-110305000D01*
X117223072Y-109405000D01*
X117210812Y-109280518D01*
X117192454Y-109220000D01*
X117210812Y-109159482D01*
X117223072Y-109035000D01*
X117223072Y-108135000D01*
X117210812Y-108010518D01*
X117192454Y-107950000D01*
X117210812Y-107889482D01*
X117223072Y-107765000D01*
X117223072Y-106865000D01*
X117210812Y-106740518D01*
X117192454Y-106680000D01*
X117210812Y-106619482D01*
X117223072Y-106495000D01*
X117223072Y-105595000D01*
X117210812Y-105470518D01*
X117192454Y-105410000D01*
X117210812Y-105349482D01*
X117223072Y-105225000D01*
X117223072Y-104325000D01*
X117210812Y-104200518D01*
X117192454Y-104140000D01*
X117210812Y-104079482D01*
X117223072Y-103955000D01*
X117223072Y-103055000D01*
X117210812Y-102930518D01*
X117192454Y-102870000D01*
X117210812Y-102809482D01*
X117223072Y-102685000D01*
X117220000Y-102520750D01*
X117061250Y-102362000D01*
X115962000Y-102362000D01*
X115962000Y-102382000D01*
X115708000Y-102382000D01*
X115708000Y-102362000D01*
X115688000Y-102362000D01*
X115688000Y-102108000D01*
X115708000Y-102108000D01*
X115708000Y-102088000D01*
X115962000Y-102088000D01*
X115962000Y-102108000D01*
X117061250Y-102108000D01*
X117122668Y-102046582D01*
X117197981Y-102054000D01*
X117197983Y-102054000D01*
X117238999Y-102058040D01*
X117280015Y-102054000D01*
X120989982Y-102054000D01*
X121031000Y-102058040D01*
X121072018Y-102054000D01*
X121072019Y-102054000D01*
X121194689Y-102041918D01*
X121352087Y-101994172D01*
X121497146Y-101916636D01*
X121624291Y-101812291D01*
X121650446Y-101780421D01*
X126013928Y-97416940D01*
X126045791Y-97390791D01*
X126150136Y-97263646D01*
X126227672Y-97118587D01*
X126275418Y-96961189D01*
X126287500Y-96838519D01*
X126287500Y-96838509D01*
X126291539Y-96797501D01*
X126287500Y-96756493D01*
X126287500Y-94468479D01*
X126342962Y-94422962D01*
X126365000Y-94396109D01*
X126387038Y-94422962D01*
X126521613Y-94533405D01*
X126675149Y-94615472D01*
X126841745Y-94666008D01*
X127014999Y-94683072D01*
X127540001Y-94683072D01*
X127713255Y-94666008D01*
X127879851Y-94615472D01*
X128033387Y-94533405D01*
X128167962Y-94422962D01*
X128278405Y-94288387D01*
X128360472Y-94134851D01*
X128411008Y-93968255D01*
X128428072Y-93795001D01*
X128428072Y-92894999D01*
X128411008Y-92721745D01*
X128360472Y-92555149D01*
X128278405Y-92401613D01*
X128167962Y-92267038D01*
X128150000Y-92252297D01*
X128150000Y-92084468D01*
X128166185Y-92071185D01*
X128245537Y-91974494D01*
X128304502Y-91864180D01*
X128340812Y-91744482D01*
X128353072Y-91620000D01*
X128353072Y-91502595D01*
X129188282Y-91502595D01*
X129232039Y-91821675D01*
X129337205Y-92126088D01*
X129430186Y-92300044D01*
X129694587Y-92395808D01*
X130650395Y-91440000D01*
X129694587Y-90484192D01*
X129430186Y-90579956D01*
X129289296Y-90869571D01*
X129207616Y-91181108D01*
X129188282Y-91502595D01*
X128353072Y-91502595D01*
X128353072Y-90720000D01*
X128340812Y-90595518D01*
X128304502Y-90475820D01*
X128245537Y-90365506D01*
X128195543Y-90304587D01*
X129874192Y-90304587D01*
X130830000Y-91260395D01*
X131785808Y-90304587D01*
X131690044Y-90040186D01*
X131400429Y-89899296D01*
X131088892Y-89817616D01*
X130767405Y-89798282D01*
X130448325Y-89842039D01*
X130143912Y-89947205D01*
X129969956Y-90040186D01*
X129874192Y-90304587D01*
X128195543Y-90304587D01*
X128166185Y-90268815D01*
X128069494Y-90189463D01*
X127959180Y-90130498D01*
X127839482Y-90094188D01*
X127715000Y-90081928D01*
X127203095Y-90081928D01*
X127216185Y-90071185D01*
X127295537Y-89974494D01*
X127354502Y-89864180D01*
X127390812Y-89744482D01*
X127403072Y-89620000D01*
X127403072Y-88720000D01*
X127390812Y-88595518D01*
X127354502Y-88475820D01*
X127295537Y-88365506D01*
X127216185Y-88268815D01*
X127200000Y-88255532D01*
X127200000Y-87888738D01*
X127470998Y-87707663D01*
X127712663Y-87465998D01*
X127902537Y-87181831D01*
X128033325Y-86866081D01*
X128100000Y-86530883D01*
X128100000Y-86189117D01*
X128033325Y-85853919D01*
X127902537Y-85538169D01*
X127712663Y-85254002D01*
X127470998Y-85012337D01*
X127186831Y-84822463D01*
X126871081Y-84691675D01*
X126535883Y-84625000D01*
X126194117Y-84625000D01*
X125858919Y-84691675D01*
X125543169Y-84822463D01*
X125259002Y-85012337D01*
X125017337Y-85254002D01*
X124827463Y-85538169D01*
X124696675Y-85853919D01*
X124630000Y-86189117D01*
X124630000Y-86530883D01*
X124696675Y-86866081D01*
X124827463Y-87181831D01*
X125017337Y-87465998D01*
X125259002Y-87707663D01*
X125530001Y-87888738D01*
X125530001Y-88255532D01*
X125513815Y-88268815D01*
X125434463Y-88365506D01*
X125375498Y-88475820D01*
X125339188Y-88595518D01*
X125326928Y-88720000D01*
X125326928Y-89027204D01*
X124869134Y-89484999D01*
X122047000Y-89484999D01*
X122047000Y-88503278D01*
X122055794Y-88461906D01*
X122056756Y-88452750D01*
X122056757Y-88452745D01*
X122056757Y-88452741D01*
X122068850Y-88329403D01*
X122068850Y-88329402D01*
X122072000Y-88297419D01*
X122072000Y-81882581D01*
X122069242Y-81854581D01*
X122069269Y-81850745D01*
X122068369Y-81841574D01*
X122055414Y-81718323D01*
X122047000Y-81677334D01*
X122047000Y-80645000D01*
X122044560Y-80620224D01*
X122037333Y-80596399D01*
X122025597Y-80574443D01*
X122009803Y-80555197D01*
X121990557Y-80539403D01*
X121968601Y-80527667D01*
X121944776Y-80520440D01*
X121920000Y-80518000D01*
X117701346Y-80518000D01*
X117768363Y-80450983D01*
X117919360Y-80225000D01*
X120244249Y-80225000D01*
X120300000Y-80230491D01*
X120355751Y-80225000D01*
X120355752Y-80225000D01*
X120522499Y-80208577D01*
X120736447Y-80143676D01*
X120933623Y-80038284D01*
X121106449Y-79896449D01*
X121141996Y-79853136D01*
X122795921Y-78199212D01*
X122958989Y-78166775D01*
X123211043Y-78062371D01*
X123437886Y-77910799D01*
X123630799Y-77717886D01*
X123782371Y-77491043D01*
X123847006Y-77335000D01*
X124630375Y-77335000D01*
X124639188Y-77424482D01*
%TA.AperFunction,Conductor*%
D38*
G36*
X124639188Y-77424482D02*
G01*
X124675498Y-77544180D01*
X124734463Y-77654494D01*
X124813815Y-77751185D01*
X124910506Y-77830537D01*
X125020820Y-77889502D01*
X125140518Y-77925812D01*
X125265000Y-77938072D01*
X126497940Y-77938072D01*
X127174013Y-78614146D01*
X127209551Y-78657449D01*
X127252854Y-78692987D01*
X127252856Y-78692989D01*
X127382377Y-78799284D01*
X127516000Y-78870706D01*
X127516000Y-79684752D01*
X127532424Y-79851499D01*
X127597325Y-80065447D01*
X127702717Y-80262623D01*
X127844552Y-80435449D01*
X128017378Y-80577284D01*
X128214554Y-80682676D01*
X128428502Y-80747577D01*
X128651000Y-80769491D01*
X128873499Y-80747577D01*
X129087447Y-80682676D01*
X129284623Y-80577284D01*
X129287406Y-80575000D01*
X129515627Y-80575000D01*
X129570820Y-80604502D01*
X129690518Y-80640812D01*
X129815000Y-80653072D01*
X130875000Y-80653072D01*
X130999482Y-80640812D01*
X131119180Y-80604502D01*
X131229494Y-80545537D01*
X131326185Y-80466185D01*
X131405537Y-80369494D01*
X131445000Y-80295665D01*
X131484463Y-80369494D01*
X131563815Y-80466185D01*
X131660506Y-80545537D01*
X131770820Y-80604502D01*
X131857737Y-80630868D01*
X134771928Y-83545060D01*
X134771928Y-84645000D01*
X134784188Y-84769482D01*
X134820498Y-84889180D01*
X134879463Y-84999494D01*
X134958815Y-85096185D01*
X135055506Y-85175537D01*
X135165820Y-85234502D01*
X135285518Y-85270812D01*
X135410000Y-85283072D01*
X135530204Y-85283072D01*
X135453553Y-85306324D01*
X135256377Y-85411716D01*
X135083551Y-85553551D01*
X135048011Y-85596857D01*
X133083850Y-87561019D01*
X133040542Y-87596561D01*
X132898707Y-87769387D01*
X132855848Y-87849571D01*
X132793314Y-87966564D01*
X132728413Y-88180512D01*
X132706499Y-88403010D01*
X132711991Y-88458771D01*
X132711990Y-91107878D01*
X132468190Y-91351678D01*
X132427961Y-91058325D01*
X132322795Y-90753912D01*
X132229814Y-90579956D01*
X131965413Y-90484192D01*
X131009605Y-91440000D01*
X131023748Y-91454143D01*
X130844143Y-91633748D01*
X130830000Y-91619605D01*
X129874192Y-92575413D01*
X129969956Y-92839814D01*
X130259571Y-92980704D01*
X130571108Y-93062384D01*
X130746912Y-93072957D01*
X128141860Y-95678009D01*
X128098552Y-95713551D01*
X127956717Y-95886377D01*
X127937434Y-95922453D01*
X127851324Y-96083554D01*
X127786423Y-96297502D01*
X127764509Y-96520000D01*
X127770001Y-96575762D01*
X127770000Y-114464867D01*
X124624869Y-117610000D01*
X119880000Y-117610000D01*
X119880000Y-117292248D01*
X119863577Y-117125501D01*
X119798676Y-116911553D01*
X119693284Y-116714377D01*
X119551449Y-116541551D01*
X119378623Y-116399716D01*
X119181446Y-116294324D01*
X118967498Y-116229423D01*
X118745000Y-116207509D01*
X118522501Y-116229423D01*
X118308553Y-116294324D01*
X118111377Y-116399716D01*
X117938551Y-116541551D01*
X117796716Y-116714377D01*
X117691324Y-116911554D01*
X117626423Y-117125502D01*
X117610000Y-117292249D01*
X117610000Y-117735000D01*
X117223072Y-117735000D01*
X117223072Y-117025000D01*
X117210812Y-116900518D01*
X117192454Y-116840000D01*
X117210812Y-116779482D01*
X117223072Y-116655000D01*
X117223072Y-115755000D01*
X117210812Y-115630518D01*
X117192454Y-115570000D01*
X117210812Y-115509482D01*
X117223072Y-115385000D01*
X117223072Y-114765000D01*
X120291928Y-114765000D01*
X120304188Y-114889482D01*
X120340498Y-115009180D01*
X120399463Y-115119494D01*
X120478815Y-115216185D01*
X120575506Y-115295537D01*
X120685820Y-115354502D01*
X120805518Y-115390812D01*
X120930000Y-115403072D01*
X122694250Y-115400000D01*
X122853000Y-115241250D01*
X122853000Y-112842000D01*
X123107000Y-112842000D01*
X123107000Y-115241250D01*
X123265750Y-115400000D01*
X125030000Y-115403072D01*
X125154482Y-115390812D01*
X125274180Y-115354502D01*
X125384494Y-115295537D01*
X125481185Y-115216185D01*
X125560537Y-115119494D01*
X125619502Y-115009180D01*
X125655812Y-114889482D01*
X125668072Y-114765000D01*
X125665000Y-113000750D01*
X125506250Y-112842000D01*
X123107000Y-112842000D01*
X122853000Y-112842000D01*
X120453750Y-112842000D01*
X120295000Y-113000750D01*
X120291928Y-114765000D01*
X117223072Y-114765000D01*
X117223072Y-114485000D01*
X117210812Y-114360518D01*
X117192454Y-114300000D01*
X117210812Y-114239482D01*
X117223072Y-114115000D01*
X117223072Y-113215000D01*
X117210812Y-113090518D01*
X117192454Y-113030000D01*
X117210812Y-112969482D01*
X117223072Y-112845000D01*
X117223072Y-111945000D01*
X117210812Y-111820518D01*
X117192454Y-111760000D01*
X117210812Y-111699482D01*
X117223072Y-111575000D01*
X117223072Y-110675000D01*
X117222088Y-110665000D01*
X120291928Y-110665000D01*
X120295000Y-112429250D01*
X120453750Y-112588000D01*
X122853000Y-112588000D01*
X122853000Y-110188750D01*
X123107000Y-110188750D01*
X123107000Y-112588000D01*
X125506250Y-112588000D01*
X125665000Y-112429250D01*
X125668072Y-110665000D01*
X125655812Y-110540518D01*
X125619502Y-110420820D01*
X125560537Y-110310506D01*
X125481185Y-110213815D01*
X125384494Y-110134463D01*
X125274180Y-110075498D01*
X125154482Y-110039188D01*
X125030000Y-110026928D01*
X123265750Y-110030000D01*
X123107000Y-110188750D01*
X122853000Y-110188750D01*
X122694250Y-110030000D01*
X120930000Y-110026928D01*
X120805518Y-110039188D01*
X120685820Y-110075498D01*
X120575506Y-110134463D01*
X120478815Y-110213815D01*
X120399463Y-110310506D01*
X120340498Y-110420820D01*
X120304188Y-110540518D01*
X120291928Y-110665000D01*
X117222088Y-110665000D01*
X117210812Y-110550518D01*
X117192454Y-110490000D01*
X117210812Y-110429482D01*
X117223072Y-110305000D01*
X117223072Y-109405000D01*
X117210812Y-109280518D01*
X117192454Y-109220000D01*
X117210812Y-109159482D01*
X117223072Y-109035000D01*
X117223072Y-108135000D01*
X117210812Y-108010518D01*
X117192454Y-107950000D01*
X117210812Y-107889482D01*
X117223072Y-107765000D01*
X117223072Y-106865000D01*
X117210812Y-106740518D01*
X117192454Y-106680000D01*
X117210812Y-106619482D01*
X117223072Y-106495000D01*
X117223072Y-105595000D01*
X117210812Y-105470518D01*
X117192454Y-105410000D01*
X117210812Y-105349482D01*
X117223072Y-105225000D01*
X117223072Y-104325000D01*
X117210812Y-104200518D01*
X117192454Y-104140000D01*
X117210812Y-104079482D01*
X117223072Y-103955000D01*
X117223072Y-103055000D01*
X117210812Y-102930518D01*
X117192454Y-102870000D01*
X117210812Y-102809482D01*
X117223072Y-102685000D01*
X117220000Y-102520750D01*
X117061250Y-102362000D01*
X115962000Y-102362000D01*
X115962000Y-102382000D01*
X115708000Y-102382000D01*
X115708000Y-102362000D01*
X115688000Y-102362000D01*
X115688000Y-102108000D01*
X115708000Y-102108000D01*
X115708000Y-102088000D01*
X115962000Y-102088000D01*
X115962000Y-102108000D01*
X117061250Y-102108000D01*
X117122668Y-102046582D01*
X117197981Y-102054000D01*
X117197983Y-102054000D01*
X117238999Y-102058040D01*
X117280015Y-102054000D01*
X120989982Y-102054000D01*
X121031000Y-102058040D01*
X121072018Y-102054000D01*
X121072019Y-102054000D01*
X121194689Y-102041918D01*
X121352087Y-101994172D01*
X121497146Y-101916636D01*
X121624291Y-101812291D01*
X121650446Y-101780421D01*
X126013928Y-97416940D01*
X126045791Y-97390791D01*
X126150136Y-97263646D01*
X126227672Y-97118587D01*
X126275418Y-96961189D01*
X126287500Y-96838519D01*
X126287500Y-96838509D01*
X126291539Y-96797501D01*
X126287500Y-96756493D01*
X126287500Y-94468479D01*
X126342962Y-94422962D01*
X126365000Y-94396109D01*
X126387038Y-94422962D01*
X126521613Y-94533405D01*
X126675149Y-94615472D01*
X126841745Y-94666008D01*
X127014999Y-94683072D01*
X127540001Y-94683072D01*
X127713255Y-94666008D01*
X127879851Y-94615472D01*
X128033387Y-94533405D01*
X128167962Y-94422962D01*
X128278405Y-94288387D01*
X128360472Y-94134851D01*
X128411008Y-93968255D01*
X128428072Y-93795001D01*
X128428072Y-92894999D01*
X128411008Y-92721745D01*
X128360472Y-92555149D01*
X128278405Y-92401613D01*
X128167962Y-92267038D01*
X128150000Y-92252297D01*
X128150000Y-92084468D01*
X128166185Y-92071185D01*
X128245537Y-91974494D01*
X128304502Y-91864180D01*
X128340812Y-91744482D01*
X128353072Y-91620000D01*
X128353072Y-91502595D01*
X129188282Y-91502595D01*
X129232039Y-91821675D01*
X129337205Y-92126088D01*
X129430186Y-92300044D01*
X129694587Y-92395808D01*
X130650395Y-91440000D01*
X129694587Y-90484192D01*
X129430186Y-90579956D01*
X129289296Y-90869571D01*
X129207616Y-91181108D01*
X129188282Y-91502595D01*
X128353072Y-91502595D01*
X128353072Y-90720000D01*
X128340812Y-90595518D01*
X128304502Y-90475820D01*
X128245537Y-90365506D01*
X128195543Y-90304587D01*
X129874192Y-90304587D01*
X130830000Y-91260395D01*
X131785808Y-90304587D01*
X131690044Y-90040186D01*
X131400429Y-89899296D01*
X131088892Y-89817616D01*
X130767405Y-89798282D01*
X130448325Y-89842039D01*
X130143912Y-89947205D01*
X129969956Y-90040186D01*
X129874192Y-90304587D01*
X128195543Y-90304587D01*
X128166185Y-90268815D01*
X128069494Y-90189463D01*
X127959180Y-90130498D01*
X127839482Y-90094188D01*
X127715000Y-90081928D01*
X127203095Y-90081928D01*
X127216185Y-90071185D01*
X127295537Y-89974494D01*
X127354502Y-89864180D01*
X127390812Y-89744482D01*
X127403072Y-89620000D01*
X127403072Y-88720000D01*
X127390812Y-88595518D01*
X127354502Y-88475820D01*
X127295537Y-88365506D01*
X127216185Y-88268815D01*
X127200000Y-88255532D01*
X127200000Y-87888738D01*
X127470998Y-87707663D01*
X127712663Y-87465998D01*
X127902537Y-87181831D01*
X128033325Y-86866081D01*
X128100000Y-86530883D01*
X128100000Y-86189117D01*
X128033325Y-85853919D01*
X127902537Y-85538169D01*
X127712663Y-85254002D01*
X127470998Y-85012337D01*
X127186831Y-84822463D01*
X126871081Y-84691675D01*
X126535883Y-84625000D01*
X126194117Y-84625000D01*
X125858919Y-84691675D01*
X125543169Y-84822463D01*
X125259002Y-85012337D01*
X125017337Y-85254002D01*
X124827463Y-85538169D01*
X124696675Y-85853919D01*
X124630000Y-86189117D01*
X124630000Y-86530883D01*
X124696675Y-86866081D01*
X124827463Y-87181831D01*
X125017337Y-87465998D01*
X125259002Y-87707663D01*
X125530001Y-87888738D01*
X125530001Y-88255532D01*
X125513815Y-88268815D01*
X125434463Y-88365506D01*
X125375498Y-88475820D01*
X125339188Y-88595518D01*
X125326928Y-88720000D01*
X125326928Y-89027204D01*
X124869134Y-89484999D01*
X122047000Y-89484999D01*
X122047000Y-88503278D01*
X122055794Y-88461906D01*
X122056756Y-88452750D01*
X122056757Y-88452745D01*
X122056757Y-88452741D01*
X122068850Y-88329403D01*
X122068850Y-88329402D01*
X122072000Y-88297419D01*
X122072000Y-81882581D01*
X122069242Y-81854581D01*
X122069269Y-81850745D01*
X122068369Y-81841574D01*
X122055414Y-81718323D01*
X122047000Y-81677334D01*
X122047000Y-80645000D01*
X122044560Y-80620224D01*
X122037333Y-80596399D01*
X122025597Y-80574443D01*
X122009803Y-80555197D01*
X121990557Y-80539403D01*
X121968601Y-80527667D01*
X121944776Y-80520440D01*
X121920000Y-80518000D01*
X117701346Y-80518000D01*
X117768363Y-80450983D01*
X117919360Y-80225000D01*
X120244249Y-80225000D01*
X120300000Y-80230491D01*
X120355751Y-80225000D01*
X120355752Y-80225000D01*
X120522499Y-80208577D01*
X120736447Y-80143676D01*
X120933623Y-80038284D01*
X121106449Y-79896449D01*
X121141996Y-79853136D01*
X122795921Y-78199212D01*
X122958989Y-78166775D01*
X123211043Y-78062371D01*
X123437886Y-77910799D01*
X123630799Y-77717886D01*
X123782371Y-77491043D01*
X123847006Y-77335000D01*
X124630375Y-77335000D01*
X124639188Y-77424482D01*
G37*
%TD.AperFunction*%
D37*
X107770000Y-114014250D02*
X107928750Y-114173000D01*
X108778000Y-114173000D01*
X108778000Y-114153000D01*
X109032000Y-114153000D01*
X109032000Y-114173000D01*
X109052000Y-114173000D01*
X109052000Y-114427000D01*
X109032000Y-114427000D01*
X109032000Y-115501250D01*
X109190750Y-115660000D01*
X109202082Y-115660162D01*
X109168992Y-115769245D01*
X109151928Y-115942499D01*
X109151928Y-116467501D01*
X109168992Y-116640755D01*
X109219528Y-116807351D01*
X109301595Y-116960887D01*
X109350108Y-117020000D01*
X108714608Y-117020000D01*
X108665000Y-117015114D01*
X108467005Y-117034615D01*
X108276620Y-117092368D01*
X108158155Y-117155688D01*
X108168072Y-117055000D01*
X108168072Y-115616702D01*
X108280518Y-115650812D01*
X108405000Y-115663072D01*
X108619250Y-115660000D01*
X108778000Y-115501250D01*
X108778000Y-114427000D01*
X107928750Y-114427000D01*
X107770000Y-114585750D01*
X107768754Y-114763852D01*
X107654482Y-114729188D01*
X107530000Y-114716928D01*
X107515000Y-114716928D01*
X107515000Y-114010867D01*
X107768205Y-113757662D01*
X107770000Y-114014250D01*
%TA.AperFunction,Conductor*%
D38*
G36*
X107770000Y-114014250D02*
G01*
X107928750Y-114173000D01*
X108778000Y-114173000D01*
X108778000Y-114153000D01*
X109032000Y-114153000D01*
X109032000Y-114173000D01*
X109052000Y-114173000D01*
X109052000Y-114427000D01*
X109032000Y-114427000D01*
X109032000Y-115501250D01*
X109190750Y-115660000D01*
X109202082Y-115660162D01*
X109168992Y-115769245D01*
X109151928Y-115942499D01*
X109151928Y-116467501D01*
X109168992Y-116640755D01*
X109219528Y-116807351D01*
X109301595Y-116960887D01*
X109350108Y-117020000D01*
X108714608Y-117020000D01*
X108665000Y-117015114D01*
X108467005Y-117034615D01*
X108276620Y-117092368D01*
X108158155Y-117155688D01*
X108168072Y-117055000D01*
X108168072Y-115616702D01*
X108280518Y-115650812D01*
X108405000Y-115663072D01*
X108619250Y-115660000D01*
X108778000Y-115501250D01*
X108778000Y-114427000D01*
X107928750Y-114427000D01*
X107770000Y-114585750D01*
X107768754Y-114763852D01*
X107654482Y-114729188D01*
X107530000Y-114716928D01*
X107515000Y-114716928D01*
X107515000Y-114010867D01*
X107768205Y-113757662D01*
X107770000Y-114014250D01*
G37*
%TD.AperFunction*%
D37*
X143310000Y-109490868D02*
X143310001Y-110836531D01*
X143102748Y-110975013D01*
X142875013Y-111202748D01*
X142696082Y-111470537D01*
X142572832Y-111768088D01*
X142510000Y-112083967D01*
X142510000Y-112406033D01*
X142572832Y-112721912D01*
X142640044Y-112884177D01*
X141609445Y-111853578D01*
X141583290Y-111821708D01*
X141456145Y-111717363D01*
X141311086Y-111639827D01*
X141153688Y-111592081D01*
X141031018Y-111579999D01*
X141031017Y-111579999D01*
X140989999Y-111575959D01*
X140948981Y-111579999D01*
X140476718Y-111579999D01*
X140506476Y-111481890D01*
X140385155Y-111252000D01*
X139192000Y-111252000D01*
X139192000Y-111272000D01*
X138938000Y-111272000D01*
X138938000Y-111252000D01*
X137744845Y-111252000D01*
X137623524Y-111481890D01*
X137653282Y-111579999D01*
X137208507Y-111579999D01*
X137167499Y-111575960D01*
X137126491Y-111579999D01*
X137126481Y-111579999D01*
X137003811Y-111592081D01*
X136846413Y-111639827D01*
X136701354Y-111717363D01*
X136574209Y-111821708D01*
X136548058Y-111853573D01*
X135571632Y-112830000D01*
X134473072Y-112830000D01*
X134473072Y-111960000D01*
X134680480Y-111960000D01*
X134721498Y-111964040D01*
X134762516Y-111960000D01*
X134762517Y-111960000D01*
X134885187Y-111947918D01*
X135042585Y-111900172D01*
X135187644Y-111822636D01*
X135314789Y-111718291D01*
X135340944Y-111686421D01*
X136259255Y-110768110D01*
X137623524Y-110768110D01*
X137744845Y-110998000D01*
X138938000Y-110998000D01*
X138938000Y-109804186D01*
X139192000Y-109804186D01*
X139192000Y-110998000D01*
X140385155Y-110998000D01*
X140506476Y-110768110D01*
X140461825Y-110620901D01*
X140336641Y-110358080D01*
X140162588Y-110124731D01*
X139946355Y-109929822D01*
X139696252Y-109780843D01*
X139421891Y-109683519D01*
X139192000Y-109804186D01*
X138938000Y-109804186D01*
X138708109Y-109683519D01*
X138433748Y-109780843D01*
X138183645Y-109929822D01*
X137967412Y-110124731D01*
X137793359Y-110358080D01*
X137668175Y-110620901D01*
X137623524Y-110768110D01*
X136259255Y-110768110D01*
X140147367Y-106880000D01*
X140699133Y-106880000D01*
X143310000Y-109490868D01*
%TA.AperFunction,Conductor*%
D38*
G36*
X143310000Y-109490868D02*
G01*
X143310001Y-110836531D01*
X143102748Y-110975013D01*
X142875013Y-111202748D01*
X142696082Y-111470537D01*
X142572832Y-111768088D01*
X142510000Y-112083967D01*
X142510000Y-112406033D01*
X142572832Y-112721912D01*
X142640044Y-112884177D01*
X141609445Y-111853578D01*
X141583290Y-111821708D01*
X141456145Y-111717363D01*
X141311086Y-111639827D01*
X141153688Y-111592081D01*
X141031018Y-111579999D01*
X141031017Y-111579999D01*
X140989999Y-111575959D01*
X140948981Y-111579999D01*
X140476718Y-111579999D01*
X140506476Y-111481890D01*
X140385155Y-111252000D01*
X139192000Y-111252000D01*
X139192000Y-111272000D01*
X138938000Y-111272000D01*
X138938000Y-111252000D01*
X137744845Y-111252000D01*
X137623524Y-111481890D01*
X137653282Y-111579999D01*
X137208507Y-111579999D01*
X137167499Y-111575960D01*
X137126491Y-111579999D01*
X137126481Y-111579999D01*
X137003811Y-111592081D01*
X136846413Y-111639827D01*
X136701354Y-111717363D01*
X136574209Y-111821708D01*
X136548058Y-111853573D01*
X135571632Y-112830000D01*
X134473072Y-112830000D01*
X134473072Y-111960000D01*
X134680480Y-111960000D01*
X134721498Y-111964040D01*
X134762516Y-111960000D01*
X134762517Y-111960000D01*
X134885187Y-111947918D01*
X135042585Y-111900172D01*
X135187644Y-111822636D01*
X135314789Y-111718291D01*
X135340944Y-111686421D01*
X136259255Y-110768110D01*
X137623524Y-110768110D01*
X137744845Y-110998000D01*
X138938000Y-110998000D01*
X138938000Y-109804186D01*
X139192000Y-109804186D01*
X139192000Y-110998000D01*
X140385155Y-110998000D01*
X140506476Y-110768110D01*
X140461825Y-110620901D01*
X140336641Y-110358080D01*
X140162588Y-110124731D01*
X139946355Y-109929822D01*
X139696252Y-109780843D01*
X139421891Y-109683519D01*
X139192000Y-109804186D01*
X138938000Y-109804186D01*
X138708109Y-109683519D01*
X138433748Y-109780843D01*
X138183645Y-109929822D01*
X137967412Y-110124731D01*
X137793359Y-110358080D01*
X137668175Y-110620901D01*
X137623524Y-110768110D01*
X136259255Y-110768110D01*
X140147367Y-106880000D01*
X140699133Y-106880000D01*
X143310000Y-109490868D01*
G37*
%TD.AperFunction*%
D37*
X150295001Y-85649411D02*
X150295001Y-88318790D01*
X150274537Y-88280506D01*
X150195185Y-88183815D01*
X150098494Y-88104463D01*
X149988180Y-88045498D01*
X149868482Y-88009188D01*
X149744000Y-87996928D01*
X147944000Y-87996928D01*
X147819518Y-88009188D01*
X147699820Y-88045498D01*
X147589506Y-88104463D01*
X147492815Y-88183815D01*
X147413463Y-88280506D01*
X147354498Y-88390820D01*
X147351187Y-88401735D01*
X147304422Y-88354970D01*
X147188474Y-88470918D01*
X147104792Y-88216739D01*
X146832225Y-88085842D01*
X146539358Y-88010635D01*
X146237447Y-87994009D01*
X145938093Y-88036603D01*
X145652801Y-88136778D01*
X145503208Y-88216739D01*
X145419525Y-88470920D01*
X146304000Y-89355395D01*
X146318143Y-89341253D01*
X146497748Y-89520858D01*
X146483605Y-89535000D01*
X146497748Y-89549143D01*
X146318143Y-89728748D01*
X146304000Y-89714605D01*
X145419525Y-90599080D01*
X145503208Y-90853261D01*
X145775775Y-90984158D01*
X146068642Y-91059365D01*
X146370553Y-91075991D01*
X146669907Y-91033397D01*
X146955199Y-90933222D01*
X147104792Y-90853261D01*
X147188474Y-90599082D01*
X147304422Y-90715030D01*
X147351187Y-90668265D01*
X147354498Y-90679180D01*
X147413463Y-90789494D01*
X147492815Y-90886185D01*
X147589506Y-90965537D01*
X147699820Y-91024502D01*
X147819518Y-91060812D01*
X147944000Y-91073072D01*
X148009001Y-91073072D01*
X148009001Y-91294830D01*
X147966745Y-91298992D01*
X147800149Y-91349528D01*
X147646613Y-91431595D01*
X147512038Y-91542038D01*
X147401595Y-91676613D01*
X147319528Y-91830149D01*
X147268992Y-91996745D01*
X147251928Y-92169999D01*
X147251928Y-92695001D01*
X147268992Y-92868255D01*
X147319528Y-93034851D01*
X147401595Y-93188387D01*
X147512038Y-93322962D01*
X147538891Y-93345000D01*
X147512038Y-93367038D01*
X147466521Y-93422500D01*
X147401505Y-93422500D01*
X147360497Y-93418461D01*
X147319489Y-93422500D01*
X147319479Y-93422500D01*
X147196809Y-93434582D01*
X147039411Y-93482328D01*
X146894352Y-93559864D01*
X146767207Y-93664209D01*
X146741057Y-93696073D01*
X142183573Y-98253558D01*
X142151709Y-98279708D01*
X142091766Y-98352749D01*
X142047363Y-98406854D01*
X141969827Y-98551913D01*
X141922081Y-98709311D01*
X141905959Y-98872999D01*
X141910000Y-98914027D01*
X141909999Y-101058546D01*
X135218546Y-107750000D01*
X134473072Y-107750000D01*
X134473072Y-106865000D01*
X134460812Y-106740518D01*
X134442454Y-106680000D01*
X134460812Y-106619482D01*
X134473072Y-106495000D01*
X134473072Y-105595000D01*
X134460812Y-105470518D01*
X134459400Y-105465862D01*
X134578291Y-105368291D01*
X134604446Y-105336421D01*
X134763804Y-105177063D01*
X134840292Y-105114291D01*
X134866447Y-105082421D01*
X135054422Y-104894446D01*
X135086291Y-104868292D01*
X135190636Y-104741147D01*
X135268172Y-104596088D01*
X135315918Y-104438690D01*
X135328000Y-104316020D01*
X135328000Y-104316019D01*
X135332040Y-104275002D01*
X135328000Y-104233983D01*
X135328000Y-104032865D01*
X135835314Y-103525552D01*
X135888359Y-103636920D01*
X136062412Y-103870269D01*
X136278645Y-104065178D01*
X136528748Y-104214157D01*
X136803109Y-104311481D01*
X137033000Y-104190814D01*
X137033000Y-102997000D01*
X137287000Y-102997000D01*
X137287000Y-104190814D01*
X137516891Y-104311481D01*
X137791252Y-104214157D01*
X138041355Y-104065178D01*
X138257588Y-103870269D01*
X138431641Y-103636920D01*
X138556825Y-103374099D01*
X138601476Y-103226890D01*
X138480155Y-102997000D01*
X137287000Y-102997000D01*
X137033000Y-102997000D01*
X137013000Y-102997000D01*
X137013000Y-102743000D01*
X137033000Y-102743000D01*
X137033000Y-102723000D01*
X137287000Y-102723000D01*
X137287000Y-102743000D01*
X138480155Y-102743000D01*
X138601476Y-102513110D01*
X138561788Y-102382262D01*
X138651088Y-102355173D01*
X138796147Y-102277637D01*
X138923292Y-102173292D01*
X138949447Y-102141422D01*
X140261428Y-100829442D01*
X140293291Y-100803293D01*
X140397636Y-100676148D01*
X140475172Y-100531089D01*
X140522918Y-100373691D01*
X140526053Y-100341857D01*
X140539040Y-100210003D01*
X140535000Y-100168984D01*
X140535000Y-98135867D01*
X143262796Y-95408072D01*
X143960001Y-95408072D01*
X144133255Y-95391008D01*
X144299851Y-95340472D01*
X144453387Y-95258405D01*
X144587962Y-95147962D01*
X144698405Y-95013387D01*
X144780472Y-94859851D01*
X144831008Y-94693255D01*
X144848072Y-94520001D01*
X144848072Y-93994999D01*
X144831008Y-93821745D01*
X144780472Y-93655149D01*
X144698405Y-93501613D01*
X144587962Y-93367038D01*
X144561109Y-93345000D01*
X144587962Y-93322962D01*
X144698405Y-93188387D01*
X144780472Y-93034851D01*
X144831008Y-92868255D01*
X144848072Y-92695001D01*
X144848072Y-92169999D01*
X144831008Y-91996745D01*
X144780472Y-91830149D01*
X144698405Y-91676613D01*
X144599000Y-91555488D01*
X144599000Y-90823199D01*
X144742505Y-90727312D01*
X144956312Y-90513505D01*
X145058951Y-90359895D01*
X145239920Y-90419475D01*
X146124395Y-89535000D01*
X145239920Y-88650525D01*
X145058951Y-88710105D01*
X144956312Y-88556495D01*
X144742505Y-88342688D01*
X144491095Y-88174701D01*
X144211743Y-88058989D01*
X143915184Y-88000000D01*
X143612816Y-88000000D01*
X143316257Y-88058989D01*
X143036905Y-88174701D01*
X142785495Y-88342688D01*
X142571688Y-88556495D01*
X142403701Y-88807905D01*
X142287989Y-89087257D01*
X142229000Y-89383816D01*
X142229000Y-89686184D01*
X142287989Y-89982743D01*
X142403701Y-90262095D01*
X142571688Y-90513505D01*
X142785495Y-90727312D01*
X142929000Y-90823199D01*
X142929001Y-91294830D01*
X142886745Y-91298992D01*
X142720149Y-91349528D01*
X142566613Y-91431595D01*
X142432038Y-91542038D01*
X142321595Y-91676613D01*
X142239528Y-91830149D01*
X142188992Y-91996745D01*
X142171928Y-92169999D01*
X142171928Y-92695001D01*
X142188992Y-92868255D01*
X142239528Y-93034851D01*
X142321595Y-93188387D01*
X142432038Y-93322962D01*
X142458891Y-93345000D01*
X142432038Y-93367038D01*
X142321595Y-93501613D01*
X142239528Y-93655149D01*
X142188992Y-93821745D01*
X142171928Y-93994999D01*
X142171928Y-94137204D01*
X139138574Y-97170559D01*
X139106710Y-97196709D01*
X139038812Y-97279443D01*
X139002364Y-97323855D01*
X138924828Y-97468914D01*
X138877082Y-97626312D01*
X138860960Y-97790000D01*
X138865001Y-97831028D01*
X138865000Y-99864134D01*
X138648072Y-100081062D01*
X138648072Y-99480000D01*
X138635812Y-99355518D01*
X138599502Y-99235820D01*
X138540537Y-99125506D01*
X138461185Y-99028815D01*
X138364494Y-98949463D01*
X138254180Y-98890498D01*
X138134482Y-98854188D01*
X138010000Y-98841928D01*
X137317881Y-98841928D01*
X137329051Y-98728520D01*
X137325011Y-98687502D01*
X137325011Y-93067732D01*
X137430000Y-93078072D01*
X139430000Y-93078072D01*
X139554482Y-93065812D01*
X139674180Y-93029502D01*
X139784494Y-92970537D01*
X139881185Y-92891185D01*
X139960537Y-92794494D01*
X140019502Y-92684180D01*
X140055812Y-92564482D01*
X140068072Y-92440000D01*
X140068072Y-90440000D01*
X140055812Y-90315518D01*
X140019502Y-90195820D01*
X139960537Y-90085506D01*
X139881185Y-89988815D01*
X139784494Y-89909463D01*
X139756414Y-89894453D01*
X144995868Y-84655000D01*
X149300591Y-84655000D01*
X150295001Y-85649411D01*
%TA.AperFunction,Conductor*%
D38*
G36*
X150295001Y-85649411D02*
G01*
X150295001Y-88318790D01*
X150274537Y-88280506D01*
X150195185Y-88183815D01*
X150098494Y-88104463D01*
X149988180Y-88045498D01*
X149868482Y-88009188D01*
X149744000Y-87996928D01*
X147944000Y-87996928D01*
X147819518Y-88009188D01*
X147699820Y-88045498D01*
X147589506Y-88104463D01*
X147492815Y-88183815D01*
X147413463Y-88280506D01*
X147354498Y-88390820D01*
X147351187Y-88401735D01*
X147304422Y-88354970D01*
X147188474Y-88470918D01*
X147104792Y-88216739D01*
X146832225Y-88085842D01*
X146539358Y-88010635D01*
X146237447Y-87994009D01*
X145938093Y-88036603D01*
X145652801Y-88136778D01*
X145503208Y-88216739D01*
X145419525Y-88470920D01*
X146304000Y-89355395D01*
X146318143Y-89341253D01*
X146497748Y-89520858D01*
X146483605Y-89535000D01*
X146497748Y-89549143D01*
X146318143Y-89728748D01*
X146304000Y-89714605D01*
X145419525Y-90599080D01*
X145503208Y-90853261D01*
X145775775Y-90984158D01*
X146068642Y-91059365D01*
X146370553Y-91075991D01*
X146669907Y-91033397D01*
X146955199Y-90933222D01*
X147104792Y-90853261D01*
X147188474Y-90599082D01*
X147304422Y-90715030D01*
X147351187Y-90668265D01*
X147354498Y-90679180D01*
X147413463Y-90789494D01*
X147492815Y-90886185D01*
X147589506Y-90965537D01*
X147699820Y-91024502D01*
X147819518Y-91060812D01*
X147944000Y-91073072D01*
X148009001Y-91073072D01*
X148009001Y-91294830D01*
X147966745Y-91298992D01*
X147800149Y-91349528D01*
X147646613Y-91431595D01*
X147512038Y-91542038D01*
X147401595Y-91676613D01*
X147319528Y-91830149D01*
X147268992Y-91996745D01*
X147251928Y-92169999D01*
X147251928Y-92695001D01*
X147268992Y-92868255D01*
X147319528Y-93034851D01*
X147401595Y-93188387D01*
X147512038Y-93322962D01*
X147538891Y-93345000D01*
X147512038Y-93367038D01*
X147466521Y-93422500D01*
X147401505Y-93422500D01*
X147360497Y-93418461D01*
X147319489Y-93422500D01*
X147319479Y-93422500D01*
X147196809Y-93434582D01*
X147039411Y-93482328D01*
X146894352Y-93559864D01*
X146767207Y-93664209D01*
X146741057Y-93696073D01*
X142183573Y-98253558D01*
X142151709Y-98279708D01*
X142091766Y-98352749D01*
X142047363Y-98406854D01*
X141969827Y-98551913D01*
X141922081Y-98709311D01*
X141905959Y-98872999D01*
X141910000Y-98914027D01*
X141909999Y-101058546D01*
X135218546Y-107750000D01*
X134473072Y-107750000D01*
X134473072Y-106865000D01*
X134460812Y-106740518D01*
X134442454Y-106680000D01*
X134460812Y-106619482D01*
X134473072Y-106495000D01*
X134473072Y-105595000D01*
X134460812Y-105470518D01*
X134459400Y-105465862D01*
X134578291Y-105368291D01*
X134604446Y-105336421D01*
X134763804Y-105177063D01*
X134840292Y-105114291D01*
X134866447Y-105082421D01*
X135054422Y-104894446D01*
X135086291Y-104868292D01*
X135190636Y-104741147D01*
X135268172Y-104596088D01*
X135315918Y-104438690D01*
X135328000Y-104316020D01*
X135328000Y-104316019D01*
X135332040Y-104275002D01*
X135328000Y-104233983D01*
X135328000Y-104032865D01*
X135835314Y-103525552D01*
X135888359Y-103636920D01*
X136062412Y-103870269D01*
X136278645Y-104065178D01*
X136528748Y-104214157D01*
X136803109Y-104311481D01*
X137033000Y-104190814D01*
X137033000Y-102997000D01*
X137287000Y-102997000D01*
X137287000Y-104190814D01*
X137516891Y-104311481D01*
X137791252Y-104214157D01*
X138041355Y-104065178D01*
X138257588Y-103870269D01*
X138431641Y-103636920D01*
X138556825Y-103374099D01*
X138601476Y-103226890D01*
X138480155Y-102997000D01*
X137287000Y-102997000D01*
X137033000Y-102997000D01*
X137013000Y-102997000D01*
X137013000Y-102743000D01*
X137033000Y-102743000D01*
X137033000Y-102723000D01*
X137287000Y-102723000D01*
X137287000Y-102743000D01*
X138480155Y-102743000D01*
X138601476Y-102513110D01*
X138561788Y-102382262D01*
X138651088Y-102355173D01*
X138796147Y-102277637D01*
X138923292Y-102173292D01*
X138949447Y-102141422D01*
X140261428Y-100829442D01*
X140293291Y-100803293D01*
X140397636Y-100676148D01*
X140475172Y-100531089D01*
X140522918Y-100373691D01*
X140526053Y-100341857D01*
X140539040Y-100210003D01*
X140535000Y-100168984D01*
X140535000Y-98135867D01*
X143262796Y-95408072D01*
X143960001Y-95408072D01*
X144133255Y-95391008D01*
X144299851Y-95340472D01*
X144453387Y-95258405D01*
X144587962Y-95147962D01*
X144698405Y-95013387D01*
X144780472Y-94859851D01*
X144831008Y-94693255D01*
X144848072Y-94520001D01*
X144848072Y-93994999D01*
X144831008Y-93821745D01*
X144780472Y-93655149D01*
X144698405Y-93501613D01*
X144587962Y-93367038D01*
X144561109Y-93345000D01*
X144587962Y-93322962D01*
X144698405Y-93188387D01*
X144780472Y-93034851D01*
X144831008Y-92868255D01*
X144848072Y-92695001D01*
X144848072Y-92169999D01*
X144831008Y-91996745D01*
X144780472Y-91830149D01*
X144698405Y-91676613D01*
X144599000Y-91555488D01*
X144599000Y-90823199D01*
X144742505Y-90727312D01*
X144956312Y-90513505D01*
X145058951Y-90359895D01*
X145239920Y-90419475D01*
X146124395Y-89535000D01*
X145239920Y-88650525D01*
X145058951Y-88710105D01*
X144956312Y-88556495D01*
X144742505Y-88342688D01*
X144491095Y-88174701D01*
X144211743Y-88058989D01*
X143915184Y-88000000D01*
X143612816Y-88000000D01*
X143316257Y-88058989D01*
X143036905Y-88174701D01*
X142785495Y-88342688D01*
X142571688Y-88556495D01*
X142403701Y-88807905D01*
X142287989Y-89087257D01*
X142229000Y-89383816D01*
X142229000Y-89686184D01*
X142287989Y-89982743D01*
X142403701Y-90262095D01*
X142571688Y-90513505D01*
X142785495Y-90727312D01*
X142929000Y-90823199D01*
X142929001Y-91294830D01*
X142886745Y-91298992D01*
X142720149Y-91349528D01*
X142566613Y-91431595D01*
X142432038Y-91542038D01*
X142321595Y-91676613D01*
X142239528Y-91830149D01*
X142188992Y-91996745D01*
X142171928Y-92169999D01*
X142171928Y-92695001D01*
X142188992Y-92868255D01*
X142239528Y-93034851D01*
X142321595Y-93188387D01*
X142432038Y-93322962D01*
X142458891Y-93345000D01*
X142432038Y-93367038D01*
X142321595Y-93501613D01*
X142239528Y-93655149D01*
X142188992Y-93821745D01*
X142171928Y-93994999D01*
X142171928Y-94137204D01*
X139138574Y-97170559D01*
X139106710Y-97196709D01*
X139038812Y-97279443D01*
X139002364Y-97323855D01*
X138924828Y-97468914D01*
X138877082Y-97626312D01*
X138860960Y-97790000D01*
X138865001Y-97831028D01*
X138865000Y-99864134D01*
X138648072Y-100081062D01*
X138648072Y-99480000D01*
X138635812Y-99355518D01*
X138599502Y-99235820D01*
X138540537Y-99125506D01*
X138461185Y-99028815D01*
X138364494Y-98949463D01*
X138254180Y-98890498D01*
X138134482Y-98854188D01*
X138010000Y-98841928D01*
X137317881Y-98841928D01*
X137329051Y-98728520D01*
X137325011Y-98687502D01*
X137325011Y-93067732D01*
X137430000Y-93078072D01*
X139430000Y-93078072D01*
X139554482Y-93065812D01*
X139674180Y-93029502D01*
X139784494Y-92970537D01*
X139881185Y-92891185D01*
X139960537Y-92794494D01*
X140019502Y-92684180D01*
X140055812Y-92564482D01*
X140068072Y-92440000D01*
X140068072Y-90440000D01*
X140055812Y-90315518D01*
X140019502Y-90195820D01*
X139960537Y-90085506D01*
X139881185Y-89988815D01*
X139784494Y-89909463D01*
X139756414Y-89894453D01*
X144995868Y-84655000D01*
X149300591Y-84655000D01*
X150295001Y-85649411D01*
G37*
%TD.AperFunction*%
D37*
X113799999Y-101524044D02*
X113787444Y-101565433D01*
X113770840Y-101734022D01*
X113775001Y-101776270D01*
X113775000Y-103462753D01*
X113770839Y-103505000D01*
X113787444Y-103673589D01*
X113836619Y-103835700D01*
X113916476Y-103985102D01*
X114009368Y-104098291D01*
X114023946Y-104116054D01*
X114154898Y-104223524D01*
X114304300Y-104303381D01*
X114435846Y-104343284D01*
X113696131Y-105083000D01*
X112857444Y-105083000D01*
X112885812Y-104989482D01*
X112898072Y-104865000D01*
X112895000Y-104425750D01*
X112736250Y-104267000D01*
X111887000Y-104267000D01*
X111887000Y-104287000D01*
X111633000Y-104287000D01*
X111633000Y-104267000D01*
X111613000Y-104267000D01*
X111613000Y-104013000D01*
X111633000Y-104013000D01*
X111633000Y-103993000D01*
X111887000Y-103993000D01*
X111887000Y-104013000D01*
X112736250Y-104013000D01*
X112895000Y-103854250D01*
X112898072Y-103415000D01*
X112885812Y-103290518D01*
X112849502Y-103170820D01*
X112822593Y-103120477D01*
X112952788Y-102925626D01*
X113057192Y-102673572D01*
X113110417Y-102405994D01*
X113110417Y-102133172D01*
X113057192Y-101865594D01*
X112952788Y-101613540D01*
X112801216Y-101386697D01*
X112608303Y-101193784D01*
X112381460Y-101042212D01*
X112370332Y-101037603D01*
X112487977Y-100941054D01*
X112514911Y-100908235D01*
X112773147Y-100649999D01*
X113800000Y-100649999D01*
X113799999Y-101524044D01*
%TA.AperFunction,Conductor*%
D38*
G36*
X113799999Y-101524044D02*
G01*
X113787444Y-101565433D01*
X113770840Y-101734022D01*
X113775001Y-101776270D01*
X113775000Y-103462753D01*
X113770839Y-103505000D01*
X113787444Y-103673589D01*
X113836619Y-103835700D01*
X113916476Y-103985102D01*
X114009368Y-104098291D01*
X114023946Y-104116054D01*
X114154898Y-104223524D01*
X114304300Y-104303381D01*
X114435846Y-104343284D01*
X113696131Y-105083000D01*
X112857444Y-105083000D01*
X112885812Y-104989482D01*
X112898072Y-104865000D01*
X112895000Y-104425750D01*
X112736250Y-104267000D01*
X111887000Y-104267000D01*
X111887000Y-104287000D01*
X111633000Y-104287000D01*
X111633000Y-104267000D01*
X111613000Y-104267000D01*
X111613000Y-104013000D01*
X111633000Y-104013000D01*
X111633000Y-103993000D01*
X111887000Y-103993000D01*
X111887000Y-104013000D01*
X112736250Y-104013000D01*
X112895000Y-103854250D01*
X112898072Y-103415000D01*
X112885812Y-103290518D01*
X112849502Y-103170820D01*
X112822593Y-103120477D01*
X112952788Y-102925626D01*
X113057192Y-102673572D01*
X113110417Y-102405994D01*
X113110417Y-102133172D01*
X113057192Y-101865594D01*
X112952788Y-101613540D01*
X112801216Y-101386697D01*
X112608303Y-101193784D01*
X112381460Y-101042212D01*
X112370332Y-101037603D01*
X112487977Y-100941054D01*
X112514911Y-100908235D01*
X112773147Y-100649999D01*
X113800000Y-100649999D01*
X113799999Y-101524044D01*
G37*
%TD.AperFunction*%
D37*
X126463815Y-90268815D02*
X126384463Y-90365506D01*
X126365000Y-90401918D01*
X126347218Y-90368650D01*
X126457796Y-90258072D01*
X126476905Y-90258072D01*
X126463815Y-90268815D01*
%TA.AperFunction,Conductor*%
D38*
G36*
X126463815Y-90268815D02*
G01*
X126384463Y-90365506D01*
X126365000Y-90401918D01*
X126347218Y-90368650D01*
X126457796Y-90258072D01*
X126476905Y-90258072D01*
X126463815Y-90268815D01*
G37*
%TD.AperFunction*%
D37*
X144099989Y-67596903D02*
X144066739Y-67563653D01*
X143952047Y-67678345D01*
X143796038Y-67362786D01*
X143421255Y-67171980D01*
X143016449Y-67057956D01*
X142597176Y-67025098D01*
X142179549Y-67074666D01*
X141779617Y-67204757D01*
X141483962Y-67362786D01*
X141327952Y-67678347D01*
X142640000Y-68990395D01*
X142654143Y-68976253D01*
X142833748Y-69155858D01*
X142819605Y-69170000D01*
X142833748Y-69184143D01*
X142654143Y-69363748D01*
X142640000Y-69349605D01*
X141327952Y-70661653D01*
X141483962Y-70977214D01*
X141858745Y-71168020D01*
X142263551Y-71282044D01*
X142682824Y-71314902D01*
X143100451Y-71265334D01*
X143500383Y-71135243D01*
X143796038Y-70977214D01*
X143952047Y-70661655D01*
X144066739Y-70776347D01*
X144099989Y-70743097D01*
X144099988Y-80944870D01*
X141202500Y-83842359D01*
X141202500Y-78528251D01*
X141207991Y-78472500D01*
X141186483Y-78254124D01*
X141261676Y-78113447D01*
X141326577Y-77899499D01*
X141343000Y-77732752D01*
X141343000Y-77732751D01*
X141348491Y-77677000D01*
X141343000Y-77621249D01*
X141343000Y-75724286D01*
X141435371Y-75586043D01*
X141539775Y-75333989D01*
X141593000Y-75066411D01*
X141593000Y-74793589D01*
X141539775Y-74526011D01*
X141435371Y-74273957D01*
X141283799Y-74047114D01*
X141090886Y-73854201D01*
X140864043Y-73702629D01*
X140611989Y-73598225D01*
X140344411Y-73545000D01*
X140071589Y-73545000D01*
X139804011Y-73598225D01*
X139551957Y-73702629D01*
X139325114Y-73854201D01*
X139132201Y-74047114D01*
X138980629Y-74273957D01*
X138876225Y-74526011D01*
X138838997Y-74713167D01*
X138829008Y-74611745D01*
X138778472Y-74445149D01*
X138696405Y-74291613D01*
X138585962Y-74157038D01*
X138451387Y-74046595D01*
X138297851Y-73964528D01*
X138131255Y-73913992D01*
X137958001Y-73896928D01*
X136107999Y-73896928D01*
X135934745Y-73913992D01*
X135768149Y-73964528D01*
X135614613Y-74046595D01*
X135480038Y-74157038D01*
X135369595Y-74291613D01*
X135287528Y-74445149D01*
X135236992Y-74611745D01*
X135219928Y-74784999D01*
X135219928Y-75610001D01*
X135236992Y-75783255D01*
X135287528Y-75949851D01*
X135322636Y-76015532D01*
X135285518Y-76019188D01*
X135165820Y-76055498D01*
X135055506Y-76114463D01*
X134958815Y-76193815D01*
X134879463Y-76290506D01*
X134820498Y-76400820D01*
X134784188Y-76520518D01*
X134771928Y-76645000D01*
X134771928Y-76655000D01*
X132489248Y-76655000D01*
X132322501Y-76671423D01*
X132108553Y-76736324D01*
X131921887Y-76836099D01*
X131890518Y-76839188D01*
X131770820Y-76875498D01*
X131660506Y-76934463D01*
X131563815Y-77013815D01*
X131484463Y-77110506D01*
X131445000Y-77184335D01*
X131405537Y-77110506D01*
X131326185Y-77013815D01*
X131229494Y-76934463D01*
X131119180Y-76875498D01*
X130999482Y-76839188D01*
X130875000Y-76826928D01*
X129815000Y-76826928D01*
X129690518Y-76839188D01*
X129570820Y-76875498D01*
X129515627Y-76905000D01*
X129287406Y-76905000D01*
X129284623Y-76902716D01*
X129258784Y-76888905D01*
X129087447Y-76797324D01*
X128873499Y-76732423D01*
X128706752Y-76716000D01*
X128706751Y-76716000D01*
X128651000Y-76710509D01*
X128595248Y-76716000D01*
X128486133Y-76716000D01*
X128103072Y-76332940D01*
X128103072Y-75100000D01*
X128090812Y-74975518D01*
X128054502Y-74855820D01*
X127995537Y-74745506D01*
X127916185Y-74648815D01*
X127819494Y-74569463D01*
X127738801Y-74526331D01*
X129480132Y-72785000D01*
X135219928Y-72785000D01*
X135232188Y-72909482D01*
X135268498Y-73029180D01*
X135327463Y-73139494D01*
X135406815Y-73236185D01*
X135503506Y-73315537D01*
X135613820Y-73374502D01*
X135733518Y-73410812D01*
X135858000Y-73423072D01*
X136747250Y-73420000D01*
X136906000Y-73261250D01*
X136906000Y-72249500D01*
X137160000Y-72249500D01*
X137160000Y-73261250D01*
X137318750Y-73420000D01*
X138208000Y-73423072D01*
X138332482Y-73410812D01*
X138452180Y-73374502D01*
X138562494Y-73315537D01*
X138659185Y-73236185D01*
X138738537Y-73139494D01*
X138797502Y-73029180D01*
X138833812Y-72909482D01*
X138846072Y-72785000D01*
X138843000Y-72408250D01*
X138684250Y-72249500D01*
X137160000Y-72249500D01*
X136906000Y-72249500D01*
X135381750Y-72249500D01*
X135223000Y-72408250D01*
X135219928Y-72785000D01*
X129480132Y-72785000D01*
X130805132Y-71460000D01*
X135219928Y-71460000D01*
X135223000Y-71836750D01*
X135381750Y-71995500D01*
X136906000Y-71995500D01*
X136906000Y-70983750D01*
X137160000Y-70983750D01*
X137160000Y-71995500D01*
X138684250Y-71995500D01*
X138843000Y-71836750D01*
X138846072Y-71460000D01*
X138833812Y-71335518D01*
X138797502Y-71215820D01*
X138738537Y-71105506D01*
X138659185Y-71008815D01*
X138562494Y-70929463D01*
X138452180Y-70870498D01*
X138332482Y-70834188D01*
X138208000Y-70821928D01*
X137318750Y-70825000D01*
X137160000Y-70983750D01*
X136906000Y-70983750D01*
X136747250Y-70825000D01*
X135858000Y-70821928D01*
X135733518Y-70834188D01*
X135613820Y-70870498D01*
X135503506Y-70929463D01*
X135406815Y-71008815D01*
X135327463Y-71105506D01*
X135268498Y-71215820D01*
X135232188Y-71335518D01*
X135219928Y-71460000D01*
X130805132Y-71460000D01*
X130938146Y-71326987D01*
X130981449Y-71291449D01*
X131037663Y-71222953D01*
X131123284Y-71118623D01*
X131194219Y-70985912D01*
X133894209Y-68285923D01*
X133891928Y-68445000D01*
X133904188Y-68569482D01*
X133940498Y-68689180D01*
X133999463Y-68799494D01*
X134078815Y-68896185D01*
X134175506Y-68975537D01*
X134285820Y-69034502D01*
X134405518Y-69070812D01*
X134530000Y-69083072D01*
X134969250Y-69080000D01*
X135128000Y-68921250D01*
X135128000Y-68072000D01*
X135382000Y-68072000D01*
X135382000Y-68921250D01*
X135540750Y-69080000D01*
X135980000Y-69083072D01*
X136104482Y-69070812D01*
X136224180Y-69034502D01*
X136334494Y-68975537D01*
X136431185Y-68896185D01*
X136448571Y-68875000D01*
X136616928Y-68875000D01*
X136629188Y-68999482D01*
X136665498Y-69119180D01*
X136724463Y-69229494D01*
X136803815Y-69326185D01*
X136900506Y-69405537D01*
X137010820Y-69464502D01*
X137130518Y-69500812D01*
X137255000Y-69513072D01*
X138144250Y-69510000D01*
X138303000Y-69351250D01*
X138303000Y-68339500D01*
X138557000Y-68339500D01*
X138557000Y-69351250D01*
X138715750Y-69510000D01*
X139605000Y-69513072D01*
X139729482Y-69500812D01*
X139849180Y-69464502D01*
X139959494Y-69405537D01*
X140056185Y-69326185D01*
X140135537Y-69229494D01*
X140144447Y-69212824D01*
X140495098Y-69212824D01*
X140544666Y-69630451D01*
X140674757Y-70030383D01*
X140832786Y-70326038D01*
X141148347Y-70482048D01*
X142460395Y-69170000D01*
X141148347Y-67857952D01*
X140832786Y-68013962D01*
X140641980Y-68388745D01*
X140527956Y-68793551D01*
X140495098Y-69212824D01*
X140144447Y-69212824D01*
X140194502Y-69119180D01*
X140230812Y-68999482D01*
X140243072Y-68875000D01*
X140240000Y-68498250D01*
X140081250Y-68339500D01*
X138557000Y-68339500D01*
X138303000Y-68339500D01*
X136778750Y-68339500D01*
X136620000Y-68498250D01*
X136616928Y-68875000D01*
X136448571Y-68875000D01*
X136510537Y-68799494D01*
X136569502Y-68689180D01*
X136605812Y-68569482D01*
X136618072Y-68445000D01*
X136615000Y-68230750D01*
X136456250Y-68072000D01*
X135382000Y-68072000D01*
X135128000Y-68072000D01*
X135108000Y-68072000D01*
X135108000Y-67818000D01*
X135128000Y-67818000D01*
X135128000Y-67798000D01*
X135382000Y-67798000D01*
X135382000Y-67818000D01*
X136456250Y-67818000D01*
X136615000Y-67659250D01*
X136616566Y-67550000D01*
X136616928Y-67550000D01*
X136620000Y-67926750D01*
X136778750Y-68085500D01*
X138303000Y-68085500D01*
X138303000Y-67073750D01*
X138557000Y-67073750D01*
X138557000Y-68085500D01*
X140081250Y-68085500D01*
X140240000Y-67926750D01*
X140243072Y-67550000D01*
X140230812Y-67425518D01*
X140194502Y-67305820D01*
X140135537Y-67195506D01*
X140056185Y-67098815D01*
X139959494Y-67019463D01*
X139849180Y-66960498D01*
X139729482Y-66924188D01*
X139605000Y-66911928D01*
X138715750Y-66915000D01*
X138557000Y-67073750D01*
X138303000Y-67073750D01*
X138144250Y-66915000D01*
X137255000Y-66911928D01*
X137130518Y-66924188D01*
X137010820Y-66960498D01*
X136900506Y-67019463D01*
X136803815Y-67098815D01*
X136724463Y-67195506D01*
X136665498Y-67305820D01*
X136629188Y-67425518D01*
X136616928Y-67550000D01*
X136616566Y-67550000D01*
X136618072Y-67445000D01*
X136605812Y-67320518D01*
X136569502Y-67200820D01*
X136510537Y-67090506D01*
X136431185Y-66993815D01*
X136351406Y-66928342D01*
X136357962Y-66922962D01*
X136468405Y-66788386D01*
X136550472Y-66634850D01*
X136601008Y-66468254D01*
X136618072Y-66295000D01*
X136618072Y-66287060D01*
X136632632Y-66272500D01*
X136992233Y-66272500D01*
X137011613Y-66288405D01*
X137165149Y-66370472D01*
X137331745Y-66421008D01*
X137504999Y-66438072D01*
X139355001Y-66438072D01*
X139528255Y-66421008D01*
X139694851Y-66370472D01*
X139848387Y-66288405D01*
X139982962Y-66177962D01*
X140093405Y-66043387D01*
X140175472Y-65889851D01*
X140226008Y-65723255D01*
X140243072Y-65550001D01*
X140243072Y-64929559D01*
X141597632Y-63575000D01*
X142695752Y-63575000D01*
X142862499Y-63558577D01*
X143076447Y-63493676D01*
X143273623Y-63388284D01*
X143446449Y-63246449D01*
X143570266Y-63095578D01*
X143651302Y-63062012D01*
X144000983Y-62828363D01*
X144099989Y-62729357D01*
X144099989Y-67596903D01*
%TA.AperFunction,Conductor*%
D38*
G36*
X144099989Y-67596903D02*
G01*
X144066739Y-67563653D01*
X143952047Y-67678345D01*
X143796038Y-67362786D01*
X143421255Y-67171980D01*
X143016449Y-67057956D01*
X142597176Y-67025098D01*
X142179549Y-67074666D01*
X141779617Y-67204757D01*
X141483962Y-67362786D01*
X141327952Y-67678347D01*
X142640000Y-68990395D01*
X142654143Y-68976253D01*
X142833748Y-69155858D01*
X142819605Y-69170000D01*
X142833748Y-69184143D01*
X142654143Y-69363748D01*
X142640000Y-69349605D01*
X141327952Y-70661653D01*
X141483962Y-70977214D01*
X141858745Y-71168020D01*
X142263551Y-71282044D01*
X142682824Y-71314902D01*
X143100451Y-71265334D01*
X143500383Y-71135243D01*
X143796038Y-70977214D01*
X143952047Y-70661655D01*
X144066739Y-70776347D01*
X144099989Y-70743097D01*
X144099988Y-80944870D01*
X141202500Y-83842359D01*
X141202500Y-78528251D01*
X141207991Y-78472500D01*
X141186483Y-78254124D01*
X141261676Y-78113447D01*
X141326577Y-77899499D01*
X141343000Y-77732752D01*
X141343000Y-77732751D01*
X141348491Y-77677000D01*
X141343000Y-77621249D01*
X141343000Y-75724286D01*
X141435371Y-75586043D01*
X141539775Y-75333989D01*
X141593000Y-75066411D01*
X141593000Y-74793589D01*
X141539775Y-74526011D01*
X141435371Y-74273957D01*
X141283799Y-74047114D01*
X141090886Y-73854201D01*
X140864043Y-73702629D01*
X140611989Y-73598225D01*
X140344411Y-73545000D01*
X140071589Y-73545000D01*
X139804011Y-73598225D01*
X139551957Y-73702629D01*
X139325114Y-73854201D01*
X139132201Y-74047114D01*
X138980629Y-74273957D01*
X138876225Y-74526011D01*
X138838997Y-74713167D01*
X138829008Y-74611745D01*
X138778472Y-74445149D01*
X138696405Y-74291613D01*
X138585962Y-74157038D01*
X138451387Y-74046595D01*
X138297851Y-73964528D01*
X138131255Y-73913992D01*
X137958001Y-73896928D01*
X136107999Y-73896928D01*
X135934745Y-73913992D01*
X135768149Y-73964528D01*
X135614613Y-74046595D01*
X135480038Y-74157038D01*
X135369595Y-74291613D01*
X135287528Y-74445149D01*
X135236992Y-74611745D01*
X135219928Y-74784999D01*
X135219928Y-75610001D01*
X135236992Y-75783255D01*
X135287528Y-75949851D01*
X135322636Y-76015532D01*
X135285518Y-76019188D01*
X135165820Y-76055498D01*
X135055506Y-76114463D01*
X134958815Y-76193815D01*
X134879463Y-76290506D01*
X134820498Y-76400820D01*
X134784188Y-76520518D01*
X134771928Y-76645000D01*
X134771928Y-76655000D01*
X132489248Y-76655000D01*
X132322501Y-76671423D01*
X132108553Y-76736324D01*
X131921887Y-76836099D01*
X131890518Y-76839188D01*
X131770820Y-76875498D01*
X131660506Y-76934463D01*
X131563815Y-77013815D01*
X131484463Y-77110506D01*
X131445000Y-77184335D01*
X131405537Y-77110506D01*
X131326185Y-77013815D01*
X131229494Y-76934463D01*
X131119180Y-76875498D01*
X130999482Y-76839188D01*
X130875000Y-76826928D01*
X129815000Y-76826928D01*
X129690518Y-76839188D01*
X129570820Y-76875498D01*
X129515627Y-76905000D01*
X129287406Y-76905000D01*
X129284623Y-76902716D01*
X129258784Y-76888905D01*
X129087447Y-76797324D01*
X128873499Y-76732423D01*
X128706752Y-76716000D01*
X128706751Y-76716000D01*
X128651000Y-76710509D01*
X128595248Y-76716000D01*
X128486133Y-76716000D01*
X128103072Y-76332940D01*
X128103072Y-75100000D01*
X128090812Y-74975518D01*
X128054502Y-74855820D01*
X127995537Y-74745506D01*
X127916185Y-74648815D01*
X127819494Y-74569463D01*
X127738801Y-74526331D01*
X129480132Y-72785000D01*
X135219928Y-72785000D01*
X135232188Y-72909482D01*
X135268498Y-73029180D01*
X135327463Y-73139494D01*
X135406815Y-73236185D01*
X135503506Y-73315537D01*
X135613820Y-73374502D01*
X135733518Y-73410812D01*
X135858000Y-73423072D01*
X136747250Y-73420000D01*
X136906000Y-73261250D01*
X136906000Y-72249500D01*
X137160000Y-72249500D01*
X137160000Y-73261250D01*
X137318750Y-73420000D01*
X138208000Y-73423072D01*
X138332482Y-73410812D01*
X138452180Y-73374502D01*
X138562494Y-73315537D01*
X138659185Y-73236185D01*
X138738537Y-73139494D01*
X138797502Y-73029180D01*
X138833812Y-72909482D01*
X138846072Y-72785000D01*
X138843000Y-72408250D01*
X138684250Y-72249500D01*
X137160000Y-72249500D01*
X136906000Y-72249500D01*
X135381750Y-72249500D01*
X135223000Y-72408250D01*
X135219928Y-72785000D01*
X129480132Y-72785000D01*
X130805132Y-71460000D01*
X135219928Y-71460000D01*
X135223000Y-71836750D01*
X135381750Y-71995500D01*
X136906000Y-71995500D01*
X136906000Y-70983750D01*
X137160000Y-70983750D01*
X137160000Y-71995500D01*
X138684250Y-71995500D01*
X138843000Y-71836750D01*
X138846072Y-71460000D01*
X138833812Y-71335518D01*
X138797502Y-71215820D01*
X138738537Y-71105506D01*
X138659185Y-71008815D01*
X138562494Y-70929463D01*
X138452180Y-70870498D01*
X138332482Y-70834188D01*
X138208000Y-70821928D01*
X137318750Y-70825000D01*
X137160000Y-70983750D01*
X136906000Y-70983750D01*
X136747250Y-70825000D01*
X135858000Y-70821928D01*
X135733518Y-70834188D01*
X135613820Y-70870498D01*
X135503506Y-70929463D01*
X135406815Y-71008815D01*
X135327463Y-71105506D01*
X135268498Y-71215820D01*
X135232188Y-71335518D01*
X135219928Y-71460000D01*
X130805132Y-71460000D01*
X130938146Y-71326987D01*
X130981449Y-71291449D01*
X131037663Y-71222953D01*
X131123284Y-71118623D01*
X131194219Y-70985912D01*
X133894209Y-68285923D01*
X133891928Y-68445000D01*
X133904188Y-68569482D01*
X133940498Y-68689180D01*
X133999463Y-68799494D01*
X134078815Y-68896185D01*
X134175506Y-68975537D01*
X134285820Y-69034502D01*
X134405518Y-69070812D01*
X134530000Y-69083072D01*
X134969250Y-69080000D01*
X135128000Y-68921250D01*
X135128000Y-68072000D01*
X135382000Y-68072000D01*
X135382000Y-68921250D01*
X135540750Y-69080000D01*
X135980000Y-69083072D01*
X136104482Y-69070812D01*
X136224180Y-69034502D01*
X136334494Y-68975537D01*
X136431185Y-68896185D01*
X136448571Y-68875000D01*
X136616928Y-68875000D01*
X136629188Y-68999482D01*
X136665498Y-69119180D01*
X136724463Y-69229494D01*
X136803815Y-69326185D01*
X136900506Y-69405537D01*
X137010820Y-69464502D01*
X137130518Y-69500812D01*
X137255000Y-69513072D01*
X138144250Y-69510000D01*
X138303000Y-69351250D01*
X138303000Y-68339500D01*
X138557000Y-68339500D01*
X138557000Y-69351250D01*
X138715750Y-69510000D01*
X139605000Y-69513072D01*
X139729482Y-69500812D01*
X139849180Y-69464502D01*
X139959494Y-69405537D01*
X140056185Y-69326185D01*
X140135537Y-69229494D01*
X140144447Y-69212824D01*
X140495098Y-69212824D01*
X140544666Y-69630451D01*
X140674757Y-70030383D01*
X140832786Y-70326038D01*
X141148347Y-70482048D01*
X142460395Y-69170000D01*
X141148347Y-67857952D01*
X140832786Y-68013962D01*
X140641980Y-68388745D01*
X140527956Y-68793551D01*
X140495098Y-69212824D01*
X140144447Y-69212824D01*
X140194502Y-69119180D01*
X140230812Y-68999482D01*
X140243072Y-68875000D01*
X140240000Y-68498250D01*
X140081250Y-68339500D01*
X138557000Y-68339500D01*
X138303000Y-68339500D01*
X136778750Y-68339500D01*
X136620000Y-68498250D01*
X136616928Y-68875000D01*
X136448571Y-68875000D01*
X136510537Y-68799494D01*
X136569502Y-68689180D01*
X136605812Y-68569482D01*
X136618072Y-68445000D01*
X136615000Y-68230750D01*
X136456250Y-68072000D01*
X135382000Y-68072000D01*
X135128000Y-68072000D01*
X135108000Y-68072000D01*
X135108000Y-67818000D01*
X135128000Y-67818000D01*
X135128000Y-67798000D01*
X135382000Y-67798000D01*
X135382000Y-67818000D01*
X136456250Y-67818000D01*
X136615000Y-67659250D01*
X136616566Y-67550000D01*
X136616928Y-67550000D01*
X136620000Y-67926750D01*
X136778750Y-68085500D01*
X138303000Y-68085500D01*
X138303000Y-67073750D01*
X138557000Y-67073750D01*
X138557000Y-68085500D01*
X140081250Y-68085500D01*
X140240000Y-67926750D01*
X140243072Y-67550000D01*
X140230812Y-67425518D01*
X140194502Y-67305820D01*
X140135537Y-67195506D01*
X140056185Y-67098815D01*
X139959494Y-67019463D01*
X139849180Y-66960498D01*
X139729482Y-66924188D01*
X139605000Y-66911928D01*
X138715750Y-66915000D01*
X138557000Y-67073750D01*
X138303000Y-67073750D01*
X138144250Y-66915000D01*
X137255000Y-66911928D01*
X137130518Y-66924188D01*
X137010820Y-66960498D01*
X136900506Y-67019463D01*
X136803815Y-67098815D01*
X136724463Y-67195506D01*
X136665498Y-67305820D01*
X136629188Y-67425518D01*
X136616928Y-67550000D01*
X136616566Y-67550000D01*
X136618072Y-67445000D01*
X136605812Y-67320518D01*
X136569502Y-67200820D01*
X136510537Y-67090506D01*
X136431185Y-66993815D01*
X136351406Y-66928342D01*
X136357962Y-66922962D01*
X136468405Y-66788386D01*
X136550472Y-66634850D01*
X136601008Y-66468254D01*
X136618072Y-66295000D01*
X136618072Y-66287060D01*
X136632632Y-66272500D01*
X136992233Y-66272500D01*
X137011613Y-66288405D01*
X137165149Y-66370472D01*
X137331745Y-66421008D01*
X137504999Y-66438072D01*
X139355001Y-66438072D01*
X139528255Y-66421008D01*
X139694851Y-66370472D01*
X139848387Y-66288405D01*
X139982962Y-66177962D01*
X140093405Y-66043387D01*
X140175472Y-65889851D01*
X140226008Y-65723255D01*
X140243072Y-65550001D01*
X140243072Y-64929559D01*
X141597632Y-63575000D01*
X142695752Y-63575000D01*
X142862499Y-63558577D01*
X143076447Y-63493676D01*
X143273623Y-63388284D01*
X143446449Y-63246449D01*
X143570266Y-63095578D01*
X143651302Y-63062012D01*
X144000983Y-62828363D01*
X144099989Y-62729357D01*
X144099989Y-67596903D01*
G37*
%TD.AperFunction*%
D37*
X146377574Y-79105441D02*
X147208563Y-79936432D01*
X147234709Y-79968291D01*
X147266568Y-79994437D01*
X147266570Y-79994439D01*
X147361854Y-80072636D01*
X147506913Y-80150172D01*
X147664311Y-80197918D01*
X147755000Y-80206850D01*
X147755001Y-81873972D01*
X147750960Y-81915000D01*
X147767082Y-82078688D01*
X147814828Y-82236086D01*
X147892364Y-82381145D01*
X147905601Y-82397274D01*
X147996710Y-82508291D01*
X148028574Y-82534441D01*
X148479133Y-82985000D01*
X145270139Y-82985000D01*
X146096432Y-82158707D01*
X146128290Y-82132562D01*
X146158088Y-82096254D01*
X146232635Y-82005417D01*
X146310171Y-81860358D01*
X146339867Y-81762464D01*
X146357917Y-81702960D01*
X146369999Y-81580290D01*
X146369999Y-81580289D01*
X146374039Y-81539271D01*
X146369999Y-81498253D01*
X146369999Y-79099224D01*
X146377574Y-79105441D01*
%TA.AperFunction,Conductor*%
D38*
G36*
X146377574Y-79105441D02*
G01*
X147208563Y-79936432D01*
X147234709Y-79968291D01*
X147266568Y-79994437D01*
X147266570Y-79994439D01*
X147361854Y-80072636D01*
X147506913Y-80150172D01*
X147664311Y-80197918D01*
X147755000Y-80206850D01*
X147755001Y-81873972D01*
X147750960Y-81915000D01*
X147767082Y-82078688D01*
X147814828Y-82236086D01*
X147892364Y-82381145D01*
X147905601Y-82397274D01*
X147996710Y-82508291D01*
X148028574Y-82534441D01*
X148479133Y-82985000D01*
X145270139Y-82985000D01*
X146096432Y-82158707D01*
X146128290Y-82132562D01*
X146158088Y-82096254D01*
X146232635Y-82005417D01*
X146310171Y-81860358D01*
X146339867Y-81762464D01*
X146357917Y-81702960D01*
X146369999Y-81580290D01*
X146369999Y-81580289D01*
X146374039Y-81539271D01*
X146369999Y-81498253D01*
X146369999Y-79099224D01*
X146377574Y-79105441D01*
G37*
%TD.AperFunction*%
D37*
X131563815Y-78566185D02*
X131660506Y-78645537D01*
X131770820Y-78704502D01*
X131887841Y-78740000D01*
X131770820Y-78775498D01*
X131660506Y-78834463D01*
X131563815Y-78913815D01*
X131489103Y-79004853D01*
X131351250Y-78867000D01*
X131269141Y-78867000D01*
X131229494Y-78834463D01*
X131119180Y-78775498D01*
X131002159Y-78740000D01*
X131119180Y-78704502D01*
X131229494Y-78645537D01*
X131269141Y-78613000D01*
X131351250Y-78613000D01*
X131489103Y-78475147D01*
X131563815Y-78566185D01*
%TA.AperFunction,Conductor*%
D38*
G36*
X131563815Y-78566185D02*
G01*
X131660506Y-78645537D01*
X131770820Y-78704502D01*
X131887841Y-78740000D01*
X131770820Y-78775498D01*
X131660506Y-78834463D01*
X131563815Y-78913815D01*
X131489103Y-79004853D01*
X131351250Y-78867000D01*
X131269141Y-78867000D01*
X131229494Y-78834463D01*
X131119180Y-78775498D01*
X131002159Y-78740000D01*
X131119180Y-78704502D01*
X131229494Y-78645537D01*
X131269141Y-78613000D01*
X131351250Y-78613000D01*
X131489103Y-78475147D01*
X131563815Y-78566185D01*
G37*
%TD.AperFunction*%
D37*
X151881525Y-66351632D02*
X152013380Y-66483487D01*
X151940820Y-66505498D01*
X151830506Y-66564463D01*
X151733815Y-66643815D01*
X151654463Y-66740506D01*
X151595498Y-66850820D01*
X151559188Y-66970518D01*
X151546928Y-67095000D01*
X151546928Y-68795000D01*
X151559188Y-68919482D01*
X151595498Y-69039180D01*
X151654463Y-69149494D01*
X151733815Y-69246185D01*
X151830506Y-69325537D01*
X151940820Y-69384502D01*
X152060518Y-69420812D01*
X152185000Y-69433072D01*
X153342204Y-69433072D01*
X153978001Y-70068870D01*
X153978000Y-72816087D01*
X153885000Y-72806928D01*
X153320750Y-72810000D01*
X153162000Y-72968750D01*
X153162000Y-74168000D01*
X153182000Y-74168000D01*
X153182000Y-74422000D01*
X153162000Y-74422000D01*
X153162000Y-74442000D01*
X152908000Y-74442000D01*
X152908000Y-74422000D01*
X152888000Y-74422000D01*
X152888000Y-74168000D01*
X152908000Y-74168000D01*
X152908000Y-72968750D01*
X152749250Y-72810000D01*
X152185000Y-72806928D01*
X152060518Y-72819188D01*
X151940820Y-72855498D01*
X151830506Y-72914463D01*
X151733815Y-72993815D01*
X151654463Y-73090506D01*
X151595498Y-73200820D01*
X151559188Y-73320518D01*
X151546928Y-73445000D01*
X151547399Y-73531531D01*
X151198072Y-73182204D01*
X151198072Y-72762499D01*
X151181008Y-72589245D01*
X151130472Y-72422649D01*
X151048405Y-72269113D01*
X150937962Y-72134538D01*
X150803387Y-72024095D01*
X150649851Y-71942028D01*
X150483255Y-71891492D01*
X150310001Y-71874428D01*
X149409999Y-71874428D01*
X149236745Y-71891492D01*
X149070149Y-71942028D01*
X148916613Y-72024095D01*
X148782038Y-72134538D01*
X148671595Y-72269113D01*
X148589528Y-72422649D01*
X148538992Y-72589245D01*
X148521928Y-72762499D01*
X148521928Y-73287501D01*
X148538992Y-73460755D01*
X148589528Y-73627351D01*
X148636378Y-73715000D01*
X148455012Y-73715000D01*
X148455012Y-69050119D01*
X148830920Y-68674212D01*
X148993989Y-68641775D01*
X149246043Y-68537371D01*
X149472886Y-68385799D01*
X149665799Y-68192886D01*
X149817371Y-67966043D01*
X149921775Y-67713989D01*
X149975000Y-67446411D01*
X149975000Y-67173589D01*
X149921775Y-66906011D01*
X149817371Y-66653957D01*
X149665799Y-66427114D01*
X149478685Y-66240000D01*
X151806935Y-66240000D01*
X151881525Y-66351632D01*
%TA.AperFunction,Conductor*%
D38*
G36*
X151881525Y-66351632D02*
G01*
X152013380Y-66483487D01*
X151940820Y-66505498D01*
X151830506Y-66564463D01*
X151733815Y-66643815D01*
X151654463Y-66740506D01*
X151595498Y-66850820D01*
X151559188Y-66970518D01*
X151546928Y-67095000D01*
X151546928Y-68795000D01*
X151559188Y-68919482D01*
X151595498Y-69039180D01*
X151654463Y-69149494D01*
X151733815Y-69246185D01*
X151830506Y-69325537D01*
X151940820Y-69384502D01*
X152060518Y-69420812D01*
X152185000Y-69433072D01*
X153342204Y-69433072D01*
X153978001Y-70068870D01*
X153978000Y-72816087D01*
X153885000Y-72806928D01*
X153320750Y-72810000D01*
X153162000Y-72968750D01*
X153162000Y-74168000D01*
X153182000Y-74168000D01*
X153182000Y-74422000D01*
X153162000Y-74422000D01*
X153162000Y-74442000D01*
X152908000Y-74442000D01*
X152908000Y-74422000D01*
X152888000Y-74422000D01*
X152888000Y-74168000D01*
X152908000Y-74168000D01*
X152908000Y-72968750D01*
X152749250Y-72810000D01*
X152185000Y-72806928D01*
X152060518Y-72819188D01*
X151940820Y-72855498D01*
X151830506Y-72914463D01*
X151733815Y-72993815D01*
X151654463Y-73090506D01*
X151595498Y-73200820D01*
X151559188Y-73320518D01*
X151546928Y-73445000D01*
X151547399Y-73531531D01*
X151198072Y-73182204D01*
X151198072Y-72762499D01*
X151181008Y-72589245D01*
X151130472Y-72422649D01*
X151048405Y-72269113D01*
X150937962Y-72134538D01*
X150803387Y-72024095D01*
X150649851Y-71942028D01*
X150483255Y-71891492D01*
X150310001Y-71874428D01*
X149409999Y-71874428D01*
X149236745Y-71891492D01*
X149070149Y-71942028D01*
X148916613Y-72024095D01*
X148782038Y-72134538D01*
X148671595Y-72269113D01*
X148589528Y-72422649D01*
X148538992Y-72589245D01*
X148521928Y-72762499D01*
X148521928Y-73287501D01*
X148538992Y-73460755D01*
X148589528Y-73627351D01*
X148636378Y-73715000D01*
X148455012Y-73715000D01*
X148455012Y-69050119D01*
X148830920Y-68674212D01*
X148993989Y-68641775D01*
X149246043Y-68537371D01*
X149472886Y-68385799D01*
X149665799Y-68192886D01*
X149817371Y-67966043D01*
X149921775Y-67713989D01*
X149975000Y-67446411D01*
X149975000Y-67173589D01*
X149921775Y-66906011D01*
X149817371Y-66653957D01*
X149665799Y-66427114D01*
X149478685Y-66240000D01*
X151806935Y-66240000D01*
X151881525Y-66351632D01*
G37*
%TD.AperFunction*%
%TD*%
M02*
