%FSLAX45Y45*%
G04 Gerber Fmt 4.5, Leading zero omitted, Abs format (unit mm)*
G04 Created by KiCad (PCBNEW 5.99.0+really5.1.9+dfsg1-1) date 2021-04-26 12:32:46*
%MOMM*%
%LPD*%
G01*
G04 APERTURE LIST*
%TA.AperFunction,Profile*%
%ADD10C,0.050000*%
%TD*%
%ADD11C,0.200000*%
%ADD12C,0.300000*%
G04 APERTURE END LIST*
D10*
X15684500Y-12763500D02*
X8128000Y-12763500D01*
X15684500Y-4572000D02*
X15684500Y-12763500D01*
X15684500Y-4572000D02*
X8128000Y-4572000D01*
X8128000Y-4572000D02*
X8128000Y-12763500D01*
D11*
X11132542Y-10186958D02*
X11212542Y-10266958D01*
X11212542Y-10186958D02*
X11132542Y-10266958D01*
X11136000Y-9485000D02*
X11216000Y-9565000D01*
X11216000Y-9485000D02*
X11136000Y-9565000D01*
X11275700Y-11834500D02*
X11355700Y-11914500D01*
X11355700Y-11834500D02*
X11275700Y-11914500D01*
X11281001Y-9726297D02*
X11361001Y-9806297D01*
X11361001Y-9726297D02*
X11281001Y-9806297D01*
X11281001Y-10064295D02*
X11361001Y-10144295D01*
X11361001Y-10064295D02*
X11281001Y-10144295D01*
X12088500Y-7389500D02*
X12168500Y-7469500D01*
X12168500Y-7389500D02*
X12088500Y-7469500D01*
X12215500Y-7643500D02*
X12295500Y-7723500D01*
X12295500Y-7643500D02*
X12215500Y-7723500D01*
X12215501Y-9358000D02*
X12295501Y-9438000D01*
X12295501Y-9358000D02*
X12215501Y-9438000D01*
X12977500Y-7389500D02*
X13057500Y-7469500D01*
X13057500Y-7389500D02*
X12977500Y-7469500D01*
X13104500Y-7516500D02*
X13184500Y-7596500D01*
X13184500Y-7516500D02*
X13104500Y-7596500D01*
X13104500Y-8278500D02*
X13184500Y-8358500D01*
X13184500Y-8278500D02*
X13104500Y-8358500D01*
X13587100Y-11834500D02*
X13667100Y-11914500D01*
X13667100Y-11834500D02*
X13587100Y-11914500D01*
X13980800Y-7453000D02*
X14060800Y-7533000D01*
X14060800Y-7453000D02*
X13980800Y-7533000D01*
X13993500Y-10120000D02*
X14073500Y-10200000D01*
X14073500Y-10120000D02*
X13993500Y-10200000D01*
X13993500Y-10755000D02*
X14073500Y-10835000D01*
X14073500Y-10755000D02*
X13993500Y-10835000D01*
X14184000Y-8024500D02*
X14264000Y-8104500D01*
X14264000Y-8024500D02*
X14184000Y-8104500D01*
X14247500Y-9612000D02*
X14327500Y-9692000D01*
X14327500Y-9612000D02*
X14247500Y-9692000D01*
X14628500Y-8024500D02*
X14708500Y-8104500D01*
X14708500Y-8024500D02*
X14628500Y-8104500D01*
X14628500Y-8215000D02*
X14708500Y-8295000D01*
X14708500Y-8215000D02*
X14628500Y-8295000D01*
X14628500Y-8469000D02*
X14708500Y-8549000D01*
X14708500Y-8469000D02*
X14628500Y-8549000D01*
X14692001Y-7453000D02*
X14772001Y-7533000D01*
X14772001Y-7453000D02*
X14692001Y-7533000D01*
X14819000Y-4976500D02*
X14899000Y-5056500D01*
X14899000Y-4976500D02*
X14819000Y-5056500D01*
X14819000Y-6691000D02*
X14899000Y-6771000D01*
X14899000Y-6691000D02*
X14819000Y-6771000D01*
X15009500Y-6945000D02*
X15089500Y-7025000D01*
X15089500Y-6945000D02*
X15009500Y-7025000D01*
X15027501Y-5103500D02*
X15107501Y-5183500D01*
X15107501Y-5103500D02*
X15027501Y-5183500D01*
X15263500Y-9612000D02*
X15343500Y-9692000D01*
X15343500Y-9612000D02*
X15263500Y-9692000D01*
X14421400Y-8953500D02*
G75*
G03*
X14421400Y-8953500I-45000J0D01*
G01*
X14675400Y-8953500D02*
G75*
G03*
X14675400Y-8953500I-45000J0D01*
G01*
X14929400Y-8953500D02*
G75*
G03*
X14929400Y-8953500I-45000J0D01*
G01*
X8382000Y-11570500D02*
X8382000Y-11670500D01*
X8332000Y-11620500D02*
X8432000Y-11620500D01*
X8382000Y-11824500D02*
X8382000Y-11924500D01*
X8332000Y-11874500D02*
X8432000Y-11874500D01*
X8636000Y-11570500D02*
X8636000Y-11670500D01*
X8586000Y-11620500D02*
X8686000Y-11620500D01*
X8636000Y-11824500D02*
X8636000Y-11924500D01*
X8586000Y-11874500D02*
X8686000Y-11874500D01*
X8890000Y-11570500D02*
X8890000Y-11670500D01*
X8840000Y-11620500D02*
X8940000Y-11620500D01*
X8890000Y-11824500D02*
X8890000Y-11924500D01*
X8840000Y-11874500D02*
X8940000Y-11874500D01*
X9144000Y-11570500D02*
X9144000Y-11670500D01*
X9094000Y-11620500D02*
X9194000Y-11620500D01*
X9144000Y-11824500D02*
X9144000Y-11924500D01*
X9094000Y-11874500D02*
X9194000Y-11874500D01*
X9398000Y-11570500D02*
X9398000Y-11670500D01*
X9348000Y-11620500D02*
X9448000Y-11620500D01*
X9398000Y-11824500D02*
X9398000Y-11924500D01*
X9348000Y-11874500D02*
X9448000Y-11874500D01*
X9652000Y-11570500D02*
X9652000Y-11670500D01*
X9602000Y-11620500D02*
X9702000Y-11620500D01*
X9652000Y-11824500D02*
X9652000Y-11924500D01*
X9602000Y-11874500D02*
X9702000Y-11874500D01*
X9906000Y-11570500D02*
X9906000Y-11670500D01*
X9856000Y-11620500D02*
X9956000Y-11620500D01*
X9906000Y-11824500D02*
X9906000Y-11924500D01*
X9856000Y-11874500D02*
X9956000Y-11874500D01*
X10160000Y-11570500D02*
X10160000Y-11670500D01*
X10110000Y-11620500D02*
X10210000Y-11620500D01*
X10160000Y-11824500D02*
X10160000Y-11924500D01*
X10110000Y-11874500D02*
X10210000Y-11874500D01*
X10414000Y-11570500D02*
X10414000Y-11670500D01*
X10364000Y-11620500D02*
X10464000Y-11620500D01*
X10414000Y-11824500D02*
X10414000Y-11924500D01*
X10364000Y-11874500D02*
X10464000Y-11874500D01*
X10668000Y-11570500D02*
X10668000Y-11670500D01*
X10618000Y-11620500D02*
X10718000Y-11620500D01*
X10668000Y-11824500D02*
X10668000Y-11924500D01*
X10618000Y-11874500D02*
X10718000Y-11874500D01*
X13083000Y-9094000D02*
X13083000Y-9194000D01*
X13033000Y-9144000D02*
X13133000Y-9144000D01*
X13716000Y-9983000D02*
X13716000Y-10083000D01*
X13666000Y-10033000D02*
X13766000Y-10033000D01*
X13716000Y-10237000D02*
X13716000Y-10337000D01*
X13666000Y-10287000D02*
X13766000Y-10287000D01*
X13843000Y-9094000D02*
X13843000Y-9194000D01*
X13793000Y-9144000D02*
X13893000Y-9144000D01*
X13906500Y-11062500D02*
X13906500Y-11162500D01*
X13856500Y-11112500D02*
X13956500Y-11112500D01*
X13906500Y-11316500D02*
X13906500Y-11416500D01*
X13856500Y-11366500D02*
X13956500Y-11366500D01*
X13906500Y-11570500D02*
X13906500Y-11670500D01*
X13856500Y-11620500D02*
X13956500Y-11620500D01*
X13906500Y-11824500D02*
X13906500Y-11924500D01*
X13856500Y-11874500D02*
X13956500Y-11874500D01*
X15303500Y-4966500D02*
X15303500Y-5066500D01*
X15253500Y-5016500D02*
X15353500Y-5016500D01*
X15303500Y-5220500D02*
X15303500Y-5320500D01*
X15253500Y-5270500D02*
X15353500Y-5270500D01*
X15303500Y-5474500D02*
X15303500Y-5574500D01*
X15253500Y-5524500D02*
X15353500Y-5524500D01*
X15303500Y-5728500D02*
X15303500Y-5828500D01*
X15253500Y-5778500D02*
X15353500Y-5778500D01*
X15303500Y-5982500D02*
X15303500Y-6082500D01*
X15253500Y-6032500D02*
X15353500Y-6032500D01*
X15303500Y-6236500D02*
X15303500Y-6336500D01*
X15253500Y-6286500D02*
X15353500Y-6286500D01*
X15303500Y-6490500D02*
X15303500Y-6590500D01*
X15253500Y-6540500D02*
X15353500Y-6540500D01*
X15303500Y-6744500D02*
X15303500Y-6844500D01*
X15253500Y-6794500D02*
X15353500Y-6794500D01*
X15303500Y-7379500D02*
X15303500Y-7479500D01*
X15253500Y-7429500D02*
X15353500Y-7429500D01*
X15303500Y-7633500D02*
X15303500Y-7733500D01*
X15253500Y-7683500D02*
X15353500Y-7683500D01*
X15303500Y-7887500D02*
X15303500Y-7987500D01*
X15253500Y-7937500D02*
X15353500Y-7937500D01*
X15303500Y-8141500D02*
X15303500Y-8241500D01*
X15253500Y-8191500D02*
X15353500Y-8191500D01*
X12675391Y-7658891D02*
X12675391Y-7581109D01*
X12597609Y-7581109D01*
X12597609Y-7658891D01*
X12675391Y-7658891D01*
X12675391Y-8674891D02*
X12675391Y-8597109D01*
X12597609Y-8597109D01*
X12597609Y-8674891D01*
X12675391Y-8674891D01*
X14453391Y-9993391D02*
X14453391Y-9915609D01*
X14375609Y-9915609D01*
X14375609Y-9993391D01*
X14453391Y-9993391D01*
X14453391Y-10643391D02*
X14453391Y-10565609D01*
X14375609Y-10565609D01*
X14375609Y-10643391D01*
X14453391Y-10643391D01*
X14453391Y-11263391D02*
X14453391Y-11185609D01*
X14375609Y-11185609D01*
X14375609Y-11263391D01*
X14453391Y-11263391D01*
X14453391Y-11913391D02*
X14453391Y-11835609D01*
X14375609Y-11835609D01*
X14375609Y-11913391D01*
X14453391Y-11913391D01*
X14903391Y-9993391D02*
X14903391Y-9915609D01*
X14825609Y-9915609D01*
X14825609Y-9993391D01*
X14903391Y-9993391D01*
X14903391Y-10643391D02*
X14903391Y-10565609D01*
X14825609Y-10565609D01*
X14825609Y-10643391D01*
X14903391Y-10643391D01*
X14903391Y-11263391D02*
X14903391Y-11185609D01*
X14825609Y-11185609D01*
X14825609Y-11263391D01*
X14903391Y-11263391D01*
X14903391Y-11913391D02*
X14903391Y-11835609D01*
X14825609Y-11835609D01*
X14825609Y-11913391D01*
X14903391Y-11913391D01*
X10391000Y-7974000D02*
X10456000Y-7909000D01*
X10391000Y-7844000D01*
X10326000Y-7909000D01*
X10391000Y-7974000D01*
X10391000Y-9174000D02*
X10456000Y-9109000D01*
X10391000Y-9044000D01*
X10326000Y-9109000D01*
X10391000Y-9174000D01*
X11611000Y-7974000D02*
X11676000Y-7909000D01*
X11611000Y-7844000D01*
X11546000Y-7909000D01*
X11611000Y-7974000D01*
X11611000Y-9174000D02*
X11676000Y-9109000D01*
X11611000Y-9044000D01*
X11546000Y-9109000D01*
X11611000Y-9174000D01*
X11811000Y-8574000D02*
X11876000Y-8509000D01*
X11811000Y-8444000D01*
X11746000Y-8509000D01*
X11811000Y-8574000D01*
X8951000Y-5776000D02*
X9083000Y-5908000D01*
X9083000Y-5776000D02*
X8951000Y-5908000D01*
X9083000Y-5842000D02*
G75*
G03*
X9083000Y-5842000I-66000J0D01*
G01*
X8951000Y-6276000D02*
X9083000Y-6408000D01*
X9083000Y-6276000D02*
X8951000Y-6408000D01*
X9083000Y-6342000D02*
G75*
G03*
X9083000Y-6342000I-66000J0D01*
G01*
X8951000Y-6776000D02*
X9083000Y-6908000D01*
X9083000Y-6776000D02*
X8951000Y-6908000D01*
X9083000Y-6842000D02*
G75*
G03*
X9083000Y-6842000I-66000J0D01*
G01*
X8951000Y-7935000D02*
X9083000Y-8067000D01*
X9083000Y-7935000D02*
X8951000Y-8067000D01*
X9083000Y-8001000D02*
G75*
G03*
X9083000Y-8001000I-66000J0D01*
G01*
X8951000Y-8435000D02*
X9083000Y-8567000D01*
X9083000Y-8435000D02*
X8951000Y-8567000D01*
X9083000Y-8501000D02*
G75*
G03*
X9083000Y-8501000I-66000J0D01*
G01*
X8951000Y-8935000D02*
X9083000Y-9067000D01*
X9083000Y-8935000D02*
X8951000Y-9067000D01*
X9083000Y-9001000D02*
G75*
G03*
X9083000Y-9001000I-66000J0D01*
G01*
X8951000Y-9713000D02*
X9083000Y-9845000D01*
X9083000Y-9713000D02*
X8951000Y-9845000D01*
X9083000Y-9779000D02*
G75*
G03*
X9083000Y-9779000I-66000J0D01*
G01*
X8951000Y-10213000D02*
X9083000Y-10345000D01*
X9083000Y-10213000D02*
X8951000Y-10345000D01*
X9083000Y-10279000D02*
G75*
G03*
X9083000Y-10279000I-66000J0D01*
G01*
X10339000Y-5767000D02*
X10489000Y-5917000D01*
X10489000Y-5767000D02*
X10339000Y-5917000D01*
X10414000Y-5767000D02*
X10414000Y-5917000D01*
X10339000Y-5842000D02*
X10489000Y-5842000D01*
X10339000Y-6842000D02*
X10489000Y-6992000D01*
X10489000Y-6842000D02*
X10339000Y-6992000D01*
X10414000Y-6842000D02*
X10414000Y-6992000D01*
X10339000Y-6917000D02*
X10489000Y-6917000D01*
X14189000Y-6042000D02*
X14339000Y-6192000D01*
X14339000Y-6042000D02*
X14189000Y-6192000D01*
X14264000Y-6042000D02*
X14264000Y-6192000D01*
X14189000Y-6117000D02*
X14339000Y-6117000D01*
X14189000Y-6842000D02*
X14339000Y-6992000D01*
X14339000Y-6842000D02*
X14189000Y-6992000D01*
X14264000Y-6842000D02*
X14264000Y-6992000D01*
X14189000Y-6917000D02*
X14339000Y-6917000D01*
X8412500Y-4856500D02*
X8732500Y-5176500D01*
X8732500Y-4856500D02*
X8412500Y-5176500D01*
X8685638Y-5129638D02*
X8685638Y-4903362D01*
X8459362Y-4903362D01*
X8459362Y-5129638D01*
X8685638Y-5129638D01*
X8412500Y-12222500D02*
X8732500Y-12542500D01*
X8732500Y-12222500D02*
X8412500Y-12542500D01*
X8685638Y-12495638D02*
X8685638Y-12269362D01*
X8459362Y-12269362D01*
X8459362Y-12495638D01*
X8685638Y-12495638D01*
X15080000Y-12222500D02*
X15400000Y-12542500D01*
X15400000Y-12222500D02*
X15080000Y-12542500D01*
X15353138Y-12495638D02*
X15353138Y-12269362D01*
X15126862Y-12269362D01*
X15126862Y-12495638D01*
X15353138Y-12495638D01*
D12*
X8411928Y-13231714D02*
X8411928Y-12931714D01*
X8483357Y-12931714D01*
X8526214Y-12946000D01*
X8554786Y-12974571D01*
X8569071Y-13003143D01*
X8583357Y-13060286D01*
X8583357Y-13103143D01*
X8569071Y-13160286D01*
X8554786Y-13188857D01*
X8526214Y-13217429D01*
X8483357Y-13231714D01*
X8411928Y-13231714D01*
X8711928Y-13231714D02*
X8711928Y-13031714D01*
X8711928Y-13088857D02*
X8726214Y-13060286D01*
X8740500Y-13046000D01*
X8769071Y-13031714D01*
X8797643Y-13031714D01*
X8897643Y-13231714D02*
X8897643Y-13031714D01*
X8897643Y-12931714D02*
X8883357Y-12946000D01*
X8897643Y-12960286D01*
X8911928Y-12946000D01*
X8897643Y-12931714D01*
X8897643Y-12960286D01*
X9083357Y-13231714D02*
X9054786Y-13217429D01*
X9040500Y-13188857D01*
X9040500Y-12931714D01*
X9240500Y-13231714D02*
X9211928Y-13217429D01*
X9197643Y-13188857D01*
X9197643Y-12931714D01*
X9583357Y-13231714D02*
X9583357Y-12931714D01*
X9683357Y-13146000D01*
X9783357Y-12931714D01*
X9783357Y-13231714D01*
X10054786Y-13231714D02*
X10054786Y-13074571D01*
X10040500Y-13046000D01*
X10011928Y-13031714D01*
X9954786Y-13031714D01*
X9926214Y-13046000D01*
X10054786Y-13217429D02*
X10026214Y-13231714D01*
X9954786Y-13231714D01*
X9926214Y-13217429D01*
X9911928Y-13188857D01*
X9911928Y-13160286D01*
X9926214Y-13131714D01*
X9954786Y-13117429D01*
X10026214Y-13117429D01*
X10054786Y-13103143D01*
X10197643Y-13031714D02*
X10197643Y-13331714D01*
X10197643Y-13046000D02*
X10226214Y-13031714D01*
X10283357Y-13031714D01*
X10311928Y-13046000D01*
X10326214Y-13060286D01*
X10340500Y-13088857D01*
X10340500Y-13174571D01*
X10326214Y-13203143D01*
X10311928Y-13217429D01*
X10283357Y-13231714D01*
X10226214Y-13231714D01*
X10197643Y-13217429D01*
X10469071Y-13203143D02*
X10483357Y-13217429D01*
X10469071Y-13231714D01*
X10454786Y-13217429D01*
X10469071Y-13203143D01*
X10469071Y-13231714D01*
X10469071Y-13046000D02*
X10483357Y-13060286D01*
X10469071Y-13074571D01*
X10454786Y-13060286D01*
X10469071Y-13046000D01*
X10469071Y-13074571D01*
X8045500Y-13686000D02*
X8125500Y-13766000D01*
X8125500Y-13686000D02*
X8045500Y-13766000D01*
X8469071Y-13561714D02*
X8497643Y-13561714D01*
X8526214Y-13576000D01*
X8540500Y-13590286D01*
X8554786Y-13618857D01*
X8569071Y-13676000D01*
X8569071Y-13747429D01*
X8554786Y-13804571D01*
X8540500Y-13833143D01*
X8526214Y-13847429D01*
X8497643Y-13861714D01*
X8469071Y-13861714D01*
X8440500Y-13847429D01*
X8426214Y-13833143D01*
X8411928Y-13804571D01*
X8397643Y-13747429D01*
X8397643Y-13676000D01*
X8411928Y-13618857D01*
X8426214Y-13590286D01*
X8440500Y-13576000D01*
X8469071Y-13561714D01*
X8697643Y-13833143D02*
X8711928Y-13847429D01*
X8697643Y-13861714D01*
X8683357Y-13847429D01*
X8697643Y-13833143D01*
X8697643Y-13861714D01*
X8883357Y-13690286D02*
X8854786Y-13676000D01*
X8840500Y-13661714D01*
X8826214Y-13633143D01*
X8826214Y-13618857D01*
X8840500Y-13590286D01*
X8854786Y-13576000D01*
X8883357Y-13561714D01*
X8940500Y-13561714D01*
X8969071Y-13576000D01*
X8983357Y-13590286D01*
X8997643Y-13618857D01*
X8997643Y-13633143D01*
X8983357Y-13661714D01*
X8969071Y-13676000D01*
X8940500Y-13690286D01*
X8883357Y-13690286D01*
X8854786Y-13704571D01*
X8840500Y-13718857D01*
X8826214Y-13747429D01*
X8826214Y-13804571D01*
X8840500Y-13833143D01*
X8854786Y-13847429D01*
X8883357Y-13861714D01*
X8940500Y-13861714D01*
X8969071Y-13847429D01*
X8983357Y-13833143D01*
X8997643Y-13804571D01*
X8997643Y-13747429D01*
X8983357Y-13718857D01*
X8969071Y-13704571D01*
X8940500Y-13690286D01*
X9183357Y-13561714D02*
X9211928Y-13561714D01*
X9240500Y-13576000D01*
X9254786Y-13590286D01*
X9269071Y-13618857D01*
X9283357Y-13676000D01*
X9283357Y-13747429D01*
X9269071Y-13804571D01*
X9254786Y-13833143D01*
X9240500Y-13847429D01*
X9211928Y-13861714D01*
X9183357Y-13861714D01*
X9154786Y-13847429D01*
X9140500Y-13833143D01*
X9126214Y-13804571D01*
X9111928Y-13747429D01*
X9111928Y-13676000D01*
X9126214Y-13618857D01*
X9140500Y-13590286D01*
X9154786Y-13576000D01*
X9183357Y-13561714D01*
X9411928Y-13861714D02*
X9411928Y-13661714D01*
X9411928Y-13690286D02*
X9426214Y-13676000D01*
X9454786Y-13661714D01*
X9497643Y-13661714D01*
X9526214Y-13676000D01*
X9540500Y-13704571D01*
X9540500Y-13861714D01*
X9540500Y-13704571D02*
X9554786Y-13676000D01*
X9583357Y-13661714D01*
X9626214Y-13661714D01*
X9654786Y-13676000D01*
X9669071Y-13704571D01*
X9669071Y-13861714D01*
X9811928Y-13861714D02*
X9811928Y-13661714D01*
X9811928Y-13690286D02*
X9826214Y-13676000D01*
X9854786Y-13661714D01*
X9897643Y-13661714D01*
X9926214Y-13676000D01*
X9940500Y-13704571D01*
X9940500Y-13861714D01*
X9940500Y-13704571D02*
X9954786Y-13676000D01*
X9983357Y-13661714D01*
X10026214Y-13661714D01*
X10054786Y-13676000D01*
X10069071Y-13704571D01*
X10069071Y-13861714D01*
X10654786Y-13547429D02*
X10397643Y-13933143D01*
X11040500Y-13561714D02*
X11069071Y-13561714D01*
X11097643Y-13576000D01*
X11111928Y-13590286D01*
X11126214Y-13618857D01*
X11140500Y-13676000D01*
X11140500Y-13747429D01*
X11126214Y-13804571D01*
X11111928Y-13833143D01*
X11097643Y-13847429D01*
X11069071Y-13861714D01*
X11040500Y-13861714D01*
X11011928Y-13847429D01*
X10997643Y-13833143D01*
X10983357Y-13804571D01*
X10969071Y-13747429D01*
X10969071Y-13676000D01*
X10983357Y-13618857D01*
X10997643Y-13590286D01*
X11011928Y-13576000D01*
X11040500Y-13561714D01*
X11269071Y-13833143D02*
X11283357Y-13847429D01*
X11269071Y-13861714D01*
X11254786Y-13847429D01*
X11269071Y-13833143D01*
X11269071Y-13861714D01*
X11469071Y-13561714D02*
X11497643Y-13561714D01*
X11526214Y-13576000D01*
X11540500Y-13590286D01*
X11554786Y-13618857D01*
X11569071Y-13676000D01*
X11569071Y-13747429D01*
X11554786Y-13804571D01*
X11540500Y-13833143D01*
X11526214Y-13847429D01*
X11497643Y-13861714D01*
X11469071Y-13861714D01*
X11440500Y-13847429D01*
X11426214Y-13833143D01*
X11411928Y-13804571D01*
X11397643Y-13747429D01*
X11397643Y-13676000D01*
X11411928Y-13618857D01*
X11426214Y-13590286D01*
X11440500Y-13576000D01*
X11469071Y-13561714D01*
X11669071Y-13561714D02*
X11854786Y-13561714D01*
X11754786Y-13676000D01*
X11797643Y-13676000D01*
X11826214Y-13690286D01*
X11840500Y-13704571D01*
X11854786Y-13733143D01*
X11854786Y-13804571D01*
X11840500Y-13833143D01*
X11826214Y-13847429D01*
X11797643Y-13861714D01*
X11711928Y-13861714D01*
X11683357Y-13847429D01*
X11669071Y-13833143D01*
X12140500Y-13861714D02*
X11969071Y-13861714D01*
X12054786Y-13861714D02*
X12054786Y-13561714D01*
X12026214Y-13604571D01*
X11997643Y-13633143D01*
X11969071Y-13647429D01*
X12254786Y-13561714D02*
X12254786Y-13618857D01*
X12369071Y-13561714D02*
X12369071Y-13618857D01*
X12811928Y-13976000D02*
X12797643Y-13961714D01*
X12769071Y-13918857D01*
X12754786Y-13890286D01*
X12740500Y-13847429D01*
X12726214Y-13776000D01*
X12726214Y-13718857D01*
X12740500Y-13647429D01*
X12754786Y-13604571D01*
X12769071Y-13576000D01*
X12797643Y-13533143D01*
X12811928Y-13518857D01*
X12911928Y-13590286D02*
X12926214Y-13576000D01*
X12954786Y-13561714D01*
X13026214Y-13561714D01*
X13054786Y-13576000D01*
X13069071Y-13590286D01*
X13083357Y-13618857D01*
X13083357Y-13647429D01*
X13069071Y-13690286D01*
X12897643Y-13861714D01*
X13083357Y-13861714D01*
X13340500Y-13561714D02*
X13283357Y-13561714D01*
X13254786Y-13576000D01*
X13240500Y-13590286D01*
X13211928Y-13633143D01*
X13197643Y-13690286D01*
X13197643Y-13804571D01*
X13211928Y-13833143D01*
X13226214Y-13847429D01*
X13254786Y-13861714D01*
X13311928Y-13861714D01*
X13340500Y-13847429D01*
X13354786Y-13833143D01*
X13369071Y-13804571D01*
X13369071Y-13733143D01*
X13354786Y-13704571D01*
X13340500Y-13690286D01*
X13311928Y-13676000D01*
X13254786Y-13676000D01*
X13226214Y-13690286D01*
X13211928Y-13704571D01*
X13197643Y-13733143D01*
X13726214Y-13861714D02*
X13726214Y-13561714D01*
X13854786Y-13861714D02*
X13854786Y-13704571D01*
X13840500Y-13676000D01*
X13811928Y-13661714D01*
X13769071Y-13661714D01*
X13740500Y-13676000D01*
X13726214Y-13690286D01*
X14040500Y-13861714D02*
X14011928Y-13847429D01*
X13997643Y-13833143D01*
X13983357Y-13804571D01*
X13983357Y-13718857D01*
X13997643Y-13690286D01*
X14011928Y-13676000D01*
X14040500Y-13661714D01*
X14083357Y-13661714D01*
X14111928Y-13676000D01*
X14126214Y-13690286D01*
X14140500Y-13718857D01*
X14140500Y-13804571D01*
X14126214Y-13833143D01*
X14111928Y-13847429D01*
X14083357Y-13861714D01*
X14040500Y-13861714D01*
X14311928Y-13861714D02*
X14283357Y-13847429D01*
X14269071Y-13818857D01*
X14269071Y-13561714D01*
X14540500Y-13847429D02*
X14511928Y-13861714D01*
X14454786Y-13861714D01*
X14426214Y-13847429D01*
X14411928Y-13818857D01*
X14411928Y-13704571D01*
X14426214Y-13676000D01*
X14454786Y-13661714D01*
X14511928Y-13661714D01*
X14540500Y-13676000D01*
X14554786Y-13704571D01*
X14554786Y-13733143D01*
X14411928Y-13761714D01*
X14669071Y-13847429D02*
X14697643Y-13861714D01*
X14754786Y-13861714D01*
X14783357Y-13847429D01*
X14797643Y-13818857D01*
X14797643Y-13804571D01*
X14783357Y-13776000D01*
X14754786Y-13761714D01*
X14711928Y-13761714D01*
X14683357Y-13747429D01*
X14669071Y-13718857D01*
X14669071Y-13704571D01*
X14683357Y-13676000D01*
X14711928Y-13661714D01*
X14754786Y-13661714D01*
X14783357Y-13676000D01*
X14897643Y-13976000D02*
X14911928Y-13961714D01*
X14940500Y-13918857D01*
X14954786Y-13890286D01*
X14969071Y-13847429D01*
X14983357Y-13776000D01*
X14983357Y-13718857D01*
X14969071Y-13647429D01*
X14954786Y-13604571D01*
X14940500Y-13576000D01*
X14911928Y-13533143D01*
X14897643Y-13518857D01*
X8125500Y-14122000D02*
G75*
G03*
X8125500Y-14122000I-45000J0D01*
G01*
X8469071Y-13957714D02*
X8497643Y-13957714D01*
X8526214Y-13972000D01*
X8540500Y-13986286D01*
X8554786Y-14014857D01*
X8569071Y-14072000D01*
X8569071Y-14143429D01*
X8554786Y-14200571D01*
X8540500Y-14229143D01*
X8526214Y-14243429D01*
X8497643Y-14257714D01*
X8469071Y-14257714D01*
X8440500Y-14243429D01*
X8426214Y-14229143D01*
X8411928Y-14200571D01*
X8397643Y-14143429D01*
X8397643Y-14072000D01*
X8411928Y-14014857D01*
X8426214Y-13986286D01*
X8440500Y-13972000D01*
X8469071Y-13957714D01*
X8697643Y-14229143D02*
X8711928Y-14243429D01*
X8697643Y-14257714D01*
X8683357Y-14243429D01*
X8697643Y-14229143D01*
X8697643Y-14257714D01*
X8854786Y-14257714D02*
X8911928Y-14257714D01*
X8940500Y-14243429D01*
X8954786Y-14229143D01*
X8983357Y-14186286D01*
X8997643Y-14129143D01*
X8997643Y-14014857D01*
X8983357Y-13986286D01*
X8969071Y-13972000D01*
X8940500Y-13957714D01*
X8883357Y-13957714D01*
X8854786Y-13972000D01*
X8840500Y-13986286D01*
X8826214Y-14014857D01*
X8826214Y-14086286D01*
X8840500Y-14114857D01*
X8854786Y-14129143D01*
X8883357Y-14143429D01*
X8940500Y-14143429D01*
X8969071Y-14129143D01*
X8983357Y-14114857D01*
X8997643Y-14086286D01*
X9183357Y-13957714D02*
X9211928Y-13957714D01*
X9240500Y-13972000D01*
X9254786Y-13986286D01*
X9269071Y-14014857D01*
X9283357Y-14072000D01*
X9283357Y-14143429D01*
X9269071Y-14200571D01*
X9254786Y-14229143D01*
X9240500Y-14243429D01*
X9211928Y-14257714D01*
X9183357Y-14257714D01*
X9154786Y-14243429D01*
X9140500Y-14229143D01*
X9126214Y-14200571D01*
X9111928Y-14143429D01*
X9111928Y-14072000D01*
X9126214Y-14014857D01*
X9140500Y-13986286D01*
X9154786Y-13972000D01*
X9183357Y-13957714D01*
X9411928Y-14257714D02*
X9411928Y-14057714D01*
X9411928Y-14086286D02*
X9426214Y-14072000D01*
X9454786Y-14057714D01*
X9497643Y-14057714D01*
X9526214Y-14072000D01*
X9540500Y-14100571D01*
X9540500Y-14257714D01*
X9540500Y-14100571D02*
X9554786Y-14072000D01*
X9583357Y-14057714D01*
X9626214Y-14057714D01*
X9654786Y-14072000D01*
X9669071Y-14100571D01*
X9669071Y-14257714D01*
X9811928Y-14257714D02*
X9811928Y-14057714D01*
X9811928Y-14086286D02*
X9826214Y-14072000D01*
X9854786Y-14057714D01*
X9897643Y-14057714D01*
X9926214Y-14072000D01*
X9940500Y-14100571D01*
X9940500Y-14257714D01*
X9940500Y-14100571D02*
X9954786Y-14072000D01*
X9983357Y-14057714D01*
X10026214Y-14057714D01*
X10054786Y-14072000D01*
X10069071Y-14100571D01*
X10069071Y-14257714D01*
X10654786Y-13943429D02*
X10397643Y-14329143D01*
X11040500Y-13957714D02*
X11069071Y-13957714D01*
X11097643Y-13972000D01*
X11111928Y-13986286D01*
X11126214Y-14014857D01*
X11140500Y-14072000D01*
X11140500Y-14143429D01*
X11126214Y-14200571D01*
X11111928Y-14229143D01*
X11097643Y-14243429D01*
X11069071Y-14257714D01*
X11040500Y-14257714D01*
X11011928Y-14243429D01*
X10997643Y-14229143D01*
X10983357Y-14200571D01*
X10969071Y-14143429D01*
X10969071Y-14072000D01*
X10983357Y-14014857D01*
X10997643Y-13986286D01*
X11011928Y-13972000D01*
X11040500Y-13957714D01*
X11269071Y-14229143D02*
X11283357Y-14243429D01*
X11269071Y-14257714D01*
X11254786Y-14243429D01*
X11269071Y-14229143D01*
X11269071Y-14257714D01*
X11469071Y-13957714D02*
X11497643Y-13957714D01*
X11526214Y-13972000D01*
X11540500Y-13986286D01*
X11554786Y-14014857D01*
X11569071Y-14072000D01*
X11569071Y-14143429D01*
X11554786Y-14200571D01*
X11540500Y-14229143D01*
X11526214Y-14243429D01*
X11497643Y-14257714D01*
X11469071Y-14257714D01*
X11440500Y-14243429D01*
X11426214Y-14229143D01*
X11411928Y-14200571D01*
X11397643Y-14143429D01*
X11397643Y-14072000D01*
X11411928Y-14014857D01*
X11426214Y-13986286D01*
X11440500Y-13972000D01*
X11469071Y-13957714D01*
X11669071Y-13957714D02*
X11854786Y-13957714D01*
X11754786Y-14072000D01*
X11797643Y-14072000D01*
X11826214Y-14086286D01*
X11840500Y-14100571D01*
X11854786Y-14129143D01*
X11854786Y-14200571D01*
X11840500Y-14229143D01*
X11826214Y-14243429D01*
X11797643Y-14257714D01*
X11711928Y-14257714D01*
X11683357Y-14243429D01*
X11669071Y-14229143D01*
X12126214Y-13957714D02*
X11983357Y-13957714D01*
X11969071Y-14100571D01*
X11983357Y-14086286D01*
X12011928Y-14072000D01*
X12083357Y-14072000D01*
X12111928Y-14086286D01*
X12126214Y-14100571D01*
X12140500Y-14129143D01*
X12140500Y-14200571D01*
X12126214Y-14229143D01*
X12111928Y-14243429D01*
X12083357Y-14257714D01*
X12011928Y-14257714D01*
X11983357Y-14243429D01*
X11969071Y-14229143D01*
X12254786Y-13957714D02*
X12254786Y-14014857D01*
X12369071Y-13957714D02*
X12369071Y-14014857D01*
X12811928Y-14372000D02*
X12797643Y-14357714D01*
X12769071Y-14314857D01*
X12754786Y-14286286D01*
X12740500Y-14243429D01*
X12726214Y-14172000D01*
X12726214Y-14114857D01*
X12740500Y-14043429D01*
X12754786Y-14000571D01*
X12769071Y-13972000D01*
X12797643Y-13929143D01*
X12811928Y-13914857D01*
X12897643Y-13957714D02*
X13083357Y-13957714D01*
X12983357Y-14072000D01*
X13026214Y-14072000D01*
X13054786Y-14086286D01*
X13069071Y-14100571D01*
X13083357Y-14129143D01*
X13083357Y-14200571D01*
X13069071Y-14229143D01*
X13054786Y-14243429D01*
X13026214Y-14257714D01*
X12940500Y-14257714D01*
X12911928Y-14243429D01*
X12897643Y-14229143D01*
X13440500Y-14257714D02*
X13440500Y-13957714D01*
X13569071Y-14257714D02*
X13569071Y-14100571D01*
X13554786Y-14072000D01*
X13526214Y-14057714D01*
X13483357Y-14057714D01*
X13454786Y-14072000D01*
X13440500Y-14086286D01*
X13754786Y-14257714D02*
X13726214Y-14243429D01*
X13711928Y-14229143D01*
X13697643Y-14200571D01*
X13697643Y-14114857D01*
X13711928Y-14086286D01*
X13726214Y-14072000D01*
X13754786Y-14057714D01*
X13797643Y-14057714D01*
X13826214Y-14072000D01*
X13840500Y-14086286D01*
X13854786Y-14114857D01*
X13854786Y-14200571D01*
X13840500Y-14229143D01*
X13826214Y-14243429D01*
X13797643Y-14257714D01*
X13754786Y-14257714D01*
X14026214Y-14257714D02*
X13997643Y-14243429D01*
X13983357Y-14214857D01*
X13983357Y-13957714D01*
X14254786Y-14243429D02*
X14226214Y-14257714D01*
X14169071Y-14257714D01*
X14140500Y-14243429D01*
X14126214Y-14214857D01*
X14126214Y-14100571D01*
X14140500Y-14072000D01*
X14169071Y-14057714D01*
X14226214Y-14057714D01*
X14254786Y-14072000D01*
X14269071Y-14100571D01*
X14269071Y-14129143D01*
X14126214Y-14157714D01*
X14383357Y-14243429D02*
X14411928Y-14257714D01*
X14469071Y-14257714D01*
X14497643Y-14243429D01*
X14511928Y-14214857D01*
X14511928Y-14200571D01*
X14497643Y-14172000D01*
X14469071Y-14157714D01*
X14426214Y-14157714D01*
X14397643Y-14143429D01*
X14383357Y-14114857D01*
X14383357Y-14100571D01*
X14397643Y-14072000D01*
X14426214Y-14057714D01*
X14469071Y-14057714D01*
X14497643Y-14072000D01*
X14611928Y-14372000D02*
X14626214Y-14357714D01*
X14654786Y-14314857D01*
X14669071Y-14286286D01*
X14683357Y-14243429D01*
X14697643Y-14172000D01*
X14697643Y-14114857D01*
X14683357Y-14043429D01*
X14669071Y-14000571D01*
X14654786Y-13972000D01*
X14626214Y-13929143D01*
X14611928Y-13914857D01*
X8075500Y-14468000D02*
X8075500Y-14568000D01*
X8025500Y-14518000D02*
X8125500Y-14518000D01*
X8569071Y-14653714D02*
X8397643Y-14653714D01*
X8483357Y-14653714D02*
X8483357Y-14353714D01*
X8454786Y-14396571D01*
X8426214Y-14425143D01*
X8397643Y-14439429D01*
X8697643Y-14625143D02*
X8711928Y-14639429D01*
X8697643Y-14653714D01*
X8683357Y-14639429D01*
X8697643Y-14625143D01*
X8697643Y-14653714D01*
X8897643Y-14353714D02*
X8926214Y-14353714D01*
X8954786Y-14368000D01*
X8969071Y-14382286D01*
X8983357Y-14410857D01*
X8997643Y-14468000D01*
X8997643Y-14539429D01*
X8983357Y-14596571D01*
X8969071Y-14625143D01*
X8954786Y-14639429D01*
X8926214Y-14653714D01*
X8897643Y-14653714D01*
X8869071Y-14639429D01*
X8854786Y-14625143D01*
X8840500Y-14596571D01*
X8826214Y-14539429D01*
X8826214Y-14468000D01*
X8840500Y-14410857D01*
X8854786Y-14382286D01*
X8869071Y-14368000D01*
X8897643Y-14353714D01*
X9183357Y-14353714D02*
X9211928Y-14353714D01*
X9240500Y-14368000D01*
X9254786Y-14382286D01*
X9269071Y-14410857D01*
X9283357Y-14468000D01*
X9283357Y-14539429D01*
X9269071Y-14596571D01*
X9254786Y-14625143D01*
X9240500Y-14639429D01*
X9211928Y-14653714D01*
X9183357Y-14653714D01*
X9154786Y-14639429D01*
X9140500Y-14625143D01*
X9126214Y-14596571D01*
X9111928Y-14539429D01*
X9111928Y-14468000D01*
X9126214Y-14410857D01*
X9140500Y-14382286D01*
X9154786Y-14368000D01*
X9183357Y-14353714D01*
X9411928Y-14653714D02*
X9411928Y-14453714D01*
X9411928Y-14482286D02*
X9426214Y-14468000D01*
X9454786Y-14453714D01*
X9497643Y-14453714D01*
X9526214Y-14468000D01*
X9540500Y-14496571D01*
X9540500Y-14653714D01*
X9540500Y-14496571D02*
X9554786Y-14468000D01*
X9583357Y-14453714D01*
X9626214Y-14453714D01*
X9654786Y-14468000D01*
X9669071Y-14496571D01*
X9669071Y-14653714D01*
X9811928Y-14653714D02*
X9811928Y-14453714D01*
X9811928Y-14482286D02*
X9826214Y-14468000D01*
X9854786Y-14453714D01*
X9897643Y-14453714D01*
X9926214Y-14468000D01*
X9940500Y-14496571D01*
X9940500Y-14653714D01*
X9940500Y-14496571D02*
X9954786Y-14468000D01*
X9983357Y-14453714D01*
X10026214Y-14453714D01*
X10054786Y-14468000D01*
X10069071Y-14496571D01*
X10069071Y-14653714D01*
X10654786Y-14339429D02*
X10397643Y-14725143D01*
X11040500Y-14353714D02*
X11069071Y-14353714D01*
X11097643Y-14368000D01*
X11111928Y-14382286D01*
X11126214Y-14410857D01*
X11140500Y-14468000D01*
X11140500Y-14539429D01*
X11126214Y-14596571D01*
X11111928Y-14625143D01*
X11097643Y-14639429D01*
X11069071Y-14653714D01*
X11040500Y-14653714D01*
X11011928Y-14639429D01*
X10997643Y-14625143D01*
X10983357Y-14596571D01*
X10969071Y-14539429D01*
X10969071Y-14468000D01*
X10983357Y-14410857D01*
X10997643Y-14382286D01*
X11011928Y-14368000D01*
X11040500Y-14353714D01*
X11269071Y-14625143D02*
X11283357Y-14639429D01*
X11269071Y-14653714D01*
X11254786Y-14639429D01*
X11269071Y-14625143D01*
X11269071Y-14653714D01*
X11469071Y-14353714D02*
X11497643Y-14353714D01*
X11526214Y-14368000D01*
X11540500Y-14382286D01*
X11554786Y-14410857D01*
X11569071Y-14468000D01*
X11569071Y-14539429D01*
X11554786Y-14596571D01*
X11540500Y-14625143D01*
X11526214Y-14639429D01*
X11497643Y-14653714D01*
X11469071Y-14653714D01*
X11440500Y-14639429D01*
X11426214Y-14625143D01*
X11411928Y-14596571D01*
X11397643Y-14539429D01*
X11397643Y-14468000D01*
X11411928Y-14410857D01*
X11426214Y-14382286D01*
X11440500Y-14368000D01*
X11469071Y-14353714D01*
X11669071Y-14353714D02*
X11854786Y-14353714D01*
X11754786Y-14468000D01*
X11797643Y-14468000D01*
X11826214Y-14482286D01*
X11840500Y-14496571D01*
X11854786Y-14525143D01*
X11854786Y-14596571D01*
X11840500Y-14625143D01*
X11826214Y-14639429D01*
X11797643Y-14653714D01*
X11711928Y-14653714D01*
X11683357Y-14639429D01*
X11669071Y-14625143D01*
X11997643Y-14653714D02*
X12054786Y-14653714D01*
X12083357Y-14639429D01*
X12097643Y-14625143D01*
X12126214Y-14582286D01*
X12140500Y-14525143D01*
X12140500Y-14410857D01*
X12126214Y-14382286D01*
X12111928Y-14368000D01*
X12083357Y-14353714D01*
X12026214Y-14353714D01*
X11997643Y-14368000D01*
X11983357Y-14382286D01*
X11969071Y-14410857D01*
X11969071Y-14482286D01*
X11983357Y-14510857D01*
X11997643Y-14525143D01*
X12026214Y-14539429D01*
X12083357Y-14539429D01*
X12111928Y-14525143D01*
X12126214Y-14510857D01*
X12140500Y-14482286D01*
X12254786Y-14353714D02*
X12254786Y-14410857D01*
X12369071Y-14353714D02*
X12369071Y-14410857D01*
X12811928Y-14768000D02*
X12797643Y-14753714D01*
X12769071Y-14710857D01*
X12754786Y-14682286D01*
X12740500Y-14639429D01*
X12726214Y-14568000D01*
X12726214Y-14510857D01*
X12740500Y-14439429D01*
X12754786Y-14396571D01*
X12769071Y-14368000D01*
X12797643Y-14325143D01*
X12811928Y-14310857D01*
X13054786Y-14453714D02*
X13054786Y-14653714D01*
X12983357Y-14339429D02*
X12911928Y-14553714D01*
X13097643Y-14553714D01*
X13269071Y-14353714D02*
X13297643Y-14353714D01*
X13326214Y-14368000D01*
X13340500Y-14382286D01*
X13354786Y-14410857D01*
X13369071Y-14468000D01*
X13369071Y-14539429D01*
X13354786Y-14596571D01*
X13340500Y-14625143D01*
X13326214Y-14639429D01*
X13297643Y-14653714D01*
X13269071Y-14653714D01*
X13240500Y-14639429D01*
X13226214Y-14625143D01*
X13211928Y-14596571D01*
X13197643Y-14539429D01*
X13197643Y-14468000D01*
X13211928Y-14410857D01*
X13226214Y-14382286D01*
X13240500Y-14368000D01*
X13269071Y-14353714D01*
X13726214Y-14653714D02*
X13726214Y-14353714D01*
X13854786Y-14653714D02*
X13854786Y-14496571D01*
X13840500Y-14468000D01*
X13811928Y-14453714D01*
X13769071Y-14453714D01*
X13740500Y-14468000D01*
X13726214Y-14482286D01*
X14040500Y-14653714D02*
X14011928Y-14639429D01*
X13997643Y-14625143D01*
X13983357Y-14596571D01*
X13983357Y-14510857D01*
X13997643Y-14482286D01*
X14011928Y-14468000D01*
X14040500Y-14453714D01*
X14083357Y-14453714D01*
X14111928Y-14468000D01*
X14126214Y-14482286D01*
X14140500Y-14510857D01*
X14140500Y-14596571D01*
X14126214Y-14625143D01*
X14111928Y-14639429D01*
X14083357Y-14653714D01*
X14040500Y-14653714D01*
X14311928Y-14653714D02*
X14283357Y-14639429D01*
X14269071Y-14610857D01*
X14269071Y-14353714D01*
X14540500Y-14639429D02*
X14511928Y-14653714D01*
X14454786Y-14653714D01*
X14426214Y-14639429D01*
X14411928Y-14610857D01*
X14411928Y-14496571D01*
X14426214Y-14468000D01*
X14454786Y-14453714D01*
X14511928Y-14453714D01*
X14540500Y-14468000D01*
X14554786Y-14496571D01*
X14554786Y-14525143D01*
X14411928Y-14553714D01*
X14669071Y-14639429D02*
X14697643Y-14653714D01*
X14754786Y-14653714D01*
X14783357Y-14639429D01*
X14797643Y-14610857D01*
X14797643Y-14596571D01*
X14783357Y-14568000D01*
X14754786Y-14553714D01*
X14711928Y-14553714D01*
X14683357Y-14539429D01*
X14669071Y-14510857D01*
X14669071Y-14496571D01*
X14683357Y-14468000D01*
X14711928Y-14453714D01*
X14754786Y-14453714D01*
X14783357Y-14468000D01*
X14897643Y-14768000D02*
X14911928Y-14753714D01*
X14940500Y-14710857D01*
X14954786Y-14682286D01*
X14969071Y-14639429D01*
X14983357Y-14568000D01*
X14983357Y-14510857D01*
X14969071Y-14439429D01*
X14954786Y-14396571D01*
X14940500Y-14368000D01*
X14911928Y-14325143D01*
X14897643Y-14310857D01*
X8109391Y-14952891D02*
X8109391Y-14875109D01*
X8031609Y-14875109D01*
X8031609Y-14952891D01*
X8109391Y-14952891D01*
X8569071Y-15049714D02*
X8397643Y-15049714D01*
X8483357Y-15049714D02*
X8483357Y-14749714D01*
X8454786Y-14792571D01*
X8426214Y-14821143D01*
X8397643Y-14835429D01*
X8697643Y-15021143D02*
X8711928Y-15035429D01*
X8697643Y-15049714D01*
X8683357Y-15035429D01*
X8697643Y-15021143D01*
X8697643Y-15049714D01*
X8997643Y-15049714D02*
X8826214Y-15049714D01*
X8911928Y-15049714D02*
X8911928Y-14749714D01*
X8883357Y-14792571D01*
X8854786Y-14821143D01*
X8826214Y-14835429D01*
X9183357Y-14749714D02*
X9211928Y-14749714D01*
X9240500Y-14764000D01*
X9254786Y-14778286D01*
X9269071Y-14806857D01*
X9283357Y-14864000D01*
X9283357Y-14935429D01*
X9269071Y-14992571D01*
X9254786Y-15021143D01*
X9240500Y-15035429D01*
X9211928Y-15049714D01*
X9183357Y-15049714D01*
X9154786Y-15035429D01*
X9140500Y-15021143D01*
X9126214Y-14992571D01*
X9111928Y-14935429D01*
X9111928Y-14864000D01*
X9126214Y-14806857D01*
X9140500Y-14778286D01*
X9154786Y-14764000D01*
X9183357Y-14749714D01*
X9411928Y-15049714D02*
X9411928Y-14849714D01*
X9411928Y-14878286D02*
X9426214Y-14864000D01*
X9454786Y-14849714D01*
X9497643Y-14849714D01*
X9526214Y-14864000D01*
X9540500Y-14892571D01*
X9540500Y-15049714D01*
X9540500Y-14892571D02*
X9554786Y-14864000D01*
X9583357Y-14849714D01*
X9626214Y-14849714D01*
X9654786Y-14864000D01*
X9669071Y-14892571D01*
X9669071Y-15049714D01*
X9811928Y-15049714D02*
X9811928Y-14849714D01*
X9811928Y-14878286D02*
X9826214Y-14864000D01*
X9854786Y-14849714D01*
X9897643Y-14849714D01*
X9926214Y-14864000D01*
X9940500Y-14892571D01*
X9940500Y-15049714D01*
X9940500Y-14892571D02*
X9954786Y-14864000D01*
X9983357Y-14849714D01*
X10026214Y-14849714D01*
X10054786Y-14864000D01*
X10069071Y-14892571D01*
X10069071Y-15049714D01*
X10654786Y-14735429D02*
X10397643Y-15121143D01*
X11040500Y-14749714D02*
X11069071Y-14749714D01*
X11097643Y-14764000D01*
X11111928Y-14778286D01*
X11126214Y-14806857D01*
X11140500Y-14864000D01*
X11140500Y-14935429D01*
X11126214Y-14992571D01*
X11111928Y-15021143D01*
X11097643Y-15035429D01*
X11069071Y-15049714D01*
X11040500Y-15049714D01*
X11011928Y-15035429D01*
X10997643Y-15021143D01*
X10983357Y-14992571D01*
X10969071Y-14935429D01*
X10969071Y-14864000D01*
X10983357Y-14806857D01*
X10997643Y-14778286D01*
X11011928Y-14764000D01*
X11040500Y-14749714D01*
X11269071Y-15021143D02*
X11283357Y-15035429D01*
X11269071Y-15049714D01*
X11254786Y-15035429D01*
X11269071Y-15021143D01*
X11269071Y-15049714D01*
X11469071Y-14749714D02*
X11497643Y-14749714D01*
X11526214Y-14764000D01*
X11540500Y-14778286D01*
X11554786Y-14806857D01*
X11569071Y-14864000D01*
X11569071Y-14935429D01*
X11554786Y-14992571D01*
X11540500Y-15021143D01*
X11526214Y-15035429D01*
X11497643Y-15049714D01*
X11469071Y-15049714D01*
X11440500Y-15035429D01*
X11426214Y-15021143D01*
X11411928Y-14992571D01*
X11397643Y-14935429D01*
X11397643Y-14864000D01*
X11411928Y-14806857D01*
X11426214Y-14778286D01*
X11440500Y-14764000D01*
X11469071Y-14749714D01*
X11826214Y-14849714D02*
X11826214Y-15049714D01*
X11754786Y-14735429D02*
X11683357Y-14949714D01*
X11869071Y-14949714D01*
X11954786Y-14749714D02*
X12140500Y-14749714D01*
X12040500Y-14864000D01*
X12083357Y-14864000D01*
X12111928Y-14878286D01*
X12126214Y-14892571D01*
X12140500Y-14921143D01*
X12140500Y-14992571D01*
X12126214Y-15021143D01*
X12111928Y-15035429D01*
X12083357Y-15049714D01*
X11997643Y-15049714D01*
X11969071Y-15035429D01*
X11954786Y-15021143D01*
X12254786Y-14749714D02*
X12254786Y-14806857D01*
X12369071Y-14749714D02*
X12369071Y-14806857D01*
X12811928Y-15164000D02*
X12797643Y-15149714D01*
X12769071Y-15106857D01*
X12754786Y-15078286D01*
X12740500Y-15035429D01*
X12726214Y-14964000D01*
X12726214Y-14906857D01*
X12740500Y-14835429D01*
X12754786Y-14792571D01*
X12769071Y-14764000D01*
X12797643Y-14721143D01*
X12811928Y-14706857D01*
X13083357Y-15049714D02*
X12911928Y-15049714D01*
X12997643Y-15049714D02*
X12997643Y-14749714D01*
X12969071Y-14792571D01*
X12940500Y-14821143D01*
X12911928Y-14835429D01*
X13269071Y-14749714D02*
X13297643Y-14749714D01*
X13326214Y-14764000D01*
X13340500Y-14778286D01*
X13354786Y-14806857D01*
X13369071Y-14864000D01*
X13369071Y-14935429D01*
X13354786Y-14992571D01*
X13340500Y-15021143D01*
X13326214Y-15035429D01*
X13297643Y-15049714D01*
X13269071Y-15049714D01*
X13240500Y-15035429D01*
X13226214Y-15021143D01*
X13211928Y-14992571D01*
X13197643Y-14935429D01*
X13197643Y-14864000D01*
X13211928Y-14806857D01*
X13226214Y-14778286D01*
X13240500Y-14764000D01*
X13269071Y-14749714D01*
X13726214Y-15049714D02*
X13726214Y-14749714D01*
X13854786Y-15049714D02*
X13854786Y-14892571D01*
X13840500Y-14864000D01*
X13811928Y-14849714D01*
X13769071Y-14849714D01*
X13740500Y-14864000D01*
X13726214Y-14878286D01*
X14040500Y-15049714D02*
X14011928Y-15035429D01*
X13997643Y-15021143D01*
X13983357Y-14992571D01*
X13983357Y-14906857D01*
X13997643Y-14878286D01*
X14011928Y-14864000D01*
X14040500Y-14849714D01*
X14083357Y-14849714D01*
X14111928Y-14864000D01*
X14126214Y-14878286D01*
X14140500Y-14906857D01*
X14140500Y-14992571D01*
X14126214Y-15021143D01*
X14111928Y-15035429D01*
X14083357Y-15049714D01*
X14040500Y-15049714D01*
X14311928Y-15049714D02*
X14283357Y-15035429D01*
X14269071Y-15006857D01*
X14269071Y-14749714D01*
X14540500Y-15035429D02*
X14511928Y-15049714D01*
X14454786Y-15049714D01*
X14426214Y-15035429D01*
X14411928Y-15006857D01*
X14411928Y-14892571D01*
X14426214Y-14864000D01*
X14454786Y-14849714D01*
X14511928Y-14849714D01*
X14540500Y-14864000D01*
X14554786Y-14892571D01*
X14554786Y-14921143D01*
X14411928Y-14949714D01*
X14669071Y-15035429D02*
X14697643Y-15049714D01*
X14754786Y-15049714D01*
X14783357Y-15035429D01*
X14797643Y-15006857D01*
X14797643Y-14992571D01*
X14783357Y-14964000D01*
X14754786Y-14949714D01*
X14711928Y-14949714D01*
X14683357Y-14935429D01*
X14669071Y-14906857D01*
X14669071Y-14892571D01*
X14683357Y-14864000D01*
X14711928Y-14849714D01*
X14754786Y-14849714D01*
X14783357Y-14864000D01*
X14897643Y-15164000D02*
X14911928Y-15149714D01*
X14940500Y-15106857D01*
X14954786Y-15078286D01*
X14969071Y-15035429D01*
X14983357Y-14964000D01*
X14983357Y-14906857D01*
X14969071Y-14835429D01*
X14954786Y-14792571D01*
X14940500Y-14764000D01*
X14911928Y-14721143D01*
X14897643Y-14706857D01*
X8060500Y-15375000D02*
X8125500Y-15310000D01*
X8060500Y-15245000D01*
X7995500Y-15310000D01*
X8060500Y-15375000D01*
X8569071Y-15445714D02*
X8397643Y-15445714D01*
X8483357Y-15445714D02*
X8483357Y-15145714D01*
X8454786Y-15188571D01*
X8426214Y-15217143D01*
X8397643Y-15231429D01*
X8697643Y-15417143D02*
X8711928Y-15431429D01*
X8697643Y-15445714D01*
X8683357Y-15431429D01*
X8697643Y-15417143D01*
X8697643Y-15445714D01*
X8811928Y-15145714D02*
X8997643Y-15145714D01*
X8897643Y-15260000D01*
X8940500Y-15260000D01*
X8969071Y-15274286D01*
X8983357Y-15288571D01*
X8997643Y-15317143D01*
X8997643Y-15388571D01*
X8983357Y-15417143D01*
X8969071Y-15431429D01*
X8940500Y-15445714D01*
X8854786Y-15445714D01*
X8826214Y-15431429D01*
X8811928Y-15417143D01*
X9183357Y-15145714D02*
X9211928Y-15145714D01*
X9240500Y-15160000D01*
X9254786Y-15174286D01*
X9269071Y-15202857D01*
X9283357Y-15260000D01*
X9283357Y-15331429D01*
X9269071Y-15388571D01*
X9254786Y-15417143D01*
X9240500Y-15431429D01*
X9211928Y-15445714D01*
X9183357Y-15445714D01*
X9154786Y-15431429D01*
X9140500Y-15417143D01*
X9126214Y-15388571D01*
X9111928Y-15331429D01*
X9111928Y-15260000D01*
X9126214Y-15202857D01*
X9140500Y-15174286D01*
X9154786Y-15160000D01*
X9183357Y-15145714D01*
X9411928Y-15445714D02*
X9411928Y-15245714D01*
X9411928Y-15274286D02*
X9426214Y-15260000D01*
X9454786Y-15245714D01*
X9497643Y-15245714D01*
X9526214Y-15260000D01*
X9540500Y-15288571D01*
X9540500Y-15445714D01*
X9540500Y-15288571D02*
X9554786Y-15260000D01*
X9583357Y-15245714D01*
X9626214Y-15245714D01*
X9654786Y-15260000D01*
X9669071Y-15288571D01*
X9669071Y-15445714D01*
X9811928Y-15445714D02*
X9811928Y-15245714D01*
X9811928Y-15274286D02*
X9826214Y-15260000D01*
X9854786Y-15245714D01*
X9897643Y-15245714D01*
X9926214Y-15260000D01*
X9940500Y-15288571D01*
X9940500Y-15445714D01*
X9940500Y-15288571D02*
X9954786Y-15260000D01*
X9983357Y-15245714D01*
X10026214Y-15245714D01*
X10054786Y-15260000D01*
X10069071Y-15288571D01*
X10069071Y-15445714D01*
X10654786Y-15131429D02*
X10397643Y-15517143D01*
X11040500Y-15145714D02*
X11069071Y-15145714D01*
X11097643Y-15160000D01*
X11111928Y-15174286D01*
X11126214Y-15202857D01*
X11140500Y-15260000D01*
X11140500Y-15331429D01*
X11126214Y-15388571D01*
X11111928Y-15417143D01*
X11097643Y-15431429D01*
X11069071Y-15445714D01*
X11040500Y-15445714D01*
X11011928Y-15431429D01*
X10997643Y-15417143D01*
X10983357Y-15388571D01*
X10969071Y-15331429D01*
X10969071Y-15260000D01*
X10983357Y-15202857D01*
X10997643Y-15174286D01*
X11011928Y-15160000D01*
X11040500Y-15145714D01*
X11269071Y-15417143D02*
X11283357Y-15431429D01*
X11269071Y-15445714D01*
X11254786Y-15431429D01*
X11269071Y-15417143D01*
X11269071Y-15445714D01*
X11469071Y-15145714D02*
X11497643Y-15145714D01*
X11526214Y-15160000D01*
X11540500Y-15174286D01*
X11554786Y-15202857D01*
X11569071Y-15260000D01*
X11569071Y-15331429D01*
X11554786Y-15388571D01*
X11540500Y-15417143D01*
X11526214Y-15431429D01*
X11497643Y-15445714D01*
X11469071Y-15445714D01*
X11440500Y-15431429D01*
X11426214Y-15417143D01*
X11411928Y-15388571D01*
X11397643Y-15331429D01*
X11397643Y-15260000D01*
X11411928Y-15202857D01*
X11426214Y-15174286D01*
X11440500Y-15160000D01*
X11469071Y-15145714D01*
X11840500Y-15145714D02*
X11697643Y-15145714D01*
X11683357Y-15288571D01*
X11697643Y-15274286D01*
X11726214Y-15260000D01*
X11797643Y-15260000D01*
X11826214Y-15274286D01*
X11840500Y-15288571D01*
X11854786Y-15317143D01*
X11854786Y-15388571D01*
X11840500Y-15417143D01*
X11826214Y-15431429D01*
X11797643Y-15445714D01*
X11726214Y-15445714D01*
X11697643Y-15431429D01*
X11683357Y-15417143D01*
X12140500Y-15445714D02*
X11969071Y-15445714D01*
X12054786Y-15445714D02*
X12054786Y-15145714D01*
X12026214Y-15188571D01*
X11997643Y-15217143D01*
X11969071Y-15231429D01*
X12254786Y-15145714D02*
X12254786Y-15202857D01*
X12369071Y-15145714D02*
X12369071Y-15202857D01*
X12811928Y-15560000D02*
X12797643Y-15545714D01*
X12769071Y-15502857D01*
X12754786Y-15474286D01*
X12740500Y-15431429D01*
X12726214Y-15360000D01*
X12726214Y-15302857D01*
X12740500Y-15231429D01*
X12754786Y-15188571D01*
X12769071Y-15160000D01*
X12797643Y-15117143D01*
X12811928Y-15102857D01*
X13069071Y-15145714D02*
X12926214Y-15145714D01*
X12911928Y-15288571D01*
X12926214Y-15274286D01*
X12954786Y-15260000D01*
X13026214Y-15260000D01*
X13054786Y-15274286D01*
X13069071Y-15288571D01*
X13083357Y-15317143D01*
X13083357Y-15388571D01*
X13069071Y-15417143D01*
X13054786Y-15431429D01*
X13026214Y-15445714D01*
X12954786Y-15445714D01*
X12926214Y-15431429D01*
X12911928Y-15417143D01*
X13440500Y-15445714D02*
X13440500Y-15145714D01*
X13569071Y-15445714D02*
X13569071Y-15288571D01*
X13554786Y-15260000D01*
X13526214Y-15245714D01*
X13483357Y-15245714D01*
X13454786Y-15260000D01*
X13440500Y-15274286D01*
X13754786Y-15445714D02*
X13726214Y-15431429D01*
X13711928Y-15417143D01*
X13697643Y-15388571D01*
X13697643Y-15302857D01*
X13711928Y-15274286D01*
X13726214Y-15260000D01*
X13754786Y-15245714D01*
X13797643Y-15245714D01*
X13826214Y-15260000D01*
X13840500Y-15274286D01*
X13854786Y-15302857D01*
X13854786Y-15388571D01*
X13840500Y-15417143D01*
X13826214Y-15431429D01*
X13797643Y-15445714D01*
X13754786Y-15445714D01*
X14026214Y-15445714D02*
X13997643Y-15431429D01*
X13983357Y-15402857D01*
X13983357Y-15145714D01*
X14254786Y-15431429D02*
X14226214Y-15445714D01*
X14169071Y-15445714D01*
X14140500Y-15431429D01*
X14126214Y-15402857D01*
X14126214Y-15288571D01*
X14140500Y-15260000D01*
X14169071Y-15245714D01*
X14226214Y-15245714D01*
X14254786Y-15260000D01*
X14269071Y-15288571D01*
X14269071Y-15317143D01*
X14126214Y-15345714D01*
X14383357Y-15431429D02*
X14411928Y-15445714D01*
X14469071Y-15445714D01*
X14497643Y-15431429D01*
X14511928Y-15402857D01*
X14511928Y-15388571D01*
X14497643Y-15360000D01*
X14469071Y-15345714D01*
X14426214Y-15345714D01*
X14397643Y-15331429D01*
X14383357Y-15302857D01*
X14383357Y-15288571D01*
X14397643Y-15260000D01*
X14426214Y-15245714D01*
X14469071Y-15245714D01*
X14497643Y-15260000D01*
X14611928Y-15560000D02*
X14626214Y-15545714D01*
X14654786Y-15502857D01*
X14669071Y-15474286D01*
X14683357Y-15431429D01*
X14697643Y-15360000D01*
X14697643Y-15302857D01*
X14683357Y-15231429D01*
X14669071Y-15188571D01*
X14654786Y-15160000D01*
X14626214Y-15117143D01*
X14611928Y-15102857D01*
X7993500Y-15640000D02*
X8125500Y-15772000D01*
X8125500Y-15640000D02*
X7993500Y-15772000D01*
X8125500Y-15706000D02*
G75*
G03*
X8125500Y-15706000I-66000J0D01*
G01*
X8569071Y-15841714D02*
X8397643Y-15841714D01*
X8483357Y-15841714D02*
X8483357Y-15541714D01*
X8454786Y-15584571D01*
X8426214Y-15613143D01*
X8397643Y-15627429D01*
X8697643Y-15813143D02*
X8711928Y-15827429D01*
X8697643Y-15841714D01*
X8683357Y-15827429D01*
X8697643Y-15813143D01*
X8697643Y-15841714D01*
X8811928Y-15541714D02*
X8997643Y-15541714D01*
X8897643Y-15656000D01*
X8940500Y-15656000D01*
X8969071Y-15670286D01*
X8983357Y-15684571D01*
X8997643Y-15713143D01*
X8997643Y-15784571D01*
X8983357Y-15813143D01*
X8969071Y-15827429D01*
X8940500Y-15841714D01*
X8854786Y-15841714D01*
X8826214Y-15827429D01*
X8811928Y-15813143D01*
X9111928Y-15570286D02*
X9126214Y-15556000D01*
X9154786Y-15541714D01*
X9226214Y-15541714D01*
X9254786Y-15556000D01*
X9269071Y-15570286D01*
X9283357Y-15598857D01*
X9283357Y-15627429D01*
X9269071Y-15670286D01*
X9097643Y-15841714D01*
X9283357Y-15841714D01*
X9411928Y-15841714D02*
X9411928Y-15641714D01*
X9411928Y-15670286D02*
X9426214Y-15656000D01*
X9454786Y-15641714D01*
X9497643Y-15641714D01*
X9526214Y-15656000D01*
X9540500Y-15684571D01*
X9540500Y-15841714D01*
X9540500Y-15684571D02*
X9554786Y-15656000D01*
X9583357Y-15641714D01*
X9626214Y-15641714D01*
X9654786Y-15656000D01*
X9669071Y-15684571D01*
X9669071Y-15841714D01*
X9811928Y-15841714D02*
X9811928Y-15641714D01*
X9811928Y-15670286D02*
X9826214Y-15656000D01*
X9854786Y-15641714D01*
X9897643Y-15641714D01*
X9926214Y-15656000D01*
X9940500Y-15684571D01*
X9940500Y-15841714D01*
X9940500Y-15684571D02*
X9954786Y-15656000D01*
X9983357Y-15641714D01*
X10026214Y-15641714D01*
X10054786Y-15656000D01*
X10069071Y-15684571D01*
X10069071Y-15841714D01*
X10654786Y-15527429D02*
X10397643Y-15913143D01*
X11040500Y-15541714D02*
X11069071Y-15541714D01*
X11097643Y-15556000D01*
X11111928Y-15570286D01*
X11126214Y-15598857D01*
X11140500Y-15656000D01*
X11140500Y-15727429D01*
X11126214Y-15784571D01*
X11111928Y-15813143D01*
X11097643Y-15827429D01*
X11069071Y-15841714D01*
X11040500Y-15841714D01*
X11011928Y-15827429D01*
X10997643Y-15813143D01*
X10983357Y-15784571D01*
X10969071Y-15727429D01*
X10969071Y-15656000D01*
X10983357Y-15598857D01*
X10997643Y-15570286D01*
X11011928Y-15556000D01*
X11040500Y-15541714D01*
X11269071Y-15813143D02*
X11283357Y-15827429D01*
X11269071Y-15841714D01*
X11254786Y-15827429D01*
X11269071Y-15813143D01*
X11269071Y-15841714D01*
X11469071Y-15541714D02*
X11497643Y-15541714D01*
X11526214Y-15556000D01*
X11540500Y-15570286D01*
X11554786Y-15598857D01*
X11569071Y-15656000D01*
X11569071Y-15727429D01*
X11554786Y-15784571D01*
X11540500Y-15813143D01*
X11526214Y-15827429D01*
X11497643Y-15841714D01*
X11469071Y-15841714D01*
X11440500Y-15827429D01*
X11426214Y-15813143D01*
X11411928Y-15784571D01*
X11397643Y-15727429D01*
X11397643Y-15656000D01*
X11411928Y-15598857D01*
X11426214Y-15570286D01*
X11440500Y-15556000D01*
X11469071Y-15541714D01*
X11840500Y-15541714D02*
X11697643Y-15541714D01*
X11683357Y-15684571D01*
X11697643Y-15670286D01*
X11726214Y-15656000D01*
X11797643Y-15656000D01*
X11826214Y-15670286D01*
X11840500Y-15684571D01*
X11854786Y-15713143D01*
X11854786Y-15784571D01*
X11840500Y-15813143D01*
X11826214Y-15827429D01*
X11797643Y-15841714D01*
X11726214Y-15841714D01*
X11697643Y-15827429D01*
X11683357Y-15813143D01*
X11969071Y-15570286D02*
X11983357Y-15556000D01*
X12011928Y-15541714D01*
X12083357Y-15541714D01*
X12111928Y-15556000D01*
X12126214Y-15570286D01*
X12140500Y-15598857D01*
X12140500Y-15627429D01*
X12126214Y-15670286D01*
X11954786Y-15841714D01*
X12140500Y-15841714D01*
X12254786Y-15541714D02*
X12254786Y-15598857D01*
X12369071Y-15541714D02*
X12369071Y-15598857D01*
X12811928Y-15956000D02*
X12797643Y-15941714D01*
X12769071Y-15898857D01*
X12754786Y-15870286D01*
X12740500Y-15827429D01*
X12726214Y-15756000D01*
X12726214Y-15698857D01*
X12740500Y-15627429D01*
X12754786Y-15584571D01*
X12769071Y-15556000D01*
X12797643Y-15513143D01*
X12811928Y-15498857D01*
X12969071Y-15670286D02*
X12940500Y-15656000D01*
X12926214Y-15641714D01*
X12911928Y-15613143D01*
X12911928Y-15598857D01*
X12926214Y-15570286D01*
X12940500Y-15556000D01*
X12969071Y-15541714D01*
X13026214Y-15541714D01*
X13054786Y-15556000D01*
X13069071Y-15570286D01*
X13083357Y-15598857D01*
X13083357Y-15613143D01*
X13069071Y-15641714D01*
X13054786Y-15656000D01*
X13026214Y-15670286D01*
X12969071Y-15670286D01*
X12940500Y-15684571D01*
X12926214Y-15698857D01*
X12911928Y-15727429D01*
X12911928Y-15784571D01*
X12926214Y-15813143D01*
X12940500Y-15827429D01*
X12969071Y-15841714D01*
X13026214Y-15841714D01*
X13054786Y-15827429D01*
X13069071Y-15813143D01*
X13083357Y-15784571D01*
X13083357Y-15727429D01*
X13069071Y-15698857D01*
X13054786Y-15684571D01*
X13026214Y-15670286D01*
X13440500Y-15841714D02*
X13440500Y-15541714D01*
X13569071Y-15841714D02*
X13569071Y-15684571D01*
X13554786Y-15656000D01*
X13526214Y-15641714D01*
X13483357Y-15641714D01*
X13454786Y-15656000D01*
X13440500Y-15670286D01*
X13754786Y-15841714D02*
X13726214Y-15827429D01*
X13711928Y-15813143D01*
X13697643Y-15784571D01*
X13697643Y-15698857D01*
X13711928Y-15670286D01*
X13726214Y-15656000D01*
X13754786Y-15641714D01*
X13797643Y-15641714D01*
X13826214Y-15656000D01*
X13840500Y-15670286D01*
X13854786Y-15698857D01*
X13854786Y-15784571D01*
X13840500Y-15813143D01*
X13826214Y-15827429D01*
X13797643Y-15841714D01*
X13754786Y-15841714D01*
X14026214Y-15841714D02*
X13997643Y-15827429D01*
X13983357Y-15798857D01*
X13983357Y-15541714D01*
X14254786Y-15827429D02*
X14226214Y-15841714D01*
X14169071Y-15841714D01*
X14140500Y-15827429D01*
X14126214Y-15798857D01*
X14126214Y-15684571D01*
X14140500Y-15656000D01*
X14169071Y-15641714D01*
X14226214Y-15641714D01*
X14254786Y-15656000D01*
X14269071Y-15684571D01*
X14269071Y-15713143D01*
X14126214Y-15741714D01*
X14383357Y-15827429D02*
X14411928Y-15841714D01*
X14469071Y-15841714D01*
X14497643Y-15827429D01*
X14511928Y-15798857D01*
X14511928Y-15784571D01*
X14497643Y-15756000D01*
X14469071Y-15741714D01*
X14426214Y-15741714D01*
X14397643Y-15727429D01*
X14383357Y-15698857D01*
X14383357Y-15684571D01*
X14397643Y-15656000D01*
X14426214Y-15641714D01*
X14469071Y-15641714D01*
X14497643Y-15656000D01*
X14611928Y-15956000D02*
X14626214Y-15941714D01*
X14654786Y-15898857D01*
X14669071Y-15870286D01*
X14683357Y-15827429D01*
X14697643Y-15756000D01*
X14697643Y-15698857D01*
X14683357Y-15627429D01*
X14669071Y-15584571D01*
X14654786Y-15556000D01*
X14626214Y-15513143D01*
X14611928Y-15498857D01*
X7975500Y-16027000D02*
X8125500Y-16177000D01*
X8125500Y-16027000D02*
X7975500Y-16177000D01*
X8050500Y-16027000D02*
X8050500Y-16177000D01*
X7975500Y-16102000D02*
X8125500Y-16102000D01*
X8569071Y-16237714D02*
X8397643Y-16237714D01*
X8483357Y-16237714D02*
X8483357Y-15937714D01*
X8454786Y-15980571D01*
X8426214Y-16009143D01*
X8397643Y-16023429D01*
X8697643Y-16209143D02*
X8711928Y-16223429D01*
X8697643Y-16237714D01*
X8683357Y-16223429D01*
X8697643Y-16209143D01*
X8697643Y-16237714D01*
X8983357Y-15937714D02*
X8840500Y-15937714D01*
X8826214Y-16080571D01*
X8840500Y-16066286D01*
X8869071Y-16052000D01*
X8940500Y-16052000D01*
X8969071Y-16066286D01*
X8983357Y-16080571D01*
X8997643Y-16109143D01*
X8997643Y-16180571D01*
X8983357Y-16209143D01*
X8969071Y-16223429D01*
X8940500Y-16237714D01*
X8869071Y-16237714D01*
X8840500Y-16223429D01*
X8826214Y-16209143D01*
X9183357Y-15937714D02*
X9211928Y-15937714D01*
X9240500Y-15952000D01*
X9254786Y-15966286D01*
X9269071Y-15994857D01*
X9283357Y-16052000D01*
X9283357Y-16123429D01*
X9269071Y-16180571D01*
X9254786Y-16209143D01*
X9240500Y-16223429D01*
X9211928Y-16237714D01*
X9183357Y-16237714D01*
X9154786Y-16223429D01*
X9140500Y-16209143D01*
X9126214Y-16180571D01*
X9111928Y-16123429D01*
X9111928Y-16052000D01*
X9126214Y-15994857D01*
X9140500Y-15966286D01*
X9154786Y-15952000D01*
X9183357Y-15937714D01*
X9411928Y-16237714D02*
X9411928Y-16037714D01*
X9411928Y-16066286D02*
X9426214Y-16052000D01*
X9454786Y-16037714D01*
X9497643Y-16037714D01*
X9526214Y-16052000D01*
X9540500Y-16080571D01*
X9540500Y-16237714D01*
X9540500Y-16080571D02*
X9554786Y-16052000D01*
X9583357Y-16037714D01*
X9626214Y-16037714D01*
X9654786Y-16052000D01*
X9669071Y-16080571D01*
X9669071Y-16237714D01*
X9811928Y-16237714D02*
X9811928Y-16037714D01*
X9811928Y-16066286D02*
X9826214Y-16052000D01*
X9854786Y-16037714D01*
X9897643Y-16037714D01*
X9926214Y-16052000D01*
X9940500Y-16080571D01*
X9940500Y-16237714D01*
X9940500Y-16080571D02*
X9954786Y-16052000D01*
X9983357Y-16037714D01*
X10026214Y-16037714D01*
X10054786Y-16052000D01*
X10069071Y-16080571D01*
X10069071Y-16237714D01*
X10654786Y-15923429D02*
X10397643Y-16309143D01*
X11040500Y-15937714D02*
X11069071Y-15937714D01*
X11097643Y-15952000D01*
X11111928Y-15966286D01*
X11126214Y-15994857D01*
X11140500Y-16052000D01*
X11140500Y-16123429D01*
X11126214Y-16180571D01*
X11111928Y-16209143D01*
X11097643Y-16223429D01*
X11069071Y-16237714D01*
X11040500Y-16237714D01*
X11011928Y-16223429D01*
X10997643Y-16209143D01*
X10983357Y-16180571D01*
X10969071Y-16123429D01*
X10969071Y-16052000D01*
X10983357Y-15994857D01*
X10997643Y-15966286D01*
X11011928Y-15952000D01*
X11040500Y-15937714D01*
X11269071Y-16209143D02*
X11283357Y-16223429D01*
X11269071Y-16237714D01*
X11254786Y-16223429D01*
X11269071Y-16209143D01*
X11269071Y-16237714D01*
X11469071Y-15937714D02*
X11497643Y-15937714D01*
X11526214Y-15952000D01*
X11540500Y-15966286D01*
X11554786Y-15994857D01*
X11569071Y-16052000D01*
X11569071Y-16123429D01*
X11554786Y-16180571D01*
X11540500Y-16209143D01*
X11526214Y-16223429D01*
X11497643Y-16237714D01*
X11469071Y-16237714D01*
X11440500Y-16223429D01*
X11426214Y-16209143D01*
X11411928Y-16180571D01*
X11397643Y-16123429D01*
X11397643Y-16052000D01*
X11411928Y-15994857D01*
X11426214Y-15966286D01*
X11440500Y-15952000D01*
X11469071Y-15937714D01*
X11840500Y-15937714D02*
X11697643Y-15937714D01*
X11683357Y-16080571D01*
X11697643Y-16066286D01*
X11726214Y-16052000D01*
X11797643Y-16052000D01*
X11826214Y-16066286D01*
X11840500Y-16080571D01*
X11854786Y-16109143D01*
X11854786Y-16180571D01*
X11840500Y-16209143D01*
X11826214Y-16223429D01*
X11797643Y-16237714D01*
X11726214Y-16237714D01*
X11697643Y-16223429D01*
X11683357Y-16209143D01*
X11997643Y-16237714D02*
X12054786Y-16237714D01*
X12083357Y-16223429D01*
X12097643Y-16209143D01*
X12126214Y-16166286D01*
X12140500Y-16109143D01*
X12140500Y-15994857D01*
X12126214Y-15966286D01*
X12111928Y-15952000D01*
X12083357Y-15937714D01*
X12026214Y-15937714D01*
X11997643Y-15952000D01*
X11983357Y-15966286D01*
X11969071Y-15994857D01*
X11969071Y-16066286D01*
X11983357Y-16094857D01*
X11997643Y-16109143D01*
X12026214Y-16123429D01*
X12083357Y-16123429D01*
X12111928Y-16109143D01*
X12126214Y-16094857D01*
X12140500Y-16066286D01*
X12254786Y-15937714D02*
X12254786Y-15994857D01*
X12369071Y-15937714D02*
X12369071Y-15994857D01*
X12811928Y-16352000D02*
X12797643Y-16337714D01*
X12769071Y-16294857D01*
X12754786Y-16266286D01*
X12740500Y-16223429D01*
X12726214Y-16152000D01*
X12726214Y-16094857D01*
X12740500Y-16023429D01*
X12754786Y-15980571D01*
X12769071Y-15952000D01*
X12797643Y-15909143D01*
X12811928Y-15894857D01*
X13054786Y-16037714D02*
X13054786Y-16237714D01*
X12983357Y-15923429D02*
X12911928Y-16137714D01*
X13097643Y-16137714D01*
X13440500Y-16237714D02*
X13440500Y-15937714D01*
X13569071Y-16237714D02*
X13569071Y-16080571D01*
X13554786Y-16052000D01*
X13526214Y-16037714D01*
X13483357Y-16037714D01*
X13454786Y-16052000D01*
X13440500Y-16066286D01*
X13754786Y-16237714D02*
X13726214Y-16223429D01*
X13711928Y-16209143D01*
X13697643Y-16180571D01*
X13697643Y-16094857D01*
X13711928Y-16066286D01*
X13726214Y-16052000D01*
X13754786Y-16037714D01*
X13797643Y-16037714D01*
X13826214Y-16052000D01*
X13840500Y-16066286D01*
X13854786Y-16094857D01*
X13854786Y-16180571D01*
X13840500Y-16209143D01*
X13826214Y-16223429D01*
X13797643Y-16237714D01*
X13754786Y-16237714D01*
X14026214Y-16237714D02*
X13997643Y-16223429D01*
X13983357Y-16194857D01*
X13983357Y-15937714D01*
X14254786Y-16223429D02*
X14226214Y-16237714D01*
X14169071Y-16237714D01*
X14140500Y-16223429D01*
X14126214Y-16194857D01*
X14126214Y-16080571D01*
X14140500Y-16052000D01*
X14169071Y-16037714D01*
X14226214Y-16037714D01*
X14254786Y-16052000D01*
X14269071Y-16080571D01*
X14269071Y-16109143D01*
X14126214Y-16137714D01*
X14383357Y-16223429D02*
X14411928Y-16237714D01*
X14469071Y-16237714D01*
X14497643Y-16223429D01*
X14511928Y-16194857D01*
X14511928Y-16180571D01*
X14497643Y-16152000D01*
X14469071Y-16137714D01*
X14426214Y-16137714D01*
X14397643Y-16123429D01*
X14383357Y-16094857D01*
X14383357Y-16080571D01*
X14397643Y-16052000D01*
X14426214Y-16037714D01*
X14469071Y-16037714D01*
X14497643Y-16052000D01*
X14611928Y-16352000D02*
X14626214Y-16337714D01*
X14654786Y-16294857D01*
X14669071Y-16266286D01*
X14683357Y-16223429D01*
X14697643Y-16152000D01*
X14697643Y-16094857D01*
X14683357Y-16023429D01*
X14669071Y-15980571D01*
X14654786Y-15952000D01*
X14626214Y-15909143D01*
X14611928Y-15894857D01*
X7805500Y-16338000D02*
X8125500Y-16658000D01*
X8125500Y-16338000D02*
X7805500Y-16658000D01*
X8078638Y-16611138D02*
X8078638Y-16384862D01*
X7852362Y-16384862D01*
X7852362Y-16611138D01*
X8078638Y-16611138D01*
X8383357Y-16333714D02*
X8569071Y-16333714D01*
X8469071Y-16448000D01*
X8511928Y-16448000D01*
X8540500Y-16462286D01*
X8554786Y-16476571D01*
X8569071Y-16505143D01*
X8569071Y-16576571D01*
X8554786Y-16605143D01*
X8540500Y-16619429D01*
X8511928Y-16633714D01*
X8426214Y-16633714D01*
X8397643Y-16619429D01*
X8383357Y-16605143D01*
X8697643Y-16605143D02*
X8711928Y-16619429D01*
X8697643Y-16633714D01*
X8683357Y-16619429D01*
X8697643Y-16605143D01*
X8697643Y-16633714D01*
X8826214Y-16362286D02*
X8840500Y-16348000D01*
X8869071Y-16333714D01*
X8940500Y-16333714D01*
X8969071Y-16348000D01*
X8983357Y-16362286D01*
X8997643Y-16390857D01*
X8997643Y-16419429D01*
X8983357Y-16462286D01*
X8811928Y-16633714D01*
X8997643Y-16633714D01*
X9183357Y-16333714D02*
X9211928Y-16333714D01*
X9240500Y-16348000D01*
X9254786Y-16362286D01*
X9269071Y-16390857D01*
X9283357Y-16448000D01*
X9283357Y-16519429D01*
X9269071Y-16576571D01*
X9254786Y-16605143D01*
X9240500Y-16619429D01*
X9211928Y-16633714D01*
X9183357Y-16633714D01*
X9154786Y-16619429D01*
X9140500Y-16605143D01*
X9126214Y-16576571D01*
X9111928Y-16519429D01*
X9111928Y-16448000D01*
X9126214Y-16390857D01*
X9140500Y-16362286D01*
X9154786Y-16348000D01*
X9183357Y-16333714D01*
X9411928Y-16633714D02*
X9411928Y-16433714D01*
X9411928Y-16462286D02*
X9426214Y-16448000D01*
X9454786Y-16433714D01*
X9497643Y-16433714D01*
X9526214Y-16448000D01*
X9540500Y-16476571D01*
X9540500Y-16633714D01*
X9540500Y-16476571D02*
X9554786Y-16448000D01*
X9583357Y-16433714D01*
X9626214Y-16433714D01*
X9654786Y-16448000D01*
X9669071Y-16476571D01*
X9669071Y-16633714D01*
X9811928Y-16633714D02*
X9811928Y-16433714D01*
X9811928Y-16462286D02*
X9826214Y-16448000D01*
X9854786Y-16433714D01*
X9897643Y-16433714D01*
X9926214Y-16448000D01*
X9940500Y-16476571D01*
X9940500Y-16633714D01*
X9940500Y-16476571D02*
X9954786Y-16448000D01*
X9983357Y-16433714D01*
X10026214Y-16433714D01*
X10054786Y-16448000D01*
X10069071Y-16476571D01*
X10069071Y-16633714D01*
X10654786Y-16319429D02*
X10397643Y-16705143D01*
X11040500Y-16333714D02*
X11069071Y-16333714D01*
X11097643Y-16348000D01*
X11111928Y-16362286D01*
X11126214Y-16390857D01*
X11140500Y-16448000D01*
X11140500Y-16519429D01*
X11126214Y-16576571D01*
X11111928Y-16605143D01*
X11097643Y-16619429D01*
X11069071Y-16633714D01*
X11040500Y-16633714D01*
X11011928Y-16619429D01*
X10997643Y-16605143D01*
X10983357Y-16576571D01*
X10969071Y-16519429D01*
X10969071Y-16448000D01*
X10983357Y-16390857D01*
X10997643Y-16362286D01*
X11011928Y-16348000D01*
X11040500Y-16333714D01*
X11269071Y-16605143D02*
X11283357Y-16619429D01*
X11269071Y-16633714D01*
X11254786Y-16619429D01*
X11269071Y-16605143D01*
X11269071Y-16633714D01*
X11569071Y-16633714D02*
X11397643Y-16633714D01*
X11483357Y-16633714D02*
X11483357Y-16333714D01*
X11454786Y-16376571D01*
X11426214Y-16405143D01*
X11397643Y-16419429D01*
X11683357Y-16362286D02*
X11697643Y-16348000D01*
X11726214Y-16333714D01*
X11797643Y-16333714D01*
X11826214Y-16348000D01*
X11840500Y-16362286D01*
X11854786Y-16390857D01*
X11854786Y-16419429D01*
X11840500Y-16462286D01*
X11669071Y-16633714D01*
X11854786Y-16633714D01*
X12111928Y-16333714D02*
X12054786Y-16333714D01*
X12026214Y-16348000D01*
X12011928Y-16362286D01*
X11983357Y-16405143D01*
X11969071Y-16462286D01*
X11969071Y-16576571D01*
X11983357Y-16605143D01*
X11997643Y-16619429D01*
X12026214Y-16633714D01*
X12083357Y-16633714D01*
X12111928Y-16619429D01*
X12126214Y-16605143D01*
X12140500Y-16576571D01*
X12140500Y-16505143D01*
X12126214Y-16476571D01*
X12111928Y-16462286D01*
X12083357Y-16448000D01*
X12026214Y-16448000D01*
X11997643Y-16462286D01*
X11983357Y-16476571D01*
X11969071Y-16505143D01*
X12254786Y-16333714D02*
X12254786Y-16390857D01*
X12369071Y-16333714D02*
X12369071Y-16390857D01*
X12811928Y-16748000D02*
X12797643Y-16733714D01*
X12769071Y-16690857D01*
X12754786Y-16662286D01*
X12740500Y-16619429D01*
X12726214Y-16548000D01*
X12726214Y-16490857D01*
X12740500Y-16419429D01*
X12754786Y-16376571D01*
X12769071Y-16348000D01*
X12797643Y-16305143D01*
X12811928Y-16290857D01*
X12897643Y-16333714D02*
X13083357Y-16333714D01*
X12983357Y-16448000D01*
X13026214Y-16448000D01*
X13054786Y-16462286D01*
X13069071Y-16476571D01*
X13083357Y-16505143D01*
X13083357Y-16576571D01*
X13069071Y-16605143D01*
X13054786Y-16619429D01*
X13026214Y-16633714D01*
X12940500Y-16633714D01*
X12911928Y-16619429D01*
X12897643Y-16605143D01*
X13440500Y-16633714D02*
X13440500Y-16333714D01*
X13569071Y-16633714D02*
X13569071Y-16476571D01*
X13554786Y-16448000D01*
X13526214Y-16433714D01*
X13483357Y-16433714D01*
X13454786Y-16448000D01*
X13440500Y-16462286D01*
X13754786Y-16633714D02*
X13726214Y-16619429D01*
X13711928Y-16605143D01*
X13697643Y-16576571D01*
X13697643Y-16490857D01*
X13711928Y-16462286D01*
X13726214Y-16448000D01*
X13754786Y-16433714D01*
X13797643Y-16433714D01*
X13826214Y-16448000D01*
X13840500Y-16462286D01*
X13854786Y-16490857D01*
X13854786Y-16576571D01*
X13840500Y-16605143D01*
X13826214Y-16619429D01*
X13797643Y-16633714D01*
X13754786Y-16633714D01*
X14026214Y-16633714D02*
X13997643Y-16619429D01*
X13983357Y-16590857D01*
X13983357Y-16333714D01*
X14254786Y-16619429D02*
X14226214Y-16633714D01*
X14169071Y-16633714D01*
X14140500Y-16619429D01*
X14126214Y-16590857D01*
X14126214Y-16476571D01*
X14140500Y-16448000D01*
X14169071Y-16433714D01*
X14226214Y-16433714D01*
X14254786Y-16448000D01*
X14269071Y-16476571D01*
X14269071Y-16505143D01*
X14126214Y-16533714D01*
X14383357Y-16619429D02*
X14411928Y-16633714D01*
X14469071Y-16633714D01*
X14497643Y-16619429D01*
X14511928Y-16590857D01*
X14511928Y-16576571D01*
X14497643Y-16548000D01*
X14469071Y-16533714D01*
X14426214Y-16533714D01*
X14397643Y-16519429D01*
X14383357Y-16490857D01*
X14383357Y-16476571D01*
X14397643Y-16448000D01*
X14426214Y-16433714D01*
X14469071Y-16433714D01*
X14497643Y-16448000D01*
X14611928Y-16748000D02*
X14626214Y-16733714D01*
X14654786Y-16690857D01*
X14669071Y-16662286D01*
X14683357Y-16619429D01*
X14697643Y-16548000D01*
X14697643Y-16490857D01*
X14683357Y-16419429D01*
X14669071Y-16376571D01*
X14654786Y-16348000D01*
X14626214Y-16305143D01*
X14611928Y-16290857D01*
M02*
