%FSLAX45Y45*%
G04 Gerber Fmt 4.5, Leading zero omitted, Abs format (unit mm)*
G04 Created by KiCad (PCBNEW 5.99.0+really5.1.9+dfsg1-1) date 2021-04-26 12:32:46*
%MOMM*%
%LPD*%
G01*
G04 APERTURE LIST*
%TA.AperFunction,Profile*%
%ADD10C,0.050000*%
%TD*%
%ADD11C,0.200000*%
%ADD12C,0.300000*%
G04 APERTURE END LIST*
D10*
X15684500Y-12763500D02*
X8128000Y-12763500D01*
X15684500Y-4572000D02*
X15684500Y-12763500D01*
X15684500Y-4572000D02*
X8128000Y-4572000D01*
X8128000Y-4572000D02*
X8128000Y-12763500D01*
D11*
D12*
X8411928Y-13231714D02*
X8411928Y-12931714D01*
X8483357Y-12931714D01*
X8526214Y-12946000D01*
X8554786Y-12974571D01*
X8569071Y-13003143D01*
X8583357Y-13060286D01*
X8583357Y-13103143D01*
X8569071Y-13160286D01*
X8554786Y-13188857D01*
X8526214Y-13217429D01*
X8483357Y-13231714D01*
X8411928Y-13231714D01*
X8711928Y-13231714D02*
X8711928Y-13031714D01*
X8711928Y-13088857D02*
X8726214Y-13060286D01*
X8740500Y-13046000D01*
X8769071Y-13031714D01*
X8797643Y-13031714D01*
X8897643Y-13231714D02*
X8897643Y-13031714D01*
X8897643Y-12931714D02*
X8883357Y-12946000D01*
X8897643Y-12960286D01*
X8911928Y-12946000D01*
X8897643Y-12931714D01*
X8897643Y-12960286D01*
X9083357Y-13231714D02*
X9054786Y-13217429D01*
X9040500Y-13188857D01*
X9040500Y-12931714D01*
X9240500Y-13231714D02*
X9211928Y-13217429D01*
X9197643Y-13188857D01*
X9197643Y-12931714D01*
X9583357Y-13231714D02*
X9583357Y-12931714D01*
X9683357Y-13146000D01*
X9783357Y-12931714D01*
X9783357Y-13231714D01*
X10054786Y-13231714D02*
X10054786Y-13074571D01*
X10040500Y-13046000D01*
X10011928Y-13031714D01*
X9954786Y-13031714D01*
X9926214Y-13046000D01*
X10054786Y-13217429D02*
X10026214Y-13231714D01*
X9954786Y-13231714D01*
X9926214Y-13217429D01*
X9911928Y-13188857D01*
X9911928Y-13160286D01*
X9926214Y-13131714D01*
X9954786Y-13117429D01*
X10026214Y-13117429D01*
X10054786Y-13103143D01*
X10197643Y-13031714D02*
X10197643Y-13331714D01*
X10197643Y-13046000D02*
X10226214Y-13031714D01*
X10283357Y-13031714D01*
X10311928Y-13046000D01*
X10326214Y-13060286D01*
X10340500Y-13088857D01*
X10340500Y-13174571D01*
X10326214Y-13203143D01*
X10311928Y-13217429D01*
X10283357Y-13231714D01*
X10226214Y-13231714D01*
X10197643Y-13217429D01*
X10469071Y-13203143D02*
X10483357Y-13217429D01*
X10469071Y-13231714D01*
X10454786Y-13217429D01*
X10469071Y-13203143D01*
X10469071Y-13231714D01*
X10469071Y-13046000D02*
X10483357Y-13060286D01*
X10469071Y-13074571D01*
X10454786Y-13060286D01*
X10469071Y-13046000D01*
X10469071Y-13074571D01*
M02*
