%TF.GenerationSoftware,KiCad,Pcbnew,5.99.0+really5.1.9+dfsg1-1*%
%TF.CreationDate,2021-04-26T13:39:28+03:00*%
%TF.ProjectId,accessController,61636365-7373-4436-9f6e-74726f6c6c65,rev?*%
%TF.SameCoordinates,Original*%
%TF.FileFunction,Copper,L1,Top*%
%TF.FilePolarity,Positive*%
%FSLAX46Y46*%
G04 Gerber Fmt 4.6, Leading zero omitted, Abs format (unit mm)*
G04 Created by KiCad (PCBNEW 5.99.0+really5.1.9+dfsg1-1) date 2021-04-26 13:39:28*
%MOMM*%
%LPD*%
G01*
G04 APERTURE LIST*
%TA.AperFunction,ComponentPad*%
%ADD10C,6.400000*%
%TD*%
%TA.AperFunction,ComponentPad*%
%ADD11R,2.000000X2.000000*%
%TD*%
%TA.AperFunction,ComponentPad*%
%ADD12C,2.000000*%
%TD*%
%TA.AperFunction,ComponentPad*%
%ADD13R,2.200000X2.200000*%
%TD*%
%TA.AperFunction,ComponentPad*%
%ADD14O,2.200000X2.200000*%
%TD*%
%TA.AperFunction,ComponentPad*%
%ADD15R,1.800000X1.800000*%
%TD*%
%TA.AperFunction,ComponentPad*%
%ADD16C,1.800000*%
%TD*%
%TA.AperFunction,ComponentPad*%
%ADD17R,3.960000X1.980000*%
%TD*%
%TA.AperFunction,ComponentPad*%
%ADD18O,3.960000X1.980000*%
%TD*%
%TA.AperFunction,ComponentPad*%
%ADD19C,3.000000*%
%TD*%
%TA.AperFunction,ComponentPad*%
%ADD20R,3.000000X3.000000*%
%TD*%
%TA.AperFunction,ComponentPad*%
%ADD21R,1.700000X1.700000*%
%TD*%
%TA.AperFunction,ComponentPad*%
%ADD22O,1.700000X1.700000*%
%TD*%
%TA.AperFunction,ViaPad*%
%ADD23C,1.500000*%
%TD*%
%TA.AperFunction,Conductor*%
%ADD24C,0.600000*%
%TD*%
%TA.AperFunction,Conductor*%
%ADD25C,0.400000*%
%TD*%
%TA.AperFunction,Conductor*%
%ADD26C,1.000000*%
%TD*%
G04 APERTURE END LIST*
D10*
%TO.P,REF\u002A\u002A,1*%
%TO.N,Earth*%
X152400000Y-123825000D03*
%TD*%
%TO.P,REF\u002A\u002A,1*%
%TO.N,Earth*%
X85725000Y-123825000D03*
%TD*%
%TO.P,REF\u002A\u002A,1*%
%TO.N,N/C*%
X85725000Y-50165000D03*
%TD*%
D11*
%TO.P,BZ1,1*%
%TO.N,Net-(BZ1-Pad1)*%
X138430000Y-91440000D03*
D12*
%TO.P,BZ1,2*%
%TO.N,Earth*%
X130830000Y-91440000D03*
%TD*%
D13*
%TO.P,D1,1*%
%TO.N,+5V*%
X126365000Y-76200000D03*
D14*
%TO.P,D1,2*%
%TO.N,Net-(D1-Pad2)*%
X126365000Y-86360000D03*
%TD*%
D15*
%TO.P,D2,1*%
%TO.N,Net-(D2-Pad1)*%
X148844000Y-89535000D03*
D16*
%TO.P,D2,2*%
%TO.N,Earth*%
X146304000Y-89535000D03*
%TO.P,D2,3*%
%TO.N,Net-(D2-Pad3)*%
X143764000Y-89535000D03*
%TD*%
D17*
%TO.P,J1,1*%
%TO.N,Net-(J1-Pad1)*%
X90170000Y-58420000D03*
D18*
%TO.P,J1,2*%
%TO.N,Earth*%
X90170000Y-63420000D03*
%TO.P,J1,3*%
%TO.N,Net-(J1-Pad3)*%
X90170000Y-68420000D03*
%TD*%
%TO.P,J2,3*%
%TO.N,Net-(J2-Pad3)*%
X90170000Y-90010000D03*
%TO.P,J2,2*%
%TO.N,Net-(J2-Pad2)*%
X90170000Y-85010000D03*
D17*
%TO.P,J2,1*%
%TO.N,Net-(J2-Pad1)*%
X90170000Y-80010000D03*
%TD*%
%TO.P,J3,1*%
%TO.N,Net-(J3-Pad1)*%
X90170000Y-97790000D03*
D18*
%TO.P,J3,2*%
%TO.N,Net-(J3-Pad2)*%
X90170000Y-102790000D03*
%TD*%
D19*
%TO.P,PS1,3*%
%TO.N,Earth*%
X142640000Y-69170000D03*
%TO.P,PS1,2*%
%TO.N,Net-(J1-Pad3)*%
X104140000Y-69170000D03*
%TO.P,PS1,4*%
%TO.N,+5V*%
X142640000Y-61170000D03*
D20*
%TO.P,PS1,1*%
%TO.N,Net-(J1-Pad1)*%
X104140000Y-58420000D03*
%TD*%
D12*
%TO.P,SW1,1*%
%TO.N,Net-(SW1-Pad1)*%
X144145000Y-112245000D03*
%TO.P,SW1,2*%
%TO.N,Earth*%
X148645000Y-112245000D03*
%TO.P,SW1,1*%
%TO.N,Net-(SW1-Pad1)*%
X144145000Y-118745000D03*
%TO.P,SW1,2*%
%TO.N,Earth*%
X148645000Y-118745000D03*
%TD*%
%TO.P,SW2,2*%
%TO.N,Earth*%
X148645000Y-106045000D03*
%TO.P,SW2,1*%
%TO.N,Net-(SW2-Pad1)*%
X144145000Y-106045000D03*
%TO.P,SW2,2*%
%TO.N,Earth*%
X148645000Y-99545000D03*
%TO.P,SW2,1*%
%TO.N,Net-(SW2-Pad1)*%
X144145000Y-99545000D03*
%TD*%
D19*
%TO.P,K1,2*%
%TO.N,+5V*%
X116110000Y-79090000D03*
%TO.P,K1,3*%
%TO.N,Net-(J2-Pad1)*%
X103910000Y-79090000D03*
%TO.P,K1,4*%
%TO.N,Net-(J2-Pad3)*%
X103910000Y-91090000D03*
%TO.P,K1,5*%
%TO.N,Net-(D1-Pad2)*%
X116110000Y-91090000D03*
%TO.P,K1,1*%
%TO.N,Net-(J2-Pad2)*%
X118110000Y-85090000D03*
%TD*%
D21*
%TO.P,Brd1,1*%
%TO.N,Earth*%
X153035000Y-74295000D03*
D22*
%TO.P,Brd1,2*%
%TO.N,+3V3*%
X153035000Y-76835000D03*
%TO.P,Brd1,3*%
%TO.N,Net-(Brd1-Pad3)*%
X153035000Y-79375000D03*
%TO.P,Brd1,4*%
%TO.N,Net-(Brd1-Pad4)*%
X153035000Y-81915000D03*
%TD*%
D21*
%TO.P,J4,1*%
%TO.N,Net-(J4-Pad1)*%
X106680000Y-116205000D03*
D22*
%TO.P,J4,2*%
%TO.N,+3V3*%
X106680000Y-118745000D03*
%TO.P,J4,3*%
%TO.N,Net-(J4-Pad3)*%
X104140000Y-116205000D03*
%TO.P,J4,4*%
%TO.N,Earth*%
X104140000Y-118745000D03*
%TO.P,J4,5*%
%TO.N,Net-(J4-Pad5)*%
X101600000Y-116205000D03*
%TO.P,J4,6*%
%TO.N,Earth*%
X101600000Y-118745000D03*
%TO.P,J4,7*%
%TO.N,Net-(J4-Pad7)*%
X99060000Y-116205000D03*
%TO.P,J4,8*%
%TO.N,Earth*%
X99060000Y-118745000D03*
%TO.P,J4,9*%
%TO.N,Net-(J4-Pad9)*%
X96520000Y-116205000D03*
%TO.P,J4,10*%
%TO.N,Earth*%
X96520000Y-118745000D03*
%TO.P,J4,11*%
%TO.N,Net-(J4-Pad11)*%
X93980000Y-116205000D03*
%TO.P,J4,12*%
%TO.N,Earth*%
X93980000Y-118745000D03*
%TO.P,J4,13*%
%TO.N,Net-(J4-Pad13)*%
X91440000Y-116205000D03*
%TO.P,J4,14*%
%TO.N,Earth*%
X91440000Y-118745000D03*
%TO.P,J4,15*%
%TO.N,Net-(J4-Pad15)*%
X88900000Y-116205000D03*
%TO.P,J4,16*%
%TO.N,Earth*%
X88900000Y-118745000D03*
%TO.P,J4,17*%
%TO.N,Net-(J4-Pad17)*%
X86360000Y-116205000D03*
%TO.P,J4,18*%
%TO.N,Earth*%
X86360000Y-118745000D03*
%TO.P,J4,19*%
%TO.N,Net-(J4-Pad19)*%
X83820000Y-116205000D03*
%TO.P,J4,20*%
%TO.N,Earth*%
X83820000Y-118745000D03*
%TD*%
%TO.P,J5,4*%
%TO.N,Earth*%
X139065000Y-111125000D03*
%TO.P,J5,3*%
%TO.N,Net-(J5-Pad3)*%
X139065000Y-113665000D03*
%TO.P,J5,2*%
%TO.N,Net-(J5-Pad2)*%
X139065000Y-116205000D03*
D21*
%TO.P,J5,1*%
%TO.N,+3V3*%
X139065000Y-118745000D03*
%TD*%
%TO.P,JP1,1*%
%TO.N,Net-(JP1-Pad1)*%
X137160000Y-100330000D03*
D22*
%TO.P,JP1,2*%
%TO.N,Earth*%
X137160000Y-102870000D03*
%TD*%
D21*
%TO.P,RFID1,1*%
%TO.N,Net-(Brd1-Pad4)*%
X153035000Y-67945000D03*
D22*
%TO.P,RFID1,2*%
%TO.N,Net-(Brd1-Pad3)*%
X153035000Y-65405000D03*
%TO.P,RFID1,3*%
%TO.N,Net-(RFID1-Pad3)*%
X153035000Y-62865000D03*
%TO.P,RFID1,4*%
%TO.N,Net-(RFID1-Pad4)*%
X153035000Y-60325000D03*
%TO.P,RFID1,5*%
%TO.N,Net-(RFID1-Pad5)*%
X153035000Y-57785000D03*
%TO.P,RFID1,6*%
%TO.N,Earth*%
X153035000Y-55245000D03*
%TO.P,RFID1,7*%
%TO.N,Net-(RFID1-Pad7)*%
X153035000Y-52705000D03*
%TO.P,RFID1,8*%
%TO.N,+3V3*%
X153035000Y-50165000D03*
%TD*%
D23*
%TO.N,Earth*%
X130175000Y-74295000D03*
X121285000Y-74295000D03*
X131445000Y-83185000D03*
X113210010Y-97662970D03*
X113210010Y-101042947D03*
X150495000Y-69850000D03*
X140335000Y-101600000D03*
X140335000Y-107950000D03*
X142875000Y-96520000D03*
X153035000Y-96520000D03*
X131445000Y-75565000D03*
X150675010Y-51435000D03*
X146685000Y-80645000D03*
X142240000Y-80645000D03*
X146685000Y-82550000D03*
X146685000Y-85090000D03*
%TO.N,+3V3*%
X147320012Y-74930000D03*
X140208000Y-74930000D03*
X136271004Y-118745000D03*
X113157000Y-118745004D03*
X148590000Y-67310000D03*
X148590000Y-50165000D03*
%TO.N,+5V*%
X111760000Y-95250000D03*
X111725417Y-102269583D03*
X122555012Y-93980000D03*
X122555000Y-76835000D03*
%TD*%
D24*
%TO.N,Earth*%
X113210010Y-97662970D02*
X113210010Y-98723630D01*
X113210010Y-98723630D02*
X113210010Y-101042947D01*
X140335000Y-101600000D02*
X140335000Y-107950000D01*
X142875000Y-96520000D02*
X153035000Y-96520000D01*
D25*
X131445000Y-83185000D02*
X131445000Y-75565000D01*
D24*
X150495000Y-69850000D02*
X150495000Y-51615010D01*
X150495000Y-51615010D02*
X150675010Y-51435000D01*
X146685000Y-80645000D02*
X142240000Y-80645000D01*
X146685000Y-82550000D02*
X146685000Y-85090000D01*
X122345660Y-74295000D02*
X130175000Y-74295000D01*
X121285000Y-74295000D02*
X122345660Y-74295000D01*
D26*
%TO.N,+3V3*%
X147320012Y-74930000D02*
X140208000Y-74930000D01*
X136271004Y-118745000D02*
X113157004Y-118745000D01*
X113157004Y-118745000D02*
X113157000Y-118745004D01*
X148590000Y-67310000D02*
X148590000Y-66249340D01*
X148590000Y-66249340D02*
X148590000Y-50165000D01*
%TO.N,+5V*%
X111760000Y-102235000D02*
X111725417Y-102269583D01*
X111760000Y-95250000D02*
X111760000Y-102235000D01*
X122620010Y-80355044D02*
X122555000Y-80290034D01*
X122555000Y-89889966D02*
X122620010Y-89824956D01*
X122620010Y-89824956D02*
X122620010Y-80355044D01*
X122555000Y-93979988D02*
X122555000Y-89889966D01*
X122555000Y-80290034D02*
X122555000Y-76835000D01*
X122555012Y-93980000D02*
X122555000Y-93979988D01*
%TD*%
M02*
